%TF.GenerationSoftware,KiCad,Pcbnew,8.0.1*%
%TF.CreationDate,2024-04-17T00:28:09-04:00*%
%TF.ProjectId,NerdNOS,4e657264-4e4f-4532-9e6b-696361645f70,rev?*%
%TF.SameCoordinates,Original*%
%TF.FileFunction,Copper,L2,Bot*%
%TF.FilePolarity,Positive*%
%FSLAX46Y46*%
G04 Gerber Fmt 4.6, Leading zero omitted, Abs format (unit mm)*
G04 Created by KiCad (PCBNEW 8.0.1) date 2024-04-17 00:28:09*
%MOMM*%
%LPD*%
G01*
G04 APERTURE LIST*
%TA.AperFunction,ComponentPad*%
%ADD10R,1.700000X1.700000*%
%TD*%
%TA.AperFunction,ComponentPad*%
%ADD11O,1.700000X1.700000*%
%TD*%
%TA.AperFunction,ComponentPad*%
%ADD12O,2.100000X1.000000*%
%TD*%
%TA.AperFunction,ComponentPad*%
%ADD13O,1.800000X1.000000*%
%TD*%
%TA.AperFunction,ViaPad*%
%ADD14C,0.600000*%
%TD*%
%TA.AperFunction,Conductor*%
%ADD15C,0.200000*%
%TD*%
G04 APERTURE END LIST*
D10*
%TO.P,J2,1,Pin_1*%
%TO.N,/BM1397/VBUS*%
X116690000Y-77700000D03*
D11*
%TO.P,J2,2,Pin_2*%
%TO.N,GND*%
X114150000Y-77300000D03*
%TO.P,J2,3,Pin_3*%
%TO.N,unconnected-(J2-Pin_3-Pad3)*%
X111610000Y-77700000D03*
%TO.P,J2,4,Pin_4*%
%TO.N,unconnected-(J2-Pin_4-Pad4)*%
X109070000Y-77300000D03*
%TO.P,J2,5,Pin_5*%
%TO.N,unconnected-(J2-Pin_5-Pad5)*%
X106530000Y-77700000D03*
%TO.P,J2,6,Pin_6*%
%TO.N,unconnected-(J2-Pin_6-Pad6)*%
X103990000Y-77300000D03*
%TO.P,J2,7,Pin_7*%
%TO.N,unconnected-(J2-Pin_7-Pad7)*%
X101450000Y-77700000D03*
%TO.P,J2,8,Pin_8*%
%TO.N,/T_Display_S3/GPIO10*%
X98910000Y-77300000D03*
%TO.P,J2,9,Pin_9*%
%TO.N,/BM1397/RST*%
X96370000Y-77700000D03*
%TO.P,J2,10,Pin_10*%
%TO.N,/T_Display_S3/GPIO2*%
X93830000Y-77300000D03*
%TO.P,J2,11,Pin_11*%
%TO.N,/T_Display_S3/GPIO1*%
X91290000Y-77700000D03*
%TO.P,J2,12,Pin_12*%
%TO.N,/BM1397/3V3*%
X88750000Y-77300000D03*
%TD*%
D10*
%TO.P,J1,1,Pin_1*%
%TO.N,unconnected-(J1-Pin_1-Pad1)*%
X116690000Y-55200000D03*
D11*
%TO.P,J1,2,Pin_2*%
%TO.N,GND*%
X114150000Y-54800000D03*
%TO.P,J1,3,Pin_3*%
X111610000Y-55200000D03*
%TO.P,J1,4,Pin_4*%
%TO.N,unconnected-(J1-Pin_4-Pad4)*%
X109070000Y-54800000D03*
%TO.P,J1,5,Pin_5*%
%TO.N,unconnected-(J1-Pin_5-Pad5)*%
X106530000Y-55200000D03*
%TO.P,J1,6,Pin_6*%
%TO.N,unconnected-(J1-Pin_6-Pad6)*%
X103990000Y-54800000D03*
%TO.P,J1,7,Pin_7*%
%TO.N,unconnected-(J1-Pin_7-Pad7)*%
X101450000Y-55200000D03*
%TO.P,J1,8,Pin_8*%
%TO.N,unconnected-(J1-Pin_8-Pad8)*%
X98910000Y-54800000D03*
%TO.P,J1,9,Pin_9*%
%TO.N,unconnected-(J1-Pin_9-Pad9)*%
X96370000Y-55200000D03*
%TO.P,J1,10,Pin_10*%
%TO.N,unconnected-(J1-Pin_10-Pad10)*%
X93830000Y-54800000D03*
%TO.P,J1,11,Pin_11*%
%TO.N,GND*%
X91290000Y-55200000D03*
%TO.P,J1,12,Pin_12*%
X88750000Y-54800000D03*
%TD*%
D12*
%TO.P,J3,S1,SHIELD*%
%TO.N,GND*%
X135485000Y-70510000D03*
D13*
X139665000Y-70510000D03*
D12*
X135485000Y-61870000D03*
D13*
X139665000Y-61870000D03*
%TD*%
D14*
%TO.N,/BM1397/RST*%
X83900000Y-69800000D03*
%TO.N,GND*%
X87600000Y-67700000D03*
X99400000Y-65100000D03*
X104050000Y-65700000D03*
X101050000Y-64700000D03*
X121200000Y-73200000D03*
X126970000Y-64480000D03*
X105050000Y-66700000D03*
X105600000Y-61200000D03*
X85450063Y-73288993D03*
X115612851Y-57176045D03*
X104050000Y-64700000D03*
X105050000Y-63700000D03*
X126300000Y-65250000D03*
X120220000Y-69580000D03*
X101050000Y-68700000D03*
X84400000Y-56800000D03*
X102050000Y-66700000D03*
X103050000Y-63700000D03*
X90100000Y-65200000D03*
X119930000Y-70800000D03*
X117890000Y-70830000D03*
X103050000Y-68700000D03*
X103050000Y-64700000D03*
X105050000Y-68700000D03*
X125670000Y-64480000D03*
X104050000Y-63700000D03*
X104050000Y-66700000D03*
X101050000Y-65700000D03*
X88000000Y-61100000D03*
X83109999Y-64124265D03*
X85546787Y-71457468D03*
X101050000Y-63700000D03*
X93677036Y-61494171D03*
X115605202Y-75309066D03*
X102050000Y-64700000D03*
X102100000Y-71700000D03*
X123390000Y-74150000D03*
X86255604Y-62397971D03*
X82300000Y-67680000D03*
X94000000Y-72000000D03*
X103050000Y-66700000D03*
X105050000Y-67700000D03*
X133800000Y-66290000D03*
X94200000Y-63700000D03*
X105050000Y-64700000D03*
X94100000Y-69000000D03*
X126300000Y-63700000D03*
X102050000Y-68700000D03*
X91100000Y-63900000D03*
X86400000Y-61000000D03*
X117890000Y-69600000D03*
X125670000Y-65980000D03*
X101050000Y-67700000D03*
X102020000Y-61000000D03*
X104050000Y-68700000D03*
X121110000Y-70780000D03*
X103050000Y-67700000D03*
X104050000Y-67700000D03*
X88900000Y-64300000D03*
X126300000Y-66800000D03*
X93400000Y-66200000D03*
X102050000Y-67700000D03*
X120200000Y-73300000D03*
X105050000Y-65700000D03*
X133800000Y-65390000D03*
X102050000Y-63700000D03*
X101050000Y-66700000D03*
X90000000Y-66100000D03*
X126970000Y-65980000D03*
X102050000Y-65700000D03*
X103050000Y-65700000D03*
%TO.N,/BM1397/3V3*%
X90856372Y-75393628D03*
X89725000Y-76525000D03*
%TO.N,/T_Display_S3/GPIO2*%
X89525735Y-74574265D03*
X88200000Y-74574265D03*
%TO.N,/T_Display_S3/GPIO10*%
X99400000Y-70580000D03*
X98910000Y-75000000D03*
%TD*%
D15*
%TO.N,/BM1397/RST*%
X88470000Y-69800000D02*
X83900000Y-69800000D01*
X96370000Y-77700000D02*
X88470000Y-69800000D01*
%TO.N,/BM1397/3V3*%
X90856372Y-75393628D02*
X89725000Y-76525000D01*
%TO.N,/T_Display_S3/GPIO2*%
X89525735Y-74574265D02*
X88200000Y-74574265D01*
%TO.N,/T_Display_S3/GPIO10*%
X99400000Y-70580000D02*
X98910000Y-71070000D01*
X98910000Y-75000000D02*
X98910000Y-77500000D01*
X98910000Y-74100000D02*
X98910000Y-75000000D01*
X98910000Y-71070000D02*
X98910000Y-74100000D01*
%TD*%
%TA.AperFunction,Conductor*%
%TO.N,GND*%
G36*
X93005828Y-53519685D02*
G01*
X93051583Y-53572489D01*
X93061527Y-53641647D01*
X93032502Y-53705203D01*
X93009912Y-53725575D01*
X92958597Y-53761505D01*
X92791505Y-53928597D01*
X92655965Y-54122169D01*
X92655964Y-54122171D01*
X92556098Y-54336335D01*
X92556094Y-54336344D01*
X92494938Y-54564586D01*
X92494936Y-54564596D01*
X92474341Y-54799999D01*
X92474341Y-54800000D01*
X92494936Y-55035403D01*
X92494938Y-55035413D01*
X92556094Y-55263655D01*
X92556096Y-55263659D01*
X92556097Y-55263663D01*
X92626820Y-55415328D01*
X92655965Y-55477830D01*
X92655967Y-55477834D01*
X92762397Y-55629830D01*
X92791505Y-55671401D01*
X92958599Y-55838495D01*
X93014775Y-55877830D01*
X93152165Y-55974032D01*
X93152167Y-55974033D01*
X93152170Y-55974035D01*
X93366337Y-56073903D01*
X93594592Y-56135063D01*
X93782918Y-56151539D01*
X93829999Y-56155659D01*
X93830000Y-56155659D01*
X93830001Y-56155659D01*
X93869234Y-56152226D01*
X94065408Y-56135063D01*
X94293663Y-56073903D01*
X94507830Y-55974035D01*
X94701401Y-55838495D01*
X94868495Y-55671401D01*
X94884091Y-55649127D01*
X94938664Y-55605504D01*
X95008162Y-55598309D01*
X95070518Y-55629830D01*
X95098047Y-55667846D01*
X95195965Y-55877830D01*
X95195967Y-55877834D01*
X95304281Y-56032521D01*
X95331505Y-56071401D01*
X95498599Y-56238495D01*
X95595384Y-56306265D01*
X95692165Y-56374032D01*
X95692167Y-56374033D01*
X95692170Y-56374035D01*
X95906337Y-56473903D01*
X96134592Y-56535063D01*
X96311034Y-56550500D01*
X96369999Y-56555659D01*
X96370000Y-56555659D01*
X96370001Y-56555659D01*
X96428966Y-56550500D01*
X96605408Y-56535063D01*
X96833663Y-56473903D01*
X97047830Y-56374035D01*
X97241401Y-56238495D01*
X97408495Y-56071401D01*
X97544035Y-55877830D01*
X97641952Y-55667844D01*
X97688124Y-55615407D01*
X97755318Y-55596255D01*
X97822199Y-55616471D01*
X97855909Y-55649128D01*
X97871500Y-55671395D01*
X97871505Y-55671401D01*
X98038599Y-55838495D01*
X98094775Y-55877830D01*
X98232165Y-55974032D01*
X98232167Y-55974033D01*
X98232170Y-55974035D01*
X98446337Y-56073903D01*
X98674592Y-56135063D01*
X98862918Y-56151539D01*
X98909999Y-56155659D01*
X98910000Y-56155659D01*
X98910001Y-56155659D01*
X98949234Y-56152226D01*
X99145408Y-56135063D01*
X99373663Y-56073903D01*
X99587830Y-55974035D01*
X99781401Y-55838495D01*
X99948495Y-55671401D01*
X99964091Y-55649127D01*
X100018664Y-55605504D01*
X100088162Y-55598309D01*
X100150518Y-55629830D01*
X100178047Y-55667846D01*
X100275965Y-55877830D01*
X100275967Y-55877834D01*
X100384281Y-56032521D01*
X100411505Y-56071401D01*
X100578599Y-56238495D01*
X100675384Y-56306265D01*
X100772165Y-56374032D01*
X100772167Y-56374033D01*
X100772170Y-56374035D01*
X100986337Y-56473903D01*
X101214592Y-56535063D01*
X101391034Y-56550500D01*
X101449999Y-56555659D01*
X101450000Y-56555659D01*
X101450001Y-56555659D01*
X101508966Y-56550500D01*
X101685408Y-56535063D01*
X101913663Y-56473903D01*
X102127830Y-56374035D01*
X102321401Y-56238495D01*
X102488495Y-56071401D01*
X102624035Y-55877830D01*
X102721952Y-55667844D01*
X102768124Y-55615407D01*
X102835318Y-55596255D01*
X102902199Y-55616471D01*
X102935909Y-55649128D01*
X102951500Y-55671395D01*
X102951505Y-55671401D01*
X103118599Y-55838495D01*
X103174775Y-55877830D01*
X103312165Y-55974032D01*
X103312167Y-55974033D01*
X103312170Y-55974035D01*
X103526337Y-56073903D01*
X103754592Y-56135063D01*
X103942918Y-56151539D01*
X103989999Y-56155659D01*
X103990000Y-56155659D01*
X103990001Y-56155659D01*
X104029234Y-56152226D01*
X104225408Y-56135063D01*
X104453663Y-56073903D01*
X104667830Y-55974035D01*
X104861401Y-55838495D01*
X105028495Y-55671401D01*
X105044091Y-55649127D01*
X105098664Y-55605504D01*
X105168162Y-55598309D01*
X105230518Y-55629830D01*
X105258047Y-55667846D01*
X105355965Y-55877830D01*
X105355967Y-55877834D01*
X105464281Y-56032521D01*
X105491505Y-56071401D01*
X105658599Y-56238495D01*
X105755384Y-56306265D01*
X105852165Y-56374032D01*
X105852167Y-56374033D01*
X105852170Y-56374035D01*
X106066337Y-56473903D01*
X106294592Y-56535063D01*
X106471034Y-56550500D01*
X106529999Y-56555659D01*
X106530000Y-56555659D01*
X106530001Y-56555659D01*
X106588966Y-56550500D01*
X106765408Y-56535063D01*
X106993663Y-56473903D01*
X107207830Y-56374035D01*
X107401401Y-56238495D01*
X107568495Y-56071401D01*
X107704035Y-55877830D01*
X107801952Y-55667844D01*
X107848124Y-55615407D01*
X107915318Y-55596255D01*
X107982199Y-55616471D01*
X108015909Y-55649128D01*
X108031500Y-55671395D01*
X108031505Y-55671401D01*
X108198599Y-55838495D01*
X108254775Y-55877830D01*
X108392165Y-55974032D01*
X108392167Y-55974033D01*
X108392170Y-55974035D01*
X108606337Y-56073903D01*
X108834592Y-56135063D01*
X109022918Y-56151539D01*
X109069999Y-56155659D01*
X109070000Y-56155659D01*
X109070001Y-56155659D01*
X109109234Y-56152226D01*
X109305408Y-56135063D01*
X109444216Y-56097870D01*
X115339500Y-56097870D01*
X115339501Y-56097876D01*
X115345908Y-56157483D01*
X115396202Y-56292328D01*
X115396206Y-56292335D01*
X115482452Y-56407544D01*
X115482455Y-56407547D01*
X115597664Y-56493793D01*
X115597671Y-56493797D01*
X115732517Y-56544091D01*
X115732516Y-56544091D01*
X115739444Y-56544835D01*
X115792127Y-56550500D01*
X117587872Y-56550499D01*
X117647483Y-56544091D01*
X117782331Y-56493796D01*
X117897546Y-56407546D01*
X117983796Y-56292331D01*
X118034091Y-56157483D01*
X118040500Y-56097873D01*
X118040499Y-54302128D01*
X118034091Y-54242517D01*
X117983796Y-54107669D01*
X117983795Y-54107668D01*
X117983793Y-54107664D01*
X117897547Y-53992455D01*
X117897544Y-53992452D01*
X117782335Y-53906206D01*
X117782328Y-53906202D01*
X117647482Y-53855908D01*
X117647483Y-53855908D01*
X117587883Y-53849501D01*
X117587881Y-53849500D01*
X117587873Y-53849500D01*
X117587864Y-53849500D01*
X115792129Y-53849500D01*
X115792123Y-53849501D01*
X115732516Y-53855908D01*
X115597671Y-53906202D01*
X115597664Y-53906206D01*
X115482455Y-53992452D01*
X115482452Y-53992455D01*
X115396206Y-54107664D01*
X115396202Y-54107671D01*
X115345908Y-54242517D01*
X115339501Y-54302116D01*
X115339501Y-54302123D01*
X115339500Y-54302135D01*
X115339500Y-56097870D01*
X109444216Y-56097870D01*
X109533663Y-56073903D01*
X109747830Y-55974035D01*
X109941401Y-55838495D01*
X110108495Y-55671401D01*
X110244035Y-55477830D01*
X110343903Y-55263663D01*
X110405063Y-55035408D01*
X110425659Y-54800000D01*
X110405063Y-54564592D01*
X110343903Y-54336337D01*
X110244035Y-54122171D01*
X110233878Y-54107664D01*
X110108494Y-53928597D01*
X109941402Y-53761506D01*
X109941396Y-53761501D01*
X109890088Y-53725575D01*
X109846463Y-53670998D01*
X109839269Y-53601500D01*
X109870792Y-53539145D01*
X109931022Y-53503731D01*
X109961211Y-53500000D01*
X140397978Y-53500000D01*
X140402021Y-53500066D01*
X140406710Y-53500218D01*
X140451282Y-53501673D01*
X140479325Y-53505831D01*
X140576403Y-53531843D01*
X140606301Y-53544227D01*
X140691558Y-53593450D01*
X140717237Y-53613155D01*
X140786844Y-53682762D01*
X140806550Y-53708443D01*
X140837185Y-53761505D01*
X140855770Y-53793694D01*
X140868158Y-53823601D01*
X140894167Y-53920670D01*
X140898326Y-53948717D01*
X140899934Y-53997975D01*
X140900000Y-54002021D01*
X140900000Y-78497978D01*
X140899934Y-78502024D01*
X140898326Y-78551282D01*
X140894167Y-78579329D01*
X140868158Y-78676398D01*
X140855770Y-78706305D01*
X140806550Y-78791556D01*
X140786844Y-78817237D01*
X140717237Y-78886844D01*
X140691556Y-78906550D01*
X140606305Y-78955770D01*
X140576398Y-78968158D01*
X140479329Y-78994167D01*
X140451282Y-78998326D01*
X140406973Y-78999772D01*
X140402020Y-78999934D01*
X140397978Y-79000000D01*
X118076057Y-79000000D01*
X118009018Y-78980315D01*
X117963263Y-78927511D01*
X117953319Y-78858353D01*
X117976792Y-78801687D01*
X117983795Y-78792332D01*
X117983796Y-78792331D01*
X118034091Y-78657483D01*
X118040500Y-78597873D01*
X118040499Y-76802128D01*
X118034091Y-76742517D01*
X117983796Y-76607669D01*
X117983795Y-76607668D01*
X117983793Y-76607664D01*
X117897547Y-76492455D01*
X117897544Y-76492452D01*
X117782335Y-76406206D01*
X117782328Y-76406202D01*
X117647482Y-76355908D01*
X117647483Y-76355908D01*
X117587883Y-76349501D01*
X117587881Y-76349500D01*
X117587873Y-76349500D01*
X117587864Y-76349500D01*
X115792129Y-76349500D01*
X115792123Y-76349501D01*
X115732516Y-76355908D01*
X115597671Y-76406202D01*
X115597664Y-76406206D01*
X115482455Y-76492452D01*
X115482452Y-76492455D01*
X115396206Y-76607664D01*
X115396202Y-76607671D01*
X115345908Y-76742517D01*
X115339501Y-76802116D01*
X115339501Y-76802123D01*
X115339500Y-76802135D01*
X115339500Y-78597870D01*
X115339501Y-78597876D01*
X115345908Y-78657483D01*
X115396202Y-78792328D01*
X115396204Y-78792332D01*
X115403208Y-78801687D01*
X115427627Y-78867151D01*
X115412777Y-78935424D01*
X115363373Y-78984831D01*
X115303943Y-79000000D01*
X112501211Y-79000000D01*
X112434172Y-78980315D01*
X112388417Y-78927511D01*
X112378473Y-78858353D01*
X112407498Y-78794797D01*
X112430088Y-78774425D01*
X112445595Y-78763566D01*
X112481401Y-78738495D01*
X112648495Y-78571401D01*
X112784035Y-78377830D01*
X112883903Y-78163663D01*
X112945063Y-77935408D01*
X112965659Y-77700000D01*
X112945063Y-77464592D01*
X112883903Y-77236337D01*
X112784035Y-77022171D01*
X112677601Y-76870166D01*
X112648494Y-76828597D01*
X112481402Y-76661506D01*
X112481395Y-76661501D01*
X112287834Y-76525967D01*
X112287830Y-76525965D01*
X112287828Y-76525964D01*
X112073663Y-76426097D01*
X112073659Y-76426096D01*
X112073655Y-76426094D01*
X111845413Y-76364938D01*
X111845403Y-76364936D01*
X111610001Y-76344341D01*
X111609999Y-76344341D01*
X111374596Y-76364936D01*
X111374586Y-76364938D01*
X111146344Y-76426094D01*
X111146337Y-76426096D01*
X111146337Y-76426097D01*
X111132816Y-76432401D01*
X110932171Y-76525964D01*
X110932169Y-76525965D01*
X110738597Y-76661505D01*
X110571506Y-76828596D01*
X110555908Y-76850873D01*
X110501330Y-76894497D01*
X110431832Y-76901689D01*
X110369478Y-76870166D01*
X110341952Y-76832153D01*
X110244035Y-76622171D01*
X110244034Y-76622169D01*
X110108494Y-76428597D01*
X109941402Y-76261506D01*
X109941395Y-76261501D01*
X109747834Y-76125967D01*
X109747830Y-76125965D01*
X109644855Y-76077947D01*
X109533663Y-76026097D01*
X109533659Y-76026096D01*
X109533655Y-76026094D01*
X109305413Y-75964938D01*
X109305403Y-75964936D01*
X109070001Y-75944341D01*
X109069999Y-75944341D01*
X108834596Y-75964936D01*
X108834586Y-75964938D01*
X108606344Y-76026094D01*
X108606335Y-76026098D01*
X108392171Y-76125964D01*
X108392169Y-76125965D01*
X108198597Y-76261505D01*
X108031505Y-76428597D01*
X107895965Y-76622169D01*
X107895964Y-76622171D01*
X107798047Y-76832153D01*
X107751874Y-76884592D01*
X107684681Y-76903744D01*
X107617799Y-76883528D01*
X107584089Y-76850870D01*
X107570983Y-76832153D01*
X107568495Y-76828599D01*
X107568493Y-76828597D01*
X107568492Y-76828595D01*
X107401402Y-76661506D01*
X107401395Y-76661501D01*
X107207834Y-76525967D01*
X107207830Y-76525965D01*
X107207828Y-76525964D01*
X106993663Y-76426097D01*
X106993659Y-76426096D01*
X106993655Y-76426094D01*
X106765413Y-76364938D01*
X106765403Y-76364936D01*
X106530001Y-76344341D01*
X106529999Y-76344341D01*
X106294596Y-76364936D01*
X106294586Y-76364938D01*
X106066344Y-76426094D01*
X106066337Y-76426096D01*
X106066337Y-76426097D01*
X106052816Y-76432401D01*
X105852171Y-76525964D01*
X105852169Y-76525965D01*
X105658597Y-76661505D01*
X105491506Y-76828596D01*
X105475908Y-76850873D01*
X105421330Y-76894497D01*
X105351832Y-76901689D01*
X105289478Y-76870166D01*
X105261952Y-76832153D01*
X105164035Y-76622171D01*
X105164034Y-76622169D01*
X105028494Y-76428597D01*
X104861402Y-76261506D01*
X104861395Y-76261501D01*
X104667834Y-76125967D01*
X104667830Y-76125965D01*
X104564855Y-76077947D01*
X104453663Y-76026097D01*
X104453659Y-76026096D01*
X104453655Y-76026094D01*
X104225413Y-75964938D01*
X104225403Y-75964936D01*
X103990001Y-75944341D01*
X103989999Y-75944341D01*
X103754596Y-75964936D01*
X103754586Y-75964938D01*
X103526344Y-76026094D01*
X103526335Y-76026098D01*
X103312171Y-76125964D01*
X103312169Y-76125965D01*
X103118597Y-76261505D01*
X102951505Y-76428597D01*
X102815965Y-76622169D01*
X102815964Y-76622171D01*
X102718047Y-76832153D01*
X102671874Y-76884592D01*
X102604681Y-76903744D01*
X102537799Y-76883528D01*
X102504089Y-76850870D01*
X102490983Y-76832153D01*
X102488495Y-76828599D01*
X102488493Y-76828597D01*
X102488492Y-76828595D01*
X102321402Y-76661506D01*
X102321395Y-76661501D01*
X102127834Y-76525967D01*
X102127830Y-76525965D01*
X102127828Y-76525964D01*
X101913663Y-76426097D01*
X101913659Y-76426096D01*
X101913655Y-76426094D01*
X101685413Y-76364938D01*
X101685403Y-76364936D01*
X101450001Y-76344341D01*
X101449999Y-76344341D01*
X101214596Y-76364936D01*
X101214586Y-76364938D01*
X100986344Y-76426094D01*
X100986337Y-76426096D01*
X100986337Y-76426097D01*
X100972816Y-76432401D01*
X100772171Y-76525964D01*
X100772169Y-76525965D01*
X100578597Y-76661505D01*
X100411506Y-76828596D01*
X100395908Y-76850873D01*
X100341330Y-76894497D01*
X100271832Y-76901689D01*
X100209478Y-76870166D01*
X100181952Y-76832153D01*
X100084035Y-76622171D01*
X100084034Y-76622169D01*
X99948494Y-76428597D01*
X99781402Y-76261506D01*
X99781395Y-76261501D01*
X99587831Y-76125965D01*
X99587826Y-76125962D01*
X99582091Y-76123288D01*
X99529653Y-76077113D01*
X99510500Y-76010908D01*
X99510500Y-75582412D01*
X99530185Y-75515373D01*
X99537555Y-75505097D01*
X99539810Y-75502267D01*
X99539816Y-75502262D01*
X99635789Y-75349522D01*
X99695368Y-75179255D01*
X99695369Y-75179249D01*
X99715565Y-75000003D01*
X99715565Y-74999996D01*
X99695369Y-74820750D01*
X99695368Y-74820745D01*
X99671845Y-74753520D01*
X99635789Y-74650478D01*
X99539816Y-74497738D01*
X99539814Y-74497736D01*
X99539813Y-74497734D01*
X99537550Y-74494896D01*
X99536659Y-74492715D01*
X99536111Y-74491842D01*
X99536264Y-74491745D01*
X99511144Y-74430209D01*
X99510500Y-74417587D01*
X99510500Y-71477409D01*
X99530185Y-71410370D01*
X99582989Y-71364615D01*
X99593539Y-71360369D01*
X99749522Y-71305789D01*
X99902262Y-71209816D01*
X100029816Y-71082262D01*
X100125789Y-70929522D01*
X100185368Y-70759255D01*
X100187896Y-70736818D01*
X100205565Y-70580003D01*
X100205565Y-70579996D01*
X100185369Y-70400750D01*
X100185368Y-70400745D01*
X100125788Y-70230476D01*
X100086582Y-70168080D01*
X100029816Y-70077738D01*
X99902262Y-69950184D01*
X99749523Y-69854211D01*
X99579254Y-69794631D01*
X99579249Y-69794630D01*
X99400004Y-69774435D01*
X99399996Y-69774435D01*
X99220750Y-69794630D01*
X99220745Y-69794631D01*
X99050476Y-69854211D01*
X98897737Y-69950184D01*
X98770184Y-70077737D01*
X98674210Y-70230478D01*
X98614630Y-70400750D01*
X98604837Y-70487667D01*
X98577770Y-70552081D01*
X98569298Y-70561464D01*
X98534237Y-70596524D01*
X98534212Y-70596552D01*
X98429477Y-70701287D01*
X98408966Y-70736816D01*
X98408965Y-70736818D01*
X98350423Y-70838215D01*
X98309499Y-70990943D01*
X98309499Y-70990945D01*
X98309499Y-71159046D01*
X98309500Y-71159059D01*
X98309500Y-74417587D01*
X98289815Y-74484626D01*
X98282450Y-74494896D01*
X98280186Y-74497734D01*
X98184211Y-74650476D01*
X98124631Y-74820745D01*
X98124630Y-74820750D01*
X98104435Y-74999996D01*
X98104435Y-75000003D01*
X98124630Y-75179249D01*
X98124631Y-75179254D01*
X98184211Y-75349523D01*
X98280185Y-75502263D01*
X98282445Y-75505097D01*
X98283334Y-75507275D01*
X98283889Y-75508158D01*
X98283734Y-75508255D01*
X98308855Y-75569783D01*
X98309500Y-75582412D01*
X98309500Y-76010908D01*
X98289815Y-76077947D01*
X98237914Y-76123286D01*
X98232173Y-76125963D01*
X98232169Y-76125965D01*
X98038597Y-76261505D01*
X97871505Y-76428597D01*
X97735965Y-76622169D01*
X97735964Y-76622171D01*
X97638047Y-76832153D01*
X97591874Y-76884592D01*
X97524681Y-76903744D01*
X97457799Y-76883528D01*
X97424089Y-76850870D01*
X97410983Y-76832153D01*
X97408495Y-76828599D01*
X97408493Y-76828597D01*
X97408492Y-76828595D01*
X97241402Y-76661506D01*
X97241395Y-76661501D01*
X97047834Y-76525967D01*
X97047830Y-76525965D01*
X97047828Y-76525964D01*
X96833663Y-76426097D01*
X96833659Y-76426096D01*
X96833655Y-76426094D01*
X96605413Y-76364938D01*
X96605403Y-76364936D01*
X96370001Y-76344341D01*
X96369999Y-76344341D01*
X96134596Y-76364936D01*
X96134583Y-76364939D01*
X96006241Y-76399327D01*
X95936392Y-76397664D01*
X95886468Y-76367233D01*
X88957590Y-69438355D01*
X88957588Y-69438352D01*
X88838717Y-69319481D01*
X88838709Y-69319475D01*
X88736936Y-69260717D01*
X88736934Y-69260716D01*
X88701790Y-69240425D01*
X88701789Y-69240424D01*
X88689263Y-69237067D01*
X88549057Y-69199499D01*
X88390943Y-69199499D01*
X88383347Y-69199499D01*
X88383331Y-69199500D01*
X84482412Y-69199500D01*
X84415373Y-69179815D01*
X84405097Y-69172445D01*
X84402263Y-69170185D01*
X84402262Y-69170184D01*
X84379315Y-69155765D01*
X135409500Y-69155765D01*
X135448719Y-69302136D01*
X135486602Y-69367750D01*
X135524485Y-69433365D01*
X135631635Y-69540515D01*
X135762865Y-69616281D01*
X135909234Y-69655500D01*
X135909236Y-69655500D01*
X136060764Y-69655500D01*
X136060766Y-69655500D01*
X136207135Y-69616281D01*
X136338365Y-69540515D01*
X136445515Y-69433365D01*
X136521281Y-69302135D01*
X136560500Y-69155766D01*
X136560500Y-69004234D01*
X136521281Y-68857865D01*
X136445515Y-68726635D01*
X136338365Y-68619485D01*
X136272750Y-68581602D01*
X136207136Y-68543719D01*
X136133950Y-68524109D01*
X136060766Y-68504500D01*
X135909234Y-68504500D01*
X135762863Y-68543719D01*
X135631635Y-68619485D01*
X135631632Y-68619487D01*
X135524487Y-68726632D01*
X135524485Y-68726635D01*
X135448719Y-68857863D01*
X135409500Y-69004234D01*
X135409500Y-69155765D01*
X84379315Y-69155765D01*
X84345496Y-69134515D01*
X84249523Y-69074211D01*
X84079254Y-69014631D01*
X84079249Y-69014630D01*
X83900004Y-68994435D01*
X83899996Y-68994435D01*
X83720750Y-69014630D01*
X83720745Y-69014631D01*
X83550476Y-69074211D01*
X83397737Y-69170184D01*
X83270184Y-69297737D01*
X83174211Y-69450476D01*
X83114631Y-69620745D01*
X83114630Y-69620750D01*
X83094435Y-69799996D01*
X83094435Y-69800003D01*
X83114630Y-69979249D01*
X83114631Y-69979254D01*
X83174211Y-70149523D01*
X83225078Y-70230476D01*
X83270184Y-70302262D01*
X83397738Y-70429816D01*
X83550478Y-70525789D01*
X83705393Y-70579996D01*
X83720745Y-70585368D01*
X83720750Y-70585369D01*
X83899996Y-70605565D01*
X83900000Y-70605565D01*
X83900004Y-70605565D01*
X84079249Y-70585369D01*
X84079252Y-70585368D01*
X84079255Y-70585368D01*
X84249522Y-70525789D01*
X84402262Y-70429816D01*
X84402267Y-70429810D01*
X84405097Y-70427555D01*
X84407275Y-70426665D01*
X84408158Y-70426111D01*
X84408255Y-70426265D01*
X84469783Y-70401145D01*
X84482412Y-70400500D01*
X88169903Y-70400500D01*
X88236942Y-70420185D01*
X88257584Y-70436819D01*
X93593447Y-75772682D01*
X93626932Y-75834005D01*
X93621948Y-75903697D01*
X93580076Y-75959630D01*
X93537859Y-75980138D01*
X93366344Y-76026094D01*
X93366335Y-76026098D01*
X93152171Y-76125964D01*
X93152169Y-76125965D01*
X92958597Y-76261505D01*
X92791505Y-76428597D01*
X92655965Y-76622169D01*
X92655964Y-76622171D01*
X92558047Y-76832153D01*
X92511874Y-76884592D01*
X92444681Y-76903744D01*
X92377799Y-76883528D01*
X92344089Y-76850870D01*
X92330983Y-76832153D01*
X92328495Y-76828599D01*
X92328493Y-76828597D01*
X92328492Y-76828595D01*
X92161402Y-76661506D01*
X92161395Y-76661501D01*
X91967834Y-76525967D01*
X91967830Y-76525965D01*
X91967828Y-76525964D01*
X91753663Y-76426097D01*
X91753659Y-76426096D01*
X91753655Y-76426094D01*
X91525413Y-76364938D01*
X91525403Y-76364936D01*
X91290001Y-76344341D01*
X91289996Y-76344341D01*
X91288131Y-76344504D01*
X91287320Y-76344341D01*
X91284586Y-76344341D01*
X91284586Y-76343791D01*
X91219632Y-76330732D01*
X91169453Y-76282113D01*
X91153525Y-76214083D01*
X91176905Y-76148241D01*
X91211358Y-76115983D01*
X91358634Y-76023444D01*
X91486188Y-75895890D01*
X91582161Y-75743150D01*
X91641740Y-75572883D01*
X91641741Y-75572877D01*
X91661937Y-75393631D01*
X91661937Y-75393624D01*
X91641741Y-75214378D01*
X91641740Y-75214373D01*
X91638138Y-75204079D01*
X91582161Y-75044106D01*
X91486188Y-74891366D01*
X91358634Y-74763812D01*
X91342245Y-74753514D01*
X91205895Y-74667839D01*
X91035626Y-74608259D01*
X91035621Y-74608258D01*
X90856376Y-74588063D01*
X90856368Y-74588063D01*
X90677122Y-74608258D01*
X90677117Y-74608259D01*
X90500277Y-74670139D01*
X90499775Y-74668705D01*
X90438845Y-74678737D01*
X90374711Y-74651012D01*
X90335748Y-74593015D01*
X90330769Y-74569548D01*
X90311104Y-74395015D01*
X90311103Y-74395010D01*
X90251523Y-74224741D01*
X90155550Y-74072002D01*
X90027997Y-73944449D01*
X89875258Y-73848476D01*
X89704989Y-73788896D01*
X89704984Y-73788895D01*
X89525739Y-73768700D01*
X89525731Y-73768700D01*
X89346485Y-73788895D01*
X89346480Y-73788896D01*
X89176211Y-73848476D01*
X89023471Y-73944450D01*
X89020638Y-73946710D01*
X89018459Y-73947599D01*
X89017577Y-73948154D01*
X89017479Y-73947999D01*
X88955952Y-73973120D01*
X88943323Y-73973765D01*
X88782412Y-73973765D01*
X88715373Y-73954080D01*
X88705097Y-73946710D01*
X88702263Y-73944450D01*
X88702262Y-73944449D01*
X88645496Y-73908780D01*
X88549523Y-73848476D01*
X88379254Y-73788896D01*
X88379249Y-73788895D01*
X88200004Y-73768700D01*
X88199996Y-73768700D01*
X88020750Y-73788895D01*
X88020745Y-73788896D01*
X87850476Y-73848476D01*
X87697737Y-73944449D01*
X87570184Y-74072002D01*
X87474211Y-74224741D01*
X87414631Y-74395010D01*
X87414630Y-74395015D01*
X87394435Y-74574261D01*
X87394435Y-74574268D01*
X87414630Y-74753514D01*
X87414631Y-74753519D01*
X87474211Y-74923788D01*
X87570184Y-75076527D01*
X87697738Y-75204081D01*
X87850478Y-75300054D01*
X88016473Y-75358138D01*
X88020745Y-75359633D01*
X88020750Y-75359634D01*
X88199996Y-75379830D01*
X88200000Y-75379830D01*
X88200004Y-75379830D01*
X88379249Y-75359634D01*
X88379252Y-75359633D01*
X88379255Y-75359633D01*
X88549522Y-75300054D01*
X88702262Y-75204081D01*
X88702267Y-75204075D01*
X88705097Y-75201820D01*
X88707275Y-75200930D01*
X88708158Y-75200376D01*
X88708255Y-75200530D01*
X88769783Y-75175410D01*
X88782412Y-75174765D01*
X88943323Y-75174765D01*
X89010362Y-75194450D01*
X89020638Y-75201820D01*
X89023471Y-75204079D01*
X89023473Y-75204081D01*
X89176213Y-75300054D01*
X89342208Y-75358138D01*
X89346480Y-75359633D01*
X89346485Y-75359634D01*
X89525731Y-75379830D01*
X89525735Y-75379830D01*
X89525739Y-75379830D01*
X89704984Y-75359634D01*
X89704985Y-75359633D01*
X89704990Y-75359633D01*
X89709262Y-75358137D01*
X89779041Y-75354572D01*
X89839670Y-75389297D01*
X89871901Y-75451289D01*
X89865500Y-75520865D01*
X89837905Y-75562858D01*
X89706465Y-75694298D01*
X89645142Y-75727783D01*
X89632668Y-75729837D01*
X89545750Y-75739630D01*
X89375478Y-75799210D01*
X89222736Y-75895185D01*
X89168192Y-75949728D01*
X89106868Y-75983212D01*
X89048420Y-75981820D01*
X88985408Y-75964937D01*
X88750001Y-75944341D01*
X88749999Y-75944341D01*
X88514596Y-75964936D01*
X88514586Y-75964938D01*
X88286344Y-76026094D01*
X88286335Y-76026098D01*
X88072171Y-76125964D01*
X88072169Y-76125965D01*
X87878597Y-76261505D01*
X87711505Y-76428597D01*
X87575965Y-76622169D01*
X87575964Y-76622171D01*
X87476098Y-76836335D01*
X87476094Y-76836344D01*
X87414938Y-77064586D01*
X87414936Y-77064596D01*
X87394341Y-77299999D01*
X87394341Y-77300000D01*
X87414936Y-77535403D01*
X87414938Y-77535413D01*
X87476094Y-77763655D01*
X87476096Y-77763659D01*
X87476097Y-77763663D01*
X87546820Y-77915328D01*
X87575965Y-77977830D01*
X87575967Y-77977834D01*
X87682397Y-78129830D01*
X87711505Y-78171401D01*
X87878599Y-78338495D01*
X87934775Y-78377830D01*
X88072165Y-78474032D01*
X88072167Y-78474033D01*
X88072170Y-78474035D01*
X88286337Y-78573903D01*
X88514592Y-78635063D01*
X88702918Y-78651539D01*
X88749999Y-78655659D01*
X88750000Y-78655659D01*
X88750001Y-78655659D01*
X88789234Y-78652226D01*
X88985408Y-78635063D01*
X89213663Y-78573903D01*
X89427830Y-78474035D01*
X89621401Y-78338495D01*
X89788495Y-78171401D01*
X89804091Y-78149127D01*
X89858664Y-78105504D01*
X89928162Y-78098309D01*
X89990518Y-78129830D01*
X90018047Y-78167846D01*
X90115965Y-78377830D01*
X90115967Y-78377834D01*
X90251501Y-78571395D01*
X90251506Y-78571402D01*
X90418597Y-78738493D01*
X90418603Y-78738498D01*
X90469912Y-78774425D01*
X90513537Y-78829002D01*
X90520731Y-78898500D01*
X90489208Y-78960855D01*
X90428978Y-78996269D01*
X90398789Y-79000000D01*
X80802022Y-79000000D01*
X80797979Y-78999934D01*
X80792688Y-78999761D01*
X80748717Y-78998326D01*
X80720670Y-78994167D01*
X80623601Y-78968158D01*
X80593694Y-78955770D01*
X80508443Y-78906550D01*
X80482762Y-78886844D01*
X80413155Y-78817237D01*
X80393449Y-78791556D01*
X80344227Y-78706301D01*
X80331843Y-78676403D01*
X80305831Y-78579325D01*
X80301673Y-78551282D01*
X80300066Y-78502021D01*
X80300000Y-78497978D01*
X80300000Y-63375765D01*
X135409500Y-63375765D01*
X135448719Y-63522136D01*
X135486602Y-63587750D01*
X135524485Y-63653365D01*
X135631635Y-63760515D01*
X135762865Y-63836281D01*
X135909234Y-63875500D01*
X135909236Y-63875500D01*
X136060764Y-63875500D01*
X136060766Y-63875500D01*
X136207135Y-63836281D01*
X136338365Y-63760515D01*
X136445515Y-63653365D01*
X136521281Y-63522135D01*
X136560500Y-63375766D01*
X136560500Y-63224234D01*
X136521281Y-63077865D01*
X136445515Y-62946635D01*
X136338365Y-62839485D01*
X136272750Y-62801602D01*
X136207136Y-62763719D01*
X136133950Y-62744109D01*
X136060766Y-62724500D01*
X135909234Y-62724500D01*
X135762863Y-62763719D01*
X135631635Y-62839485D01*
X135631632Y-62839487D01*
X135524487Y-62946632D01*
X135524485Y-62946635D01*
X135448719Y-63077863D01*
X135409500Y-63224234D01*
X135409500Y-63375765D01*
X80300000Y-63375765D01*
X80300000Y-54002021D01*
X80300066Y-53997978D01*
X80301673Y-53948720D01*
X80301674Y-53948717D01*
X80301673Y-53948715D01*
X80305831Y-53920675D01*
X80331843Y-53823594D01*
X80344226Y-53793701D01*
X80393452Y-53708437D01*
X80413151Y-53682766D01*
X80482766Y-53613151D01*
X80508437Y-53593452D01*
X80593701Y-53544226D01*
X80623594Y-53531843D01*
X80720675Y-53505831D01*
X80748715Y-53501673D01*
X80793582Y-53500209D01*
X80797979Y-53500066D01*
X80802022Y-53500000D01*
X92938789Y-53500000D01*
X93005828Y-53519685D01*
G37*
%TD.AperFunction*%
%TD*%
M02*
