%TF.GenerationSoftware,KiCad,Pcbnew,8.0.1*%
%TF.CreationDate,2024-04-08T01:45:07-04:00*%
%TF.ProjectId,NerdNOS,4e657264-4e4f-4532-9e6b-696361645f70,rev?*%
%TF.SameCoordinates,Original*%
%TF.FileFunction,Copper,L1,Top*%
%TF.FilePolarity,Positive*%
%FSLAX46Y46*%
G04 Gerber Fmt 4.6, Leading zero omitted, Abs format (unit mm)*
G04 Created by KiCad (PCBNEW 8.0.1) date 2024-04-08 01:45:07*
%MOMM*%
%LPD*%
G01*
G04 APERTURE LIST*
G04 Aperture macros list*
%AMRoundRect*
0 Rectangle with rounded corners*
0 $1 Rounding radius*
0 $2 $3 $4 $5 $6 $7 $8 $9 X,Y pos of 4 corners*
0 Add a 4 corners polygon primitive as box body*
4,1,4,$2,$3,$4,$5,$6,$7,$8,$9,$2,$3,0*
0 Add four circle primitives for the rounded corners*
1,1,$1+$1,$2,$3*
1,1,$1+$1,$4,$5*
1,1,$1+$1,$6,$7*
1,1,$1+$1,$8,$9*
0 Add four rect primitives between the rounded corners*
20,1,$1+$1,$2,$3,$4,$5,0*
20,1,$1+$1,$4,$5,$6,$7,0*
20,1,$1+$1,$6,$7,$8,$9,0*
20,1,$1+$1,$8,$9,$2,$3,0*%
%AMFreePoly0*
4,1,15,0.487499,0.487500,0.487499,0.321501,0.516499,0.250500,0.805500,-0.038499,0.876498,-0.067500,0.922500,-0.067498,1.022500,-0.167500,1.022500,-0.487499,0.922500,-0.587499,-0.487500,-0.587499,-0.587500,-0.487499,-0.587500,0.487500,-0.487500,0.587500,0.387500,0.587502,0.487499,0.487500,0.487499,0.487500,$1*%
%AMFreePoly1*
4,1,15,0.487500,0.587500,0.587500,0.487500,0.587500,-0.487499,0.487500,-0.587499,-0.922500,-0.587499,-1.022500,-0.487499,-1.022500,-0.167500,-0.922500,-0.067498,-0.876498,-0.067500,-0.805500,-0.038499,-0.516499,0.250500,-0.487499,0.321501,-0.487499,0.487500,-0.387500,0.587502,0.487500,0.587500,0.487500,0.587500,$1*%
G04 Aperture macros list end*
%TA.AperFunction,SMDPad,CuDef*%
%ADD10RoundRect,0.200000X0.275000X-0.200000X0.275000X0.200000X-0.275000X0.200000X-0.275000X-0.200000X0*%
%TD*%
%TA.AperFunction,SMDPad,CuDef*%
%ADD11RoundRect,0.140000X0.170000X-0.140000X0.170000X0.140000X-0.170000X0.140000X-0.170000X-0.140000X0*%
%TD*%
%TA.AperFunction,SMDPad,CuDef*%
%ADD12RoundRect,0.225000X-0.250000X0.225000X-0.250000X-0.225000X0.250000X-0.225000X0.250000X0.225000X0*%
%TD*%
%TA.AperFunction,SMDPad,CuDef*%
%ADD13RoundRect,0.135000X-0.185000X0.135000X-0.185000X-0.135000X0.185000X-0.135000X0.185000X0.135000X0*%
%TD*%
%TA.AperFunction,SMDPad,CuDef*%
%ADD14RoundRect,0.150000X0.150000X-0.512500X0.150000X0.512500X-0.150000X0.512500X-0.150000X-0.512500X0*%
%TD*%
%TA.AperFunction,SMDPad,CuDef*%
%ADD15RoundRect,0.135000X0.185000X-0.135000X0.185000X0.135000X-0.185000X0.135000X-0.185000X-0.135000X0*%
%TD*%
%TA.AperFunction,SMDPad,CuDef*%
%ADD16RoundRect,0.140000X-0.170000X0.140000X-0.170000X-0.140000X0.170000X-0.140000X0.170000X0.140000X0*%
%TD*%
%TA.AperFunction,SMDPad,CuDef*%
%ADD17RoundRect,0.140000X0.140000X0.170000X-0.140000X0.170000X-0.140000X-0.170000X0.140000X-0.170000X0*%
%TD*%
%TA.AperFunction,SMDPad,CuDef*%
%ADD18RoundRect,0.135000X-0.135000X-0.185000X0.135000X-0.185000X0.135000X0.185000X-0.135000X0.185000X0*%
%TD*%
%TA.AperFunction,SMDPad,CuDef*%
%ADD19FreePoly0,180.000000*%
%TD*%
%TA.AperFunction,SMDPad,CuDef*%
%ADD20R,1.500000X2.300000*%
%TD*%
%TA.AperFunction,SMDPad,CuDef*%
%ADD21FreePoly1,180.000000*%
%TD*%
%TA.AperFunction,SMDPad,CuDef*%
%ADD22R,0.220000X0.599999*%
%TD*%
%TA.AperFunction,SMDPad,CuDef*%
%ADD23RoundRect,0.150000X0.425000X-0.150000X0.425000X0.150000X-0.425000X0.150000X-0.425000X-0.150000X0*%
%TD*%
%TA.AperFunction,SMDPad,CuDef*%
%ADD24RoundRect,0.075000X0.500000X-0.075000X0.500000X0.075000X-0.500000X0.075000X-0.500000X-0.075000X0*%
%TD*%
%TA.AperFunction,ComponentPad*%
%ADD25O,2.100000X1.000000*%
%TD*%
%TA.AperFunction,ComponentPad*%
%ADD26O,1.800000X1.000000*%
%TD*%
%TA.AperFunction,SMDPad,CuDef*%
%ADD27RoundRect,0.140000X-0.140000X-0.170000X0.140000X-0.170000X0.140000X0.170000X-0.140000X0.170000X0*%
%TD*%
%TA.AperFunction,SMDPad,CuDef*%
%ADD28R,1.300000X1.100000*%
%TD*%
%TA.AperFunction,SMDPad,CuDef*%
%ADD29RoundRect,0.250000X-0.325000X-1.100000X0.325000X-1.100000X0.325000X1.100000X-0.325000X1.100000X0*%
%TD*%
%TA.AperFunction,SMDPad,CuDef*%
%ADD30RoundRect,0.200000X-0.275000X0.200000X-0.275000X-0.200000X0.275000X-0.200000X0.275000X0.200000X0*%
%TD*%
%TA.AperFunction,SMDPad,CuDef*%
%ADD31RoundRect,0.135000X-0.000010X0.295000X-0.000010X-0.295000X0.000010X-0.295000X0.000010X0.295000X0*%
%TD*%
%TA.AperFunction,SMDPad,CuDef*%
%ADD32R,1.850000X6.300000*%
%TD*%
%TA.AperFunction,SMDPad,CuDef*%
%ADD33R,5.550000X6.300000*%
%TD*%
%TA.AperFunction,SMDPad,CuDef*%
%ADD34R,0.762000X0.254000*%
%TD*%
%TA.AperFunction,SMDPad,CuDef*%
%ADD35RoundRect,0.150000X-0.150000X0.512500X-0.150000X-0.512500X0.150000X-0.512500X0.150000X0.512500X0*%
%TD*%
%TA.AperFunction,SMDPad,CuDef*%
%ADD36RoundRect,0.250000X0.475000X-0.250000X0.475000X0.250000X-0.475000X0.250000X-0.475000X-0.250000X0*%
%TD*%
%TA.AperFunction,ComponentPad*%
%ADD37R,1.700000X1.700000*%
%TD*%
%TA.AperFunction,ComponentPad*%
%ADD38O,1.700000X1.700000*%
%TD*%
%TA.AperFunction,ViaPad*%
%ADD39C,0.600000*%
%TD*%
%TA.AperFunction,Conductor*%
%ADD40C,0.200000*%
%TD*%
%TA.AperFunction,Conductor*%
%ADD41C,0.600000*%
%TD*%
G04 APERTURE END LIST*
D10*
%TO.P,R12,1*%
%TO.N,/BM1397/VDD*%
X125270000Y-73550000D03*
%TO.P,R12,2*%
%TO.N,Net-(U5-FB)*%
X125270000Y-71900000D03*
%TD*%
D11*
%TO.P,C23,1*%
%TO.N,/BM1397/VBUS*%
X127700000Y-69450000D03*
%TO.P,C23,2*%
%TO.N,GND*%
X127700000Y-68490000D03*
%TD*%
D12*
%TO.P,C10,1*%
%TO.N,/BM1397/VDD*%
X119090000Y-68315000D03*
%TO.P,C10,2*%
%TO.N,GND*%
X119090000Y-69865000D03*
%TD*%
D13*
%TO.P,TH1,1*%
%TO.N,GND*%
X99700000Y-65590000D03*
%TO.P,TH1,2*%
%TO.N,/T_Display_S3/GPIO10*%
X99700000Y-66610000D03*
%TD*%
%TO.P,R8,1*%
%TO.N,/T_Display_S3/GPIO10*%
X89500000Y-73490000D03*
%TO.P,R8,2*%
%TO.N,/BM1397/3V3*%
X89500000Y-74510000D03*
%TD*%
D14*
%TO.P,U4,1,VIN*%
%TO.N,/BM1397/VBUS*%
X90150001Y-63037500D03*
%TO.P,U4,2,GND*%
%TO.N,GND*%
X91100000Y-63037500D03*
%TO.P,U4,3,EN*%
%TO.N,/BM1397/VBUS*%
X92049999Y-63037500D03*
%TO.P,U4,4,PG*%
%TO.N,unconnected-(U4-PG-Pad4)*%
X92049999Y-60762500D03*
%TO.P,U4,5,VOUT*%
%TO.N,/BM1397/0V8*%
X90150001Y-60762500D03*
%TD*%
D15*
%TO.P,R7,1*%
%TO.N,GND*%
X135000000Y-65110000D03*
%TO.P,R7,2*%
%TO.N,Net-(J3-CC2)*%
X135000000Y-64090000D03*
%TD*%
D16*
%TO.P,C5,1*%
%TO.N,/BM1397/1V8_O*%
X93400000Y-62265400D03*
%TO.P,C5,2*%
%TO.N,GND*%
X93400000Y-63225400D03*
%TD*%
D17*
%TO.P,C6,1*%
%TO.N,Net-(IC1-VDD2_0)*%
X116080000Y-59900000D03*
%TO.P,C6,2*%
%TO.N,Net-(IC1-VDD3_0)*%
X115120000Y-59900000D03*
%TD*%
D18*
%TO.P,R1,1*%
%TO.N,GND*%
X79890001Y-63500000D03*
%TO.P,R1,2*%
%TO.N,/BM1397/RST_N*%
X80909999Y-63500000D03*
%TD*%
D16*
%TO.P,C7,2*%
%TO.N,/BM1397/3V3*%
X79200000Y-74680000D03*
%TO.P,C7,1*%
%TO.N,GND*%
X79200000Y-73720000D03*
%TD*%
D17*
%TO.P,C2,1*%
%TO.N,GND*%
X116080000Y-57880000D03*
%TO.P,C2,2*%
%TO.N,Net-(IC1-VDD1_0)*%
X115120000Y-57880000D03*
%TD*%
D13*
%TO.P,R6,1*%
%TO.N,GND*%
X135000000Y-65990000D03*
%TO.P,R6,2*%
%TO.N,Net-(J3-CC1)*%
X135000000Y-67010000D03*
%TD*%
D16*
%TO.P,C20,2*%
%TO.N,GND*%
X88600000Y-63580000D03*
%TO.P,C20,1*%
%TO.N,/BM1397/VBUS*%
X88600000Y-62620000D03*
%TD*%
D15*
%TO.P,R5,1*%
%TO.N,Net-(IC1-RI)*%
X93200000Y-74409999D03*
%TO.P,R5,2*%
%TO.N,/BM1397/1V8*%
X93200000Y-73390001D03*
%TD*%
D19*
%TO.P,U5,1,VIN*%
%TO.N,/BM1397/VBUS*%
X123862500Y-69877499D03*
D20*
%TO.P,U5,2,SW*%
%TO.N,unconnected-(U5-SW-Pad2)*%
X123700001Y-67890000D03*
%TO.P,U5,3,VOUT*%
%TO.N,/BM1397/VDD*%
X121400001Y-67890000D03*
D21*
%TO.P,U5,4,PGND*%
%TO.N,GND*%
X121250001Y-69865000D03*
D22*
%TO.P,U5,5,PG*%
%TO.N,unconnected-(U5-PG-Pad5)*%
X122050002Y-70464999D03*
%TO.P,U5,6,EN*%
%TO.N,Net-(U5-EN)*%
X122550001Y-70464999D03*
%TO.P,U5,7,FB*%
%TO.N,Net-(U5-FB)*%
X123050000Y-70464999D03*
%TD*%
D23*
%TO.P,J3,A1,GND*%
%TO.N,GND*%
X136745000Y-68950000D03*
%TO.P,J3,A4,VBUS*%
%TO.N,/BM1397/VBUS*%
X136745000Y-68150000D03*
D24*
%TO.P,J3,A5,CC1*%
%TO.N,Net-(J3-CC1)*%
X136745000Y-67000000D03*
%TO.P,J3,A6,D+*%
%TO.N,unconnected-(J3-D+-PadA6)*%
X136745000Y-66000000D03*
%TO.P,J3,A7,D-*%
%TO.N,unconnected-(J3-D--PadA7)*%
X136745000Y-65500000D03*
%TO.P,J3,A8,SBU1*%
%TO.N,unconnected-(J3-SBU1-PadA8)*%
X136745000Y-64500000D03*
D23*
%TO.P,J3,B1,GND*%
%TO.N,GND*%
X136745000Y-62550000D03*
%TO.P,J3,B4,VBUS*%
%TO.N,/BM1397/VBUS*%
X136745000Y-63350000D03*
D24*
%TO.P,J3,B5,CC2*%
%TO.N,Net-(J3-CC2)*%
X136745000Y-64000000D03*
%TO.P,J3,B6,D+*%
%TO.N,unconnected-(J3-D+-PadB6)*%
X136745000Y-65000000D03*
%TO.P,J3,B7,D-*%
%TO.N,unconnected-(J3-D--PadB7)*%
X136745000Y-66500000D03*
%TO.P,J3,B8,SBU2*%
%TO.N,unconnected-(J3-SBU2-PadB8)*%
X136745000Y-67500000D03*
D25*
%TO.P,J3,S1,SHIELD*%
%TO.N,GND*%
X137320000Y-70070000D03*
D26*
X141500000Y-70070000D03*
D25*
X137320000Y-61430000D03*
D26*
X141500000Y-61430000D03*
%TD*%
D27*
%TO.P,C18,1*%
%TO.N,Net-(IC1-VDD1_1)*%
X115120000Y-74600000D03*
%TO.P,C18,2*%
%TO.N,GND*%
X116080000Y-74600000D03*
%TD*%
D11*
%TO.P,C15,1*%
%TO.N,/BM1397/1V8*%
X93300000Y-69980000D03*
%TO.P,C15,2*%
%TO.N,GND*%
X93300000Y-69020000D03*
%TD*%
D16*
%TO.P,C11,1*%
%TO.N,Net-(U5-EN)*%
X121070000Y-71700000D03*
%TO.P,C11,2*%
%TO.N,GND*%
X121070000Y-72660000D03*
%TD*%
D27*
%TO.P,C17,1*%
%TO.N,Net-(IC1-VDD2_1)*%
X115120000Y-73500000D03*
%TO.P,C17,2*%
%TO.N,Net-(IC1-VDD1_1)*%
X116080000Y-73500000D03*
%TD*%
D17*
%TO.P,C3,1*%
%TO.N,Net-(IC1-VDD1_0)*%
X116080000Y-58900000D03*
%TO.P,C3,2*%
%TO.N,Net-(IC1-VDD2_0)*%
X115120000Y-58900000D03*
%TD*%
D28*
%TO.P,U2,1,EN*%
%TO.N,/BM1397/1V8*%
X84550000Y-61750000D03*
%TO.P,U2,2,GND*%
%TO.N,GND*%
X86850000Y-61750000D03*
%TO.P,U2,3,OUT*%
%TO.N,/BM1397/BM_CLKI*%
X86850000Y-59850000D03*
%TO.P,U2,4,VIN*%
%TO.N,/BM1397/1V8*%
X84550000Y-59850000D03*
%TD*%
D13*
%TO.P,R4,1*%
%TO.N,/BM1397/RST_N*%
X79800000Y-64520000D03*
%TO.P,R4,2*%
%TO.N,GND*%
X79800000Y-65540000D03*
%TD*%
D17*
%TO.P,C1,2*%
%TO.N,/BM1397/1V8*%
X85640000Y-63000000D03*
%TO.P,C1,1*%
%TO.N,GND*%
X86600000Y-63000000D03*
%TD*%
D15*
%TO.P,R10,1*%
%TO.N,/BM1397/VBUS*%
X122100000Y-72710000D03*
%TO.P,R10,2*%
%TO.N,Net-(U5-EN)*%
X122100000Y-71690000D03*
%TD*%
D29*
%TO.P,C13,1*%
%TO.N,/BM1397/VDD*%
X121045000Y-64390000D03*
%TO.P,C13,2*%
%TO.N,GND*%
X123995000Y-64390000D03*
%TD*%
D17*
%TO.P,C21,1*%
%TO.N,/BM1397/1V8*%
X91580000Y-71200000D03*
%TO.P,C21,2*%
%TO.N,GND*%
X90620000Y-71200000D03*
%TD*%
D15*
%TO.P,R3,1*%
%TO.N,/BM1397/RST*%
X81000000Y-65540000D03*
%TO.P,R3,2*%
%TO.N,/BM1397/RST_N*%
X81000000Y-64520000D03*
%TD*%
D17*
%TO.P,C9,2*%
%TO.N,GND*%
X83420000Y-72500000D03*
%TO.P,C9,1*%
%TO.N,/BM1397/1V8*%
X84380000Y-72500000D03*
%TD*%
D16*
%TO.P,C4,1*%
%TO.N,/BM1397/0V8_O*%
X93400000Y-60120000D03*
%TO.P,C4,2*%
%TO.N,GND*%
X93400000Y-61080000D03*
%TD*%
D30*
%TO.P,R13,1*%
%TO.N,Net-(U5-FB)*%
X123400000Y-71905000D03*
%TO.P,R13,2*%
%TO.N,GND*%
X123400000Y-73555000D03*
%TD*%
D31*
%TO.P,IC1,1,VDD3_0*%
%TO.N,Net-(IC1-VDD3_0)*%
X107900000Y-62265400D03*
%TO.P,IC1,2,VDD2_0*%
%TO.N,Net-(IC1-VDD2_0)*%
X107420000Y-62265400D03*
%TO.P,IC1,3,VDD1_0*%
%TO.N,Net-(IC1-VDD1_0)*%
X106940000Y-62265400D03*
%TO.P,IC1,4,ADDR0*%
%TO.N,unconnected-(IC1-ADDR0-Pad4)*%
X106460000Y-62265400D03*
%TO.P,IC1,5,ADDR1*%
%TO.N,unconnected-(IC1-ADDR1-Pad5)*%
X105980000Y-62265400D03*
%TO.P,IC1,6,ADDR2*%
%TO.N,GND*%
X105500000Y-62265400D03*
%TO.P,IC1,7,TEST*%
%TO.N,unconnected-(IC1-TEST-Pad7)*%
X105020000Y-62265400D03*
%TO.P,IC1,8,BI*%
%TO.N,Net-(IC1-BI)*%
X104540000Y-62265400D03*
%TO.P,IC1,9,NRSTI*%
%TO.N,/BM1397/RST_N*%
X104060000Y-62265400D03*
%TO.P,IC1,10,RO*%
%TO.N,/BM1397/RO*%
X103580000Y-62265400D03*
%TO.P,IC1,11,CI*%
%TO.N,/BM1397/CI*%
X103100000Y-62265400D03*
%TO.P,IC1,12,CLKI*%
%TO.N,/BM1397/BM_CLKI*%
X102620000Y-62265400D03*
%TO.P,IC1,13,PLL_VSS*%
%TO.N,GND*%
X102140000Y-62265400D03*
%TO.P,IC1,14,PLL_VDD*%
%TO.N,/BM1397/0V8_O*%
X101660000Y-62265400D03*
%TO.P,IC1,15,VDDIO_08_0*%
X101180000Y-62265400D03*
%TO.P,IC1,16,VDDIO_18_0*%
%TO.N,/BM1397/1V8_O*%
X100700000Y-62265400D03*
%TO.P,IC1,17,VDDIO_18_1*%
%TO.N,/BM1397/1V8*%
X100700000Y-70134600D03*
%TO.P,IC1,18,VDDIO_08_1*%
%TO.N,/BM1397/0V8_O2*%
X101180000Y-70134600D03*
%TO.P,IC1,19,VSS*%
%TO.N,GND*%
X101660000Y-70134600D03*
%TO.P,IC1,20,PIN_MODE*%
%TO.N,unconnected-(IC1-PIN_MODE-Pad20)*%
X102140000Y-70134600D03*
%TO.P,IC1,21,TEMP_N*%
%TO.N,unconnected-(IC1-TEMP_N-Pad21)*%
X102620000Y-70134600D03*
%TO.P,IC1,22,TEMP_P*%
%TO.N,unconnected-(IC1-TEMP_P-Pad22)*%
X103100000Y-70134600D03*
%TO.P,IC1,23,RF*%
%TO.N,unconnected-(IC1-RF-Pad23)*%
X103580000Y-70134600D03*
%TO.P,IC1,24,TF*%
%TO.N,unconnected-(IC1-TF-Pad24)*%
X104060000Y-70134600D03*
%TO.P,IC1,25,CLKO*%
%TO.N,unconnected-(IC1-CLKO-Pad25)*%
X104540000Y-70134600D03*
%TO.P,IC1,26,CO*%
%TO.N,unconnected-(IC1-CO-Pad26)*%
X105020000Y-70134600D03*
%TO.P,IC1,27,RI*%
%TO.N,Net-(IC1-RI)*%
X105500000Y-70134600D03*
%TO.P,IC1,28,NRSTO*%
%TO.N,unconnected-(IC1-NRSTO-Pad28)*%
X105980000Y-70134600D03*
%TO.P,IC1,29,BO*%
%TO.N,unconnected-(IC1-BO-Pad29)*%
X106460000Y-70134600D03*
%TO.P,IC1,30,VDD1_1*%
%TO.N,Net-(IC1-VDD1_1)*%
X106940000Y-70134600D03*
%TO.P,IC1,31,VDD2_1*%
%TO.N,Net-(IC1-VDD2_1)*%
X107420000Y-70134600D03*
%TO.P,IC1,32,VDD3_1*%
%TO.N,Net-(IC1-VDD3_1)*%
X107900000Y-70134600D03*
D32*
%TO.P,IC1,33,VDD*%
%TO.N,/BM1397/VDD*%
X107300000Y-66200000D03*
D33*
%TO.P,IC1,34,VSS_0*%
%TO.N,GND*%
X103100000Y-66200000D03*
%TD*%
D34*
%TO.P,U6,1,B2*%
%TO.N,/BM1397/RO*%
X80525200Y-73749811D03*
%TO.P,U6,2,GND*%
%TO.N,GND*%
X80525200Y-74249937D03*
%TO.P,U6,3,VCCA*%
%TO.N,/BM1397/3V3*%
X80525200Y-74750063D03*
%TO.P,U6,4,A2Y*%
%TO.N,/T_Display_S3/GPIO2*%
X80525200Y-75250189D03*
%TO.P,U6,5,A1*%
%TO.N,/T_Display_S3/GPIO1*%
X83674800Y-75250189D03*
%TO.P,U6,6,OE*%
%TO.N,/BM1397/1V8*%
X83674800Y-74750063D03*
%TO.P,U6,7,VCCB*%
X83674800Y-74249937D03*
%TO.P,U6,8,B1Y*%
%TO.N,/BM1397/CI*%
X83674800Y-73749811D03*
%TD*%
D17*
%TO.P,C19,1*%
%TO.N,/BM1397/VBUS*%
X91880000Y-65700000D03*
%TO.P,C19,2*%
%TO.N,GND*%
X90920000Y-65700000D03*
%TD*%
D16*
%TO.P,C22,1*%
%TO.N,/BM1397/0V8*%
X88800000Y-60120000D03*
%TO.P,C22,2*%
%TO.N,GND*%
X88800000Y-61080000D03*
%TD*%
D27*
%TO.P,C14,1*%
%TO.N,Net-(IC1-VDD3_1)*%
X115120000Y-72500000D03*
%TO.P,C14,2*%
%TO.N,Net-(IC1-VDD2_1)*%
X116080000Y-72500000D03*
%TD*%
D18*
%TO.P,R2,1*%
%TO.N,GND*%
X82140000Y-56960000D03*
%TO.P,R2,2*%
%TO.N,Net-(IC1-BI)*%
X83160000Y-56960000D03*
%TD*%
D27*
%TO.P,C12,1*%
%TO.N,/BM1397/VDD*%
X115120000Y-71500000D03*
%TO.P,C12,2*%
%TO.N,Net-(IC1-VDD3_1)*%
X116080000Y-71500000D03*
%TD*%
D35*
%TO.P,U3,1,VIN*%
%TO.N,/BM1397/VBUS*%
X91749999Y-67262500D03*
%TO.P,U3,2,GND*%
%TO.N,GND*%
X90800000Y-67262500D03*
%TO.P,U3,3,EN*%
%TO.N,/BM1397/VBUS*%
X89850001Y-67262500D03*
%TO.P,U3,4,PG*%
%TO.N,unconnected-(U3-PG-Pad4)*%
X89850001Y-69537500D03*
%TO.P,U3,5,VOUT*%
%TO.N,/BM1397/1V8*%
X91749999Y-69537500D03*
%TD*%
D17*
%TO.P,C8,1*%
%TO.N,Net-(IC1-VDD3_0)*%
X116080000Y-60900000D03*
%TO.P,C8,2*%
%TO.N,/BM1397/VDD*%
X115120000Y-60900000D03*
%TD*%
D16*
%TO.P,C16,1*%
%TO.N,/BM1397/0V8_O2*%
X93300000Y-71120000D03*
%TO.P,C16,2*%
%TO.N,GND*%
X93300000Y-72080000D03*
%TD*%
D36*
%TO.P,C24,1*%
%TO.N,/BM1397/VBUS*%
X125980000Y-69910000D03*
%TO.P,C24,2*%
%TO.N,GND*%
X125980000Y-68010000D03*
%TD*%
D13*
%TO.P,R11,1*%
%TO.N,Net-(U5-EN)*%
X120040000Y-71680000D03*
%TO.P,R11,2*%
%TO.N,GND*%
X120040000Y-72700000D03*
%TD*%
D37*
%TO.P,J2,1,Pin_1*%
%TO.N,/BM1397/VBUS*%
X116690000Y-77500000D03*
D38*
%TO.P,J2,2,Pin_2*%
%TO.N,GND*%
X114150000Y-77500000D03*
%TO.P,J2,3,Pin_3*%
%TO.N,unconnected-(J2-Pin_3-Pad3)*%
X111610000Y-77500000D03*
%TO.P,J2,4,Pin_4*%
%TO.N,unconnected-(J2-Pin_4-Pad4)*%
X109070000Y-77500000D03*
%TO.P,J2,5,Pin_5*%
%TO.N,unconnected-(J2-Pin_5-Pad5)*%
X106530000Y-77500000D03*
%TO.P,J2,6,Pin_6*%
%TO.N,unconnected-(J2-Pin_6-Pad6)*%
X103990000Y-77500000D03*
%TO.P,J2,7,Pin_7*%
%TO.N,unconnected-(J2-Pin_7-Pad7)*%
X101450000Y-77500000D03*
%TO.P,J2,8,Pin_8*%
%TO.N,/T_Display_S3/GPIO10*%
X98910000Y-77500000D03*
%TO.P,J2,9,Pin_9*%
%TO.N,/BM1397/RST*%
X96370000Y-77500000D03*
%TO.P,J2,10,Pin_10*%
%TO.N,/T_Display_S3/GPIO2*%
X93830000Y-77500000D03*
%TO.P,J2,11,Pin_11*%
%TO.N,/T_Display_S3/GPIO1*%
X91290000Y-77500000D03*
%TO.P,J2,12,Pin_12*%
%TO.N,/BM1397/3V3*%
X88750000Y-77500000D03*
%TD*%
D37*
%TO.P,J1,1,Pin_1*%
%TO.N,unconnected-(J1-Pin_1-Pad1)*%
X116690000Y-54750000D03*
D38*
%TO.P,J1,2,Pin_2*%
%TO.N,GND*%
X114150000Y-54750000D03*
%TO.P,J1,3,Pin_3*%
X111610000Y-54750000D03*
%TO.P,J1,4,Pin_4*%
%TO.N,unconnected-(J1-Pin_4-Pad4)*%
X109070000Y-54750000D03*
%TO.P,J1,5,Pin_5*%
%TO.N,unconnected-(J1-Pin_5-Pad5)*%
X106530000Y-54750000D03*
%TO.P,J1,6,Pin_6*%
%TO.N,unconnected-(J1-Pin_6-Pad6)*%
X103990000Y-54750000D03*
%TO.P,J1,7,Pin_7*%
%TO.N,unconnected-(J1-Pin_7-Pad7)*%
X101450000Y-54750000D03*
%TO.P,J1,8,Pin_8*%
%TO.N,unconnected-(J1-Pin_8-Pad8)*%
X98910000Y-54750000D03*
%TO.P,J1,9,Pin_9*%
%TO.N,unconnected-(J1-Pin_9-Pad9)*%
X96370000Y-54750000D03*
%TO.P,J1,10,Pin_10*%
%TO.N,unconnected-(J1-Pin_10-Pad10)*%
X93830000Y-54750000D03*
%TO.P,J1,11,Pin_11*%
%TO.N,GND*%
X91290000Y-54750000D03*
%TO.P,J1,12,Pin_12*%
X88750000Y-54750000D03*
%TD*%
D39*
%TO.N,/T_Display_S3/GPIO10*%
X90200000Y-73500000D03*
%TO.N,/BM1397/3V3*%
X90000000Y-74710000D03*
%TO.N,/T_Display_S3/GPIO10*%
X99400000Y-70580000D03*
%TO.N,GND*%
X99400000Y-65100000D03*
X128320000Y-65160000D03*
X104050000Y-65700000D03*
X101050000Y-64700000D03*
X127060000Y-66730000D03*
X121200000Y-73200000D03*
X128320000Y-66710000D03*
X105050000Y-66700000D03*
X105600000Y-61200000D03*
X79300000Y-73000000D03*
X81316994Y-74161855D03*
X116800000Y-57100000D03*
X104050000Y-64700000D03*
X105050000Y-63700000D03*
X125830000Y-65170000D03*
X120220000Y-69580000D03*
X101050000Y-68700000D03*
X81290000Y-56940000D03*
X102050000Y-66700000D03*
X103050000Y-63700000D03*
X90100000Y-65200000D03*
X119930000Y-70800000D03*
X117890000Y-70830000D03*
X89600000Y-71300000D03*
X103050000Y-68700000D03*
X103050000Y-64700000D03*
X83500000Y-71800000D03*
X105050000Y-68700000D03*
X125140000Y-64420000D03*
X104050000Y-63700000D03*
X104050000Y-66700000D03*
X101050000Y-65700000D03*
X88000000Y-61100000D03*
X101050000Y-63700000D03*
X93677036Y-61494171D03*
X127060000Y-63630000D03*
X115960686Y-75639314D03*
X102050000Y-64700000D03*
X102100000Y-71320000D03*
X123390000Y-74150000D03*
X86255604Y-62397971D03*
X79500000Y-66200000D03*
X92600000Y-71900000D03*
X103050000Y-66700000D03*
X105050000Y-67700000D03*
X134300000Y-65990000D03*
X93400000Y-64100000D03*
X105050000Y-64700000D03*
X93687270Y-68448758D03*
X125830000Y-63620000D03*
X102050000Y-68700000D03*
X79200000Y-63500000D03*
X91100000Y-63900000D03*
X86400000Y-61000000D03*
X128320000Y-63610000D03*
X117890000Y-69600000D03*
X127060000Y-65180000D03*
X101050000Y-67700000D03*
X102020000Y-61000000D03*
X104050000Y-68700000D03*
X121110000Y-70780000D03*
X103050000Y-67700000D03*
X104050000Y-67700000D03*
X88900000Y-64300000D03*
X125830000Y-66720000D03*
X102050000Y-67700000D03*
X120200000Y-73300000D03*
X105050000Y-65700000D03*
X134300000Y-65100000D03*
X102050000Y-63700000D03*
X101050000Y-66700000D03*
X90000000Y-66100000D03*
X102050000Y-65700000D03*
X103050000Y-65700000D03*
%TO.N,/BM1397/3V3*%
X79400000Y-75700000D03*
%TD*%
D40*
%TO.N,GND*%
X99400000Y-65290000D02*
X99400000Y-65100000D01*
X99700000Y-65590000D02*
X99400000Y-65290000D01*
%TO.N,/T_Display_S3/GPIO10*%
X99700000Y-66610000D02*
X99400000Y-66910000D01*
X99400000Y-66910000D02*
X99400000Y-70580000D01*
X90190000Y-73490000D02*
X90200000Y-73500000D01*
X89500000Y-73490000D02*
X90190000Y-73490000D01*
%TO.N,/BM1397/3V3*%
X89800000Y-74510000D02*
X90000000Y-74710000D01*
X89500000Y-74510000D02*
X89800000Y-74510000D01*
%TO.N,/BM1397/1V8*%
X93200000Y-73390001D02*
X93209999Y-73400000D01*
X85640000Y-68240000D02*
X84355800Y-69524200D01*
X91749999Y-69537500D02*
X92649999Y-68637500D01*
X85640000Y-63000000D02*
X85640000Y-62840000D01*
X84355800Y-74176811D02*
X84355800Y-71300000D01*
X84282674Y-74249937D02*
X84355800Y-74176811D01*
X86836134Y-63700000D02*
X85640000Y-63700000D01*
X91580000Y-71200000D02*
X91580000Y-71770001D01*
X84580000Y-74740000D02*
X84580000Y-74260000D01*
X91580000Y-69707499D02*
X91580000Y-71200000D01*
X85640000Y-62840000D02*
X84550000Y-61750000D01*
X100700000Y-70850000D02*
X100700000Y-70134600D01*
X87800000Y-62200000D02*
X87800000Y-62736134D01*
X83674800Y-74750063D02*
X84569937Y-74750063D01*
X85640000Y-60940000D02*
X84550000Y-59850000D01*
X92649999Y-68637500D02*
X92649999Y-62334448D01*
X85640000Y-63700000D02*
X85640000Y-68240000D01*
X92192499Y-69980000D02*
X91749999Y-69537500D01*
X95800000Y-71180000D02*
X100370000Y-71180000D01*
X92228051Y-61912500D02*
X88087500Y-61912500D01*
X85640000Y-63000000D02*
X85640000Y-63700000D01*
X83674800Y-74249937D02*
X84282674Y-74249937D01*
X93300000Y-69980000D02*
X94600000Y-69980000D01*
X84569937Y-74750063D02*
X84580000Y-74740000D01*
X92649999Y-62334448D02*
X92228051Y-61912500D01*
X100370000Y-71180000D02*
X100700000Y-70850000D01*
X88087500Y-61912500D02*
X87800000Y-62200000D01*
X84580000Y-74260000D02*
X84569937Y-74249937D01*
X85640000Y-63000000D02*
X85640000Y-60940000D01*
X91580000Y-71770001D02*
X93200000Y-73390001D01*
X84569937Y-74249937D02*
X84282674Y-74249937D01*
X87800000Y-62736134D02*
X86836134Y-63700000D01*
X93300000Y-69980000D02*
X92192499Y-69980000D01*
X94600000Y-69980000D02*
X95800000Y-71180000D01*
X84550000Y-59850000D02*
X84550000Y-61750000D01*
X84355800Y-71300000D02*
X84355800Y-69524200D01*
X91749999Y-69537500D02*
X91580000Y-69707499D01*
%TO.N,GND*%
X120300000Y-72810000D02*
X120300000Y-73200000D01*
X88600000Y-63580000D02*
X88600000Y-64000000D01*
X102140000Y-63610000D02*
X102050000Y-63700000D01*
X102100000Y-71320000D02*
X101660000Y-70880000D01*
X90800000Y-67262500D02*
X90800000Y-66900000D01*
X81450000Y-56940000D02*
X81470000Y-56960000D01*
X136745000Y-68950000D02*
X136745000Y-69495000D01*
X92780000Y-72080000D02*
X93300000Y-72080000D01*
X81206200Y-74161855D02*
X81118118Y-74249937D01*
X101660000Y-69090000D02*
X102050000Y-68700000D01*
X102140000Y-61120000D02*
X102140000Y-62265400D01*
X81470000Y-56960000D02*
X82140000Y-56960000D01*
X83420000Y-71880000D02*
X83500000Y-71800000D01*
X93677036Y-61494171D02*
X93677036Y-61357036D01*
X79300000Y-73000000D02*
X79300000Y-73620000D01*
X86255604Y-62655604D02*
X86600000Y-63000000D01*
X90520000Y-71300000D02*
X90620000Y-71200000D01*
X79500000Y-66200000D02*
X79800000Y-65900000D01*
X88600000Y-64000000D02*
X88900000Y-64300000D01*
X102050000Y-67450000D02*
X102050000Y-67250000D01*
X91100000Y-63037500D02*
X91100000Y-63900000D01*
X105500000Y-63250000D02*
X105050000Y-63700000D01*
X90800000Y-66900000D02*
X90000000Y-66100000D01*
X101660000Y-68840000D02*
X102050000Y-68450000D01*
X103050000Y-66250000D02*
X103100000Y-66200000D01*
X102050000Y-68450000D02*
X101660000Y-68060000D01*
X88780000Y-61100000D02*
X88800000Y-61080000D01*
X79800000Y-65900000D02*
X79800000Y-65540000D01*
X81118118Y-74249937D02*
X80525200Y-74249937D01*
X93677036Y-61357036D02*
X93400000Y-61080000D01*
X134300000Y-65100000D02*
X134310000Y-65110000D01*
X134300000Y-65990000D02*
X135000000Y-65990000D01*
X79300000Y-73620000D02*
X79200000Y-73720000D01*
X105500000Y-61300000D02*
X105600000Y-61200000D01*
X86255604Y-62397971D02*
X86255604Y-62655604D01*
X136745000Y-62550000D02*
X136745000Y-62005000D01*
X102850000Y-66450000D02*
X103050000Y-66450000D01*
X115960686Y-74719314D02*
X116080000Y-74600000D01*
X101660000Y-70880000D02*
X101660000Y-70134600D01*
X79200000Y-63500000D02*
X79890001Y-63500000D01*
X93687270Y-68448758D02*
X93300000Y-68836028D01*
X115960686Y-75639314D02*
X115960686Y-74719314D01*
X116080000Y-57820000D02*
X116080000Y-57880000D01*
X120300000Y-73200000D02*
X120200000Y-73300000D01*
X121200000Y-72420000D02*
X121200000Y-73200000D01*
X86400000Y-61000000D02*
X86400000Y-61080000D01*
X93300000Y-68836028D02*
X93300000Y-69020000D01*
X101850000Y-67450000D02*
X102050000Y-67450000D01*
X105500000Y-62265400D02*
X105500000Y-61300000D01*
X116800000Y-57100000D02*
X116080000Y-57820000D01*
X89600000Y-71300000D02*
X90520000Y-71300000D01*
X101660000Y-68060000D02*
X101660000Y-67640000D01*
X102050000Y-67250000D02*
X102850000Y-66450000D01*
X81316994Y-74161855D02*
X81206200Y-74161855D01*
X103050000Y-66450000D02*
X103050000Y-66250000D01*
X101660000Y-67640000D02*
X101850000Y-67450000D01*
X136745000Y-69495000D02*
X137320000Y-70070000D01*
X81290000Y-56940000D02*
X81450000Y-56940000D01*
X102020000Y-61000000D02*
X102140000Y-61120000D01*
X90600000Y-65700000D02*
X90100000Y-65200000D01*
X136745000Y-62005000D02*
X137320000Y-61430000D01*
X86810000Y-61490000D02*
X87400000Y-61490000D01*
X123400000Y-74140000D02*
X123400000Y-73555000D01*
X93400000Y-63225400D02*
X93400000Y-64100000D01*
X86400000Y-61080000D02*
X86810000Y-61490000D01*
X90920000Y-65700000D02*
X90600000Y-65700000D01*
X134310000Y-65110000D02*
X135000000Y-65110000D01*
X123390000Y-74150000D02*
X123400000Y-74140000D01*
X88000000Y-61100000D02*
X88780000Y-61100000D01*
X83420000Y-72500000D02*
X83420000Y-71880000D01*
X92600000Y-71900000D02*
X92780000Y-72080000D01*
%TO.N,Net-(IC1-VDD1_0)*%
X106895000Y-60665000D02*
X106895000Y-62220400D01*
X115120000Y-57880000D02*
X109680000Y-57880000D01*
X106895000Y-62220400D02*
X106940000Y-62265400D01*
X116080000Y-58840000D02*
X115120000Y-57880000D01*
X116080000Y-58900000D02*
X116080000Y-58840000D01*
X109680000Y-57880000D02*
X106895000Y-60665000D01*
%TO.N,Net-(IC1-VDD2_0)*%
X107420000Y-60870000D02*
X107420000Y-62265400D01*
X115120000Y-58900000D02*
X115100000Y-58880000D01*
X115100000Y-58880000D02*
X109410000Y-58880000D01*
X116080000Y-59860000D02*
X115120000Y-58900000D01*
X115120000Y-58900000D02*
X115020000Y-58800000D01*
X116080000Y-59900000D02*
X116080000Y-59860000D01*
X109410000Y-58880000D02*
X107420000Y-60870000D01*
%TO.N,/BM1397/0V8*%
X88800000Y-60120000D02*
X89507501Y-60120000D01*
X89507501Y-60120000D02*
X90150001Y-60762500D01*
%TO.N,Net-(IC1-VDD3_0)*%
X107900000Y-61150000D02*
X107900000Y-62265400D01*
X116080000Y-60860000D02*
X115120000Y-59900000D01*
X116080000Y-60900000D02*
X116080000Y-60860000D01*
X115100000Y-59880000D02*
X109170000Y-59880000D01*
X115120000Y-59900000D02*
X115100000Y-59880000D01*
X109170000Y-59880000D02*
X107900000Y-61150000D01*
%TO.N,/BM1397/VDD*%
X115120000Y-63180000D02*
X115100000Y-63200000D01*
X115120000Y-60900000D02*
X115120000Y-63180000D01*
X117290000Y-72760000D02*
X117290000Y-68900000D01*
X119650000Y-75120000D02*
X117290000Y-72760000D01*
X124600000Y-75120000D02*
X119650000Y-75120000D01*
X115120000Y-71500000D02*
X115120000Y-68820000D01*
X115120000Y-68820000D02*
X115100000Y-68800000D01*
X125300000Y-73812500D02*
X125300000Y-74420000D01*
X125300000Y-74420000D02*
X124600000Y-75120000D01*
%TO.N,Net-(IC1-VDD3_1)*%
X116080000Y-71500000D02*
X116080000Y-71540000D01*
X107900000Y-71100000D02*
X109300000Y-72500000D01*
X109300000Y-72500000D02*
X115120000Y-72500000D01*
X116080000Y-71540000D02*
X115120000Y-72500000D01*
X107900000Y-70134600D02*
X107900000Y-71100000D01*
%TO.N,Net-(IC1-VDD2_1)*%
X116080000Y-72500000D02*
X116080000Y-72540000D01*
X116080000Y-72540000D02*
X115120000Y-73500000D01*
X109510000Y-73500000D02*
X115120000Y-73500000D01*
X107420000Y-70134600D02*
X107420000Y-71410000D01*
X107420000Y-71410000D02*
X109510000Y-73500000D01*
%TO.N,Net-(IC1-VDD1_1)*%
X116080000Y-73640000D02*
X115120000Y-74600000D01*
X109800000Y-74600000D02*
X115120000Y-74600000D01*
X106940000Y-70134600D02*
X106940000Y-71740000D01*
X116080000Y-73500000D02*
X116080000Y-73640000D01*
X106940000Y-71740000D02*
X109800000Y-74600000D01*
D41*
%TO.N,/BM1397/VBUS*%
X134850000Y-68150000D02*
X133150000Y-69850000D01*
X126700000Y-72900000D02*
X126700000Y-74300000D01*
X87551450Y-72777951D02*
X87551450Y-68258550D01*
D40*
X90425000Y-68225000D02*
X89850001Y-67650001D01*
X90600000Y-64500000D02*
X90150001Y-64050001D01*
D41*
X88762274Y-75510000D02*
X114700000Y-75510000D01*
D40*
X89850001Y-67650001D02*
X89850001Y-67262500D01*
X116690000Y-77500000D02*
X116890000Y-77300000D01*
X92070000Y-64780000D02*
X91749999Y-65100001D01*
X88600000Y-62620000D02*
X89732501Y-62620000D01*
D41*
X87551450Y-72777950D02*
X87551450Y-74299176D01*
X136046606Y-63350000D02*
X136016606Y-63320000D01*
X127700000Y-69850000D02*
X125600000Y-69850000D01*
X126700000Y-72400000D02*
X126700000Y-72900000D01*
X125600000Y-69850000D02*
X126700000Y-70950000D01*
X134850000Y-68150000D02*
X135300000Y-68150000D01*
D40*
X90150001Y-64050001D02*
X90150001Y-63037500D01*
X126630000Y-72830000D02*
X126700000Y-72900000D01*
D41*
X126700000Y-70950000D02*
X126700000Y-72400000D01*
X134380000Y-63320000D02*
X133500000Y-64200000D01*
D40*
X92049999Y-63037500D02*
X92049999Y-64050001D01*
X89732501Y-62620000D02*
X90150001Y-63037500D01*
X122220000Y-72830000D02*
X126630000Y-72830000D01*
X91749999Y-65100001D02*
X91749999Y-67262500D01*
X91749999Y-67924999D02*
X91449998Y-68225000D01*
D41*
X87551450Y-74299176D02*
X88762274Y-75510000D01*
X87551450Y-68258550D02*
X88547500Y-67262500D01*
X88547500Y-67262500D02*
X89850001Y-67262500D01*
D40*
X92049999Y-63037500D02*
X92070000Y-63057501D01*
D41*
X126700000Y-74300000D02*
X123500000Y-77500000D01*
D40*
X91749999Y-67262500D02*
X91749999Y-67924999D01*
D41*
X123500000Y-77500000D02*
X116690000Y-77500000D01*
D40*
X122100000Y-72710000D02*
X122220000Y-72830000D01*
D41*
X133500000Y-64200000D02*
X133500000Y-66800000D01*
X136745000Y-68150000D02*
X137072563Y-68150000D01*
X136745000Y-68150000D02*
X136100000Y-68150000D01*
D40*
X91449998Y-68225000D02*
X90425000Y-68225000D01*
X92049999Y-64050001D02*
X91600000Y-64500000D01*
D41*
X133150000Y-69850000D02*
X127700000Y-69850000D01*
X135300000Y-68150000D02*
X136100000Y-68150000D01*
X114700000Y-75510000D02*
X116690000Y-77500000D01*
X136745000Y-63350000D02*
X136046606Y-63350000D01*
X136016606Y-63320000D02*
X134380000Y-63320000D01*
X133500000Y-66800000D02*
X134850000Y-68150000D01*
D40*
X91600000Y-64500000D02*
X90600000Y-64500000D01*
X92070000Y-63057501D02*
X92070000Y-64780000D01*
%TO.N,/BM1397/3V3*%
X79700000Y-75400000D02*
X79700000Y-74750063D01*
X79270063Y-74750063D02*
X79200000Y-74680000D01*
X79700000Y-74750063D02*
X80525200Y-74750063D01*
X79700000Y-74750063D02*
X79270063Y-74750063D01*
X79400000Y-75700000D02*
X79700000Y-75400000D01*
%TO.N,Net-(U5-EN)*%
X122550001Y-70464999D02*
X122550001Y-71239999D01*
X121200000Y-71780000D02*
X122010000Y-71780000D01*
X120300000Y-71790000D02*
X121190000Y-71790000D01*
X121190000Y-71790000D02*
X121200000Y-71780000D01*
X122550001Y-71239999D02*
X122100000Y-71690000D01*
X122010000Y-71780000D02*
X122100000Y-71690000D01*
%TO.N,Net-(U5-FB)*%
X124870000Y-72017500D02*
X123512500Y-72017500D01*
X123050000Y-70650000D02*
X123050000Y-70464999D01*
X123400000Y-71905000D02*
X123400000Y-71675000D01*
X123512500Y-72017500D02*
X123300000Y-71805000D01*
X123300000Y-70900000D02*
X123050000Y-70650000D01*
X123300000Y-71805000D02*
X123300000Y-70900000D01*
%TO.N,Net-(IC1-RI)*%
X93209999Y-74400000D02*
X102730000Y-74400000D01*
X102730000Y-74400000D02*
X105500000Y-71630000D01*
X105500000Y-71630000D02*
X105500000Y-70134600D01*
X93200000Y-74409999D02*
X93209999Y-74400000D01*
%TO.N,/BM1397/RST_N*%
X80909999Y-60438925D02*
X80909999Y-63500000D01*
X102400000Y-57500000D02*
X83848924Y-57500000D01*
X83848924Y-57500000D02*
X80909999Y-60438925D01*
X79800000Y-64520000D02*
X81000000Y-64520000D01*
X104060000Y-59160000D02*
X102400000Y-57500000D01*
X81000000Y-63590001D02*
X81000000Y-64520000D01*
X80909999Y-63500000D02*
X81000000Y-63590001D01*
X104060000Y-62265400D02*
X104060000Y-59160000D01*
%TO.N,/BM1397/BM_CLKI*%
X88000000Y-58700000D02*
X101400000Y-58700000D01*
X101400000Y-58700000D02*
X102620000Y-59920000D01*
X102620000Y-59920000D02*
X102620000Y-62265400D01*
X86850000Y-59850000D02*
X88000000Y-58700000D01*
%TO.N,/T_Display_S3/GPIO2*%
X93830000Y-77500000D02*
X92130000Y-79200000D01*
X92130000Y-79200000D02*
X85099402Y-79200000D01*
X81149591Y-75250189D02*
X80525200Y-75250189D01*
X85099402Y-79200000D02*
X81149591Y-75250189D01*
%TO.N,/T_Display_S3/GPIO1*%
X89990000Y-78800000D02*
X91290000Y-77500000D01*
X84380189Y-75250189D02*
X84554611Y-75424611D01*
X84554611Y-75424611D02*
X84554611Y-77574611D01*
X84554611Y-77574611D02*
X85780000Y-78800000D01*
X85780000Y-78800000D02*
X89990000Y-78800000D01*
X83674800Y-75250189D02*
X84380189Y-75250189D01*
%TO.N,Net-(J3-CC1)*%
X135010000Y-67000000D02*
X136745000Y-67000000D01*
%TO.N,Net-(J3-CC2)*%
X135010000Y-64000000D02*
X136745000Y-64000000D01*
%TO.N,/BM1397/RO*%
X81800000Y-60334314D02*
X81800000Y-72475011D01*
X103580000Y-59380000D02*
X102100000Y-57900000D01*
X84234314Y-57900000D02*
X81800000Y-60334314D01*
X81800000Y-72475011D02*
X80525200Y-73749811D01*
X103580000Y-62265400D02*
X103580000Y-59380000D01*
X102100000Y-57900000D02*
X84234314Y-57900000D01*
%TO.N,/BM1397/CI*%
X83549811Y-73749811D02*
X83674800Y-73749811D01*
X82300000Y-72500000D02*
X83549811Y-73749811D01*
X103100000Y-59600000D02*
X101800000Y-58300000D01*
X101800000Y-58300000D02*
X84400000Y-58300000D01*
X82300000Y-60400000D02*
X82300000Y-72500000D01*
X83674800Y-73749811D02*
X83420800Y-73749811D01*
X103100000Y-62265400D02*
X103100000Y-59600000D01*
X84400000Y-58300000D02*
X82300000Y-60400000D01*
%TO.N,/BM1397/0V8_O*%
X101180000Y-62265400D02*
X101180000Y-61180000D01*
X101660000Y-61488529D02*
X101660000Y-62265400D01*
X100120000Y-60120000D02*
X93400000Y-60120000D01*
X101180000Y-61180000D02*
X101351471Y-61180000D01*
X101351471Y-61180000D02*
X101660000Y-61488529D01*
X101180000Y-61180000D02*
X100950000Y-60950000D01*
X101200000Y-61200000D02*
X100950000Y-60950000D01*
X100950000Y-60950000D02*
X100120000Y-60120000D01*
X101180000Y-61180000D02*
X101200000Y-61200000D01*
%TO.N,Net-(IC1-BI)*%
X102565686Y-57100000D02*
X104540000Y-59074314D01*
X83300000Y-57100000D02*
X102565686Y-57100000D01*
X83160000Y-56960000D02*
X83300000Y-57100000D01*
X104540000Y-59074314D02*
X104540000Y-62265400D01*
%TO.N,/BM1397/RST*%
X79151471Y-76300000D02*
X78590000Y-75738529D01*
X78590000Y-75738529D02*
X78590000Y-72861471D01*
X94270000Y-79600000D02*
X96370000Y-77500000D01*
X81000000Y-70451471D02*
X81000000Y-65540000D01*
X78590000Y-72861471D02*
X81000000Y-70451471D01*
X81500000Y-76300000D02*
X79151471Y-76300000D01*
X84933716Y-79600000D02*
X85000000Y-79600000D01*
X85000000Y-79600000D02*
X94270000Y-79600000D01*
X84800000Y-79600000D02*
X81500000Y-76300000D01*
X85000000Y-79600000D02*
X84800000Y-79600000D01*
%TO.N,/BM1397/1V8_O*%
X94524600Y-62265400D02*
X93400000Y-62265400D01*
X95570000Y-61220000D02*
X94524600Y-62265400D01*
X100700000Y-62265400D02*
X100700000Y-61470000D01*
X100700000Y-61470000D02*
X100450000Y-61220000D01*
X100450000Y-61220000D02*
X95570000Y-61220000D01*
%TO.N,/BM1397/0V8_O2*%
X93300000Y-71120000D02*
X94380000Y-71120000D01*
X95020000Y-71760000D02*
X100500000Y-71760000D01*
X100500000Y-71760000D02*
X101180000Y-71080000D01*
X101180000Y-71080000D02*
X101180000Y-70134600D01*
X94380000Y-71120000D02*
X95020000Y-71760000D01*
%TD*%
%TA.AperFunction,Conductor*%
%TO.N,GND*%
G36*
X120760996Y-69297593D02*
G01*
X120772569Y-69309750D01*
X121614711Y-70419846D01*
X121630000Y-70465296D01*
X121630000Y-71024800D01*
X121612407Y-71073138D01*
X121567858Y-71098858D01*
X121554800Y-71100000D01*
X120199876Y-71100000D01*
X117665983Y-71109526D01*
X117617579Y-71092115D01*
X117591692Y-71047664D01*
X117590500Y-71034327D01*
X117590500Y-69355200D01*
X117608093Y-69306862D01*
X117652642Y-69281142D01*
X117665700Y-69280000D01*
X120712658Y-69280000D01*
X120760996Y-69297593D01*
G37*
%TD.AperFunction*%
%TD*%
%TA.AperFunction,Conductor*%
%TO.N,GND*%
G36*
X128723990Y-63049522D02*
G01*
X128748383Y-63051992D01*
X128808386Y-63064153D01*
X128853395Y-63083086D01*
X128893640Y-63110404D01*
X128927848Y-63145242D01*
X128954427Y-63185979D01*
X128972535Y-63231327D01*
X128983598Y-63291532D01*
X128985623Y-63315982D01*
X128904278Y-68259952D01*
X128901525Y-68283974D01*
X128888839Y-68342984D01*
X128869782Y-68387183D01*
X128842600Y-68426711D01*
X128808151Y-68460322D01*
X128767962Y-68486525D01*
X128723311Y-68504487D01*
X128664013Y-68515717D01*
X128639929Y-68517878D01*
X128572749Y-68517331D01*
X125480111Y-68492120D01*
X125456063Y-68489565D01*
X125396945Y-68477366D01*
X125352590Y-68458676D01*
X125312833Y-68431818D01*
X125278938Y-68397646D01*
X125252401Y-68357667D01*
X125234074Y-68313163D01*
X125222358Y-68253946D01*
X125220000Y-68229879D01*
X125220000Y-65989999D01*
X125220000Y-65740000D01*
X124970004Y-65740000D01*
X123709364Y-65740000D01*
X123685343Y-65737651D01*
X123659737Y-65732594D01*
X123626230Y-65725978D01*
X123581794Y-65707716D01*
X123541862Y-65681275D01*
X123507704Y-65647496D01*
X123480813Y-65607850D01*
X123462063Y-65563628D01*
X123449732Y-65504638D01*
X123447118Y-65480652D01*
X123422950Y-63305538D01*
X123425099Y-63281145D01*
X123436461Y-63221042D01*
X123454770Y-63175839D01*
X123481512Y-63135268D01*
X123515837Y-63100622D01*
X123556159Y-63073502D01*
X123601191Y-63054774D01*
X123661170Y-63042854D01*
X123685559Y-63040477D01*
X128723990Y-63049522D01*
G37*
%TD.AperFunction*%
%TD*%
%TA.AperFunction,Conductor*%
%TO.N,/BM1397/VDD*%
G36*
X121373277Y-63032831D02*
G01*
X121432625Y-63044473D01*
X121477230Y-63062777D01*
X121501293Y-63078717D01*
X121517296Y-63089318D01*
X121551550Y-63123254D01*
X121578462Y-63163070D01*
X121597181Y-63207505D01*
X121609373Y-63266726D01*
X121611917Y-63290818D01*
X121628726Y-65576849D01*
X121630000Y-65750000D01*
X121659272Y-65804526D01*
X121659274Y-65804530D01*
X122106946Y-66638429D01*
X122113277Y-66652174D01*
X122127079Y-66687699D01*
X122134507Y-66716976D01*
X122139309Y-66754771D01*
X122140297Y-66769872D01*
X122148872Y-68785067D01*
X122146561Y-68809427D01*
X122134826Y-68869347D01*
X122116261Y-68914374D01*
X122089318Y-68954724D01*
X122054847Y-68989126D01*
X122014439Y-69015991D01*
X121969379Y-69034465D01*
X121909440Y-69046081D01*
X121885073Y-69048344D01*
X121804118Y-69047838D01*
X121662874Y-69046955D01*
X120588403Y-69040239D01*
X120580014Y-69039900D01*
X120565944Y-69038854D01*
X120558751Y-69038319D01*
X120542073Y-69035930D01*
X120521207Y-69031476D01*
X120513062Y-69029445D01*
X120328144Y-68976612D01*
X120284558Y-68964159D01*
X120233686Y-68949624D01*
X120233674Y-68949621D01*
X120233667Y-68949619D01*
X120233665Y-68949618D01*
X120200000Y-68940000D01*
X120164988Y-68940000D01*
X117508683Y-68940000D01*
X117390000Y-68940000D01*
X117314973Y-69031966D01*
X117314973Y-69031967D01*
X117163448Y-69217708D01*
X117143936Y-69236858D01*
X117090478Y-69278826D01*
X117041419Y-69302201D01*
X116975155Y-69317279D01*
X116947994Y-69320369D01*
X106652519Y-69349262D01*
X106628306Y-69346944D01*
X106568733Y-69335258D01*
X106523953Y-69316840D01*
X106483769Y-69290126D01*
X106449458Y-69255966D01*
X106422569Y-69215903D01*
X106403955Y-69171204D01*
X106392006Y-69111675D01*
X106389582Y-69087480D01*
X106389523Y-69050000D01*
X106380416Y-63322109D01*
X106382759Y-63297925D01*
X106388912Y-63266726D01*
X106394495Y-63238415D01*
X106412930Y-63193699D01*
X106439643Y-63153570D01*
X106473781Y-63119309D01*
X106513818Y-63092451D01*
X106558462Y-63073861D01*
X106617944Y-63061910D01*
X106642104Y-63059483D01*
X121349181Y-63030513D01*
X121373277Y-63032831D01*
G37*
%TD.AperFunction*%
%TD*%
%TA.AperFunction,Conductor*%
%TO.N,/BM1397/VBUS*%
G36*
X128700470Y-69263905D02*
G01*
X128760266Y-69275458D01*
X128805229Y-69293835D01*
X128845576Y-69320566D01*
X128880027Y-69354802D01*
X128907013Y-69394983D01*
X128925669Y-69439824D01*
X128937598Y-69499550D01*
X128940000Y-69523834D01*
X128940000Y-70197789D01*
X128937617Y-70221982D01*
X128925781Y-70281482D01*
X128907267Y-70326179D01*
X128880481Y-70366268D01*
X128846269Y-70400479D01*
X128811975Y-70423394D01*
X128806179Y-70427267D01*
X128761482Y-70445781D01*
X128727857Y-70452469D01*
X128701978Y-70457617D01*
X128677789Y-70460000D01*
X124422211Y-70460000D01*
X124398020Y-70457617D01*
X124383189Y-70454667D01*
X124338518Y-70445781D01*
X124293822Y-70427267D01*
X124253727Y-70400477D01*
X124219522Y-70366272D01*
X124192730Y-70326175D01*
X124174218Y-70281480D01*
X124162383Y-70221980D01*
X124160000Y-70197789D01*
X124160000Y-69550598D01*
X124162362Y-69526510D01*
X124174107Y-69467217D01*
X124192475Y-69422676D01*
X124219073Y-69382666D01*
X124253037Y-69348489D01*
X124292872Y-69321645D01*
X124337301Y-69302995D01*
X124396521Y-69290878D01*
X124420587Y-69288364D01*
X128676178Y-69261655D01*
X128700470Y-69263905D01*
G37*
%TD.AperFunction*%
%TD*%
M02*
