%TF.GenerationSoftware,KiCad,Pcbnew,8.0.1*%
%TF.CreationDate,2024-04-17T00:28:09-04:00*%
%TF.ProjectId,NerdNOS,4e657264-4e4f-4532-9e6b-696361645f70,rev?*%
%TF.SameCoordinates,Original*%
%TF.FileFunction,Soldermask,Top*%
%TF.FilePolarity,Negative*%
%FSLAX46Y46*%
G04 Gerber Fmt 4.6, Leading zero omitted, Abs format (unit mm)*
G04 Created by KiCad (PCBNEW 8.0.1) date 2024-04-17 00:28:09*
%MOMM*%
%LPD*%
G01*
G04 APERTURE LIST*
G04 Aperture macros list*
%AMRoundRect*
0 Rectangle with rounded corners*
0 $1 Rounding radius*
0 $2 $3 $4 $5 $6 $7 $8 $9 X,Y pos of 4 corners*
0 Add a 4 corners polygon primitive as box body*
4,1,4,$2,$3,$4,$5,$6,$7,$8,$9,$2,$3,0*
0 Add four circle primitives for the rounded corners*
1,1,$1+$1,$2,$3*
1,1,$1+$1,$4,$5*
1,1,$1+$1,$6,$7*
1,1,$1+$1,$8,$9*
0 Add four rect primitives between the rounded corners*
20,1,$1+$1,$2,$3,$4,$5,0*
20,1,$1+$1,$4,$5,$6,$7,0*
20,1,$1+$1,$6,$7,$8,$9,0*
20,1,$1+$1,$8,$9,$2,$3,0*%
G04 Aperture macros list end*
%ADD10C,0.000000*%
%ADD11C,0.010000*%
%ADD12R,1.700000X1.700000*%
%ADD13O,1.700000X1.700000*%
%ADD14RoundRect,0.150000X0.150000X-0.512500X0.150000X0.512500X-0.150000X0.512500X-0.150000X-0.512500X0*%
%ADD15RoundRect,0.135000X0.185000X-0.135000X0.185000X0.135000X-0.185000X0.135000X-0.185000X-0.135000X0*%
%ADD16RoundRect,0.140000X-0.170000X0.140000X-0.170000X-0.140000X0.170000X-0.140000X0.170000X0.140000X0*%
%ADD17RoundRect,0.140000X0.140000X0.170000X-0.140000X0.170000X-0.140000X-0.170000X0.140000X-0.170000X0*%
%ADD18RoundRect,0.135000X-0.135000X-0.185000X0.135000X-0.185000X0.135000X0.185000X-0.135000X0.185000X0*%
%ADD19RoundRect,0.140000X-0.140000X-0.170000X0.140000X-0.170000X0.140000X0.170000X-0.140000X0.170000X0*%
%ADD20RoundRect,0.140000X0.170000X-0.140000X0.170000X0.140000X-0.170000X0.140000X-0.170000X-0.140000X0*%
%ADD21RoundRect,0.135000X-0.185000X0.135000X-0.185000X-0.135000X0.185000X-0.135000X0.185000X0.135000X0*%
%ADD22R,0.220000X0.599999*%
%ADD23C,0.650000*%
%ADD24RoundRect,0.150000X0.425000X-0.150000X0.425000X0.150000X-0.425000X0.150000X-0.425000X-0.150000X0*%
%ADD25RoundRect,0.075000X0.500000X-0.075000X0.500000X0.075000X-0.500000X0.075000X-0.500000X-0.075000X0*%
%ADD26O,2.100000X1.000000*%
%ADD27O,1.800000X1.000000*%
%ADD28RoundRect,0.135000X0.135000X0.185000X-0.135000X0.185000X-0.135000X-0.185000X0.135000X-0.185000X0*%
%ADD29R,1.300000X1.100000*%
%ADD30C,2.000000*%
%ADD31RoundRect,0.250000X-0.325000X-1.100000X0.325000X-1.100000X0.325000X1.100000X-0.325000X1.100000X0*%
%ADD32RoundRect,0.200000X-0.275000X0.200000X-0.275000X-0.200000X0.275000X-0.200000X0.275000X0.200000X0*%
%ADD33RoundRect,0.200000X0.275000X-0.200000X0.275000X0.200000X-0.275000X0.200000X-0.275000X-0.200000X0*%
%ADD34RoundRect,0.236600X-0.000010X0.295000X-0.000010X-0.295000X0.000010X-0.295000X0.000010X0.295000X0*%
%ADD35R,0.254000X0.762000*%
%ADD36RoundRect,0.150000X-0.150000X0.512500X-0.150000X-0.512500X0.150000X-0.512500X0.150000X0.512500X0*%
%ADD37RoundRect,0.250000X0.475000X-0.250000X0.475000X0.250000X-0.475000X0.250000X-0.475000X-0.250000X0*%
%ADD38RoundRect,0.225000X-0.250000X0.225000X-0.250000X-0.225000X0.250000X-0.225000X0.250000X0.225000X0*%
G04 APERTURE END LIST*
D10*
%TO.C,U5*%
G36*
X122210002Y-69390000D02*
G01*
X122210004Y-69709999D01*
X122160002Y-69759999D01*
X122073002Y-69759999D01*
X122037002Y-69775000D01*
X121690000Y-70122000D01*
X121675001Y-70157999D01*
X121675001Y-70364999D01*
X121625002Y-70414999D01*
X121150001Y-70414999D01*
X121100001Y-70364999D01*
X121100001Y-70240000D01*
X121050001Y-70190001D01*
X120750002Y-70190001D01*
X120700002Y-70140001D01*
X120700002Y-69990001D01*
X120750002Y-69940001D01*
X121050001Y-69940001D01*
X121100001Y-69889999D01*
X121100001Y-69739999D01*
X121050001Y-69689999D01*
X120750002Y-69689999D01*
X120700002Y-69639999D01*
X120700002Y-69489999D01*
X120750002Y-69440000D01*
X121050001Y-69440000D01*
X121100001Y-69390000D01*
X121150001Y-69340000D01*
X122160002Y-69340000D01*
X122210002Y-69390000D01*
G37*
G36*
X124000001Y-69390000D02*
G01*
X124050001Y-69440000D01*
X124350000Y-69440000D01*
X124400000Y-69489999D01*
X124400000Y-69639999D01*
X124350000Y-69689999D01*
X124050001Y-69689999D01*
X124000001Y-69739999D01*
X124000001Y-69889999D01*
X124050001Y-69940001D01*
X124350000Y-69940001D01*
X124400000Y-69990001D01*
X124400000Y-70140001D01*
X124350000Y-70190001D01*
X124050001Y-70190001D01*
X124000001Y-70240000D01*
X124000001Y-70364999D01*
X123950001Y-70414999D01*
X123475000Y-70414999D01*
X123425001Y-70364999D01*
X123425001Y-70157999D01*
X123410002Y-70122000D01*
X123063000Y-69775000D01*
X123027000Y-69759999D01*
X122940000Y-69759999D01*
X122889998Y-69709999D01*
X122890000Y-69390000D01*
X122940000Y-69340000D01*
X123950001Y-69340000D01*
X124000001Y-69390000D01*
G37*
G36*
X122100002Y-66840002D02*
G01*
X122100002Y-68940001D01*
X122049999Y-68990000D01*
X121150004Y-68989998D01*
X121100001Y-68940001D01*
X121100001Y-68824999D01*
X121050001Y-68775000D01*
X120750002Y-68774997D01*
X120700000Y-68725000D01*
X120700002Y-68574997D01*
X120750002Y-68525000D01*
X121050001Y-68525005D01*
X121100001Y-68475000D01*
X121100001Y-68325003D01*
X121050001Y-68275001D01*
X120750002Y-68275001D01*
X120700002Y-68225001D01*
X120700002Y-68075001D01*
X120750002Y-68025001D01*
X121050001Y-68025001D01*
X121100001Y-67974999D01*
X121100001Y-67825001D01*
X121050001Y-67774999D01*
X120750002Y-67775002D01*
X120700002Y-67724999D01*
X120700002Y-67574999D01*
X120750002Y-67525000D01*
X121050001Y-67525000D01*
X121100001Y-67475000D01*
X121100001Y-67325000D01*
X121050001Y-67275000D01*
X120750002Y-67275000D01*
X120700002Y-67225000D01*
X120700002Y-67075000D01*
X120750000Y-67025001D01*
X121050001Y-67025001D01*
X121100001Y-66975001D01*
X121100001Y-66840002D01*
X121150001Y-66790000D01*
X122050005Y-66790000D01*
X122100002Y-66840002D01*
G37*
G36*
X124000001Y-66840002D02*
G01*
X124000001Y-66975001D01*
X124050001Y-67025001D01*
X124350000Y-67025001D01*
X124400000Y-67075000D01*
X124400000Y-67225000D01*
X124350000Y-67275000D01*
X124050001Y-67275000D01*
X124000001Y-67325000D01*
X124000001Y-67475000D01*
X124050001Y-67525000D01*
X124350000Y-67525000D01*
X124400000Y-67574999D01*
X124400000Y-67724999D01*
X124350000Y-67775002D01*
X124050001Y-67775002D01*
X124000001Y-67824999D01*
X124000001Y-67975001D01*
X124050001Y-68025001D01*
X124350000Y-68025001D01*
X124400000Y-68075001D01*
X124400000Y-68225001D01*
X124350000Y-68275001D01*
X124050001Y-68275001D01*
X124000001Y-68325003D01*
X124000001Y-68475000D01*
X124050001Y-68525003D01*
X124350000Y-68525000D01*
X124400000Y-68574997D01*
X124400002Y-68725000D01*
X124350000Y-68774997D01*
X124050001Y-68775000D01*
X124000001Y-68824999D01*
X124000001Y-68940001D01*
X123950001Y-68989998D01*
X123050003Y-68990000D01*
X123000000Y-68940001D01*
X123000000Y-66840002D01*
X123050000Y-66790000D01*
X123950001Y-66790000D01*
X124000001Y-66840002D01*
G37*
%TO.C,IC1*%
D11*
X101955000Y-66400000D02*
X100325000Y-66400000D01*
X100325000Y-69340000D01*
X101955000Y-69340000D01*
X101955000Y-66400000D01*
G36*
X101955000Y-66400000D02*
G01*
X100325000Y-66400000D01*
X100325000Y-69340000D01*
X101955000Y-69340000D01*
X101955000Y-66400000D01*
G37*
X101965000Y-63060000D02*
X100335000Y-63060000D01*
X100335000Y-66000000D01*
X101965000Y-66000000D01*
X101965000Y-63060000D01*
G36*
X101965000Y-63060000D02*
G01*
X100335000Y-63060000D01*
X100335000Y-66000000D01*
X101965000Y-66000000D01*
X101965000Y-63060000D01*
G37*
X103915000Y-63060000D02*
X102285000Y-63060000D01*
X102285000Y-66000000D01*
X103915000Y-66000000D01*
X103915000Y-63060000D01*
G36*
X103915000Y-63060000D02*
G01*
X102285000Y-63060000D01*
X102285000Y-66000000D01*
X103915000Y-66000000D01*
X103915000Y-63060000D01*
G37*
X103925000Y-66410000D02*
X102295000Y-66410000D01*
X102295000Y-69350000D01*
X103925000Y-69350000D01*
X103925000Y-66410000D01*
G36*
X103925000Y-66410000D02*
G01*
X102295000Y-66410000D01*
X102295000Y-69350000D01*
X103925000Y-69350000D01*
X103925000Y-66410000D01*
G37*
X105865000Y-66400000D02*
X104235000Y-66400000D01*
X104235000Y-69340000D01*
X105865000Y-69340000D01*
X105865000Y-66400000D01*
G36*
X105865000Y-66400000D02*
G01*
X104235000Y-66400000D01*
X104235000Y-69340000D01*
X105865000Y-69340000D01*
X105865000Y-66400000D01*
G37*
X105870000Y-63060000D02*
X104240000Y-63060000D01*
X104240000Y-66000000D01*
X105870000Y-66000000D01*
X105870000Y-63060000D01*
G36*
X105870000Y-63060000D02*
G01*
X104240000Y-63060000D01*
X104240000Y-66000000D01*
X105870000Y-66000000D01*
X105870000Y-63060000D01*
G37*
X108220000Y-63050000D02*
X106380000Y-63050000D01*
X106380000Y-65990000D01*
X108220000Y-65990000D01*
X108220000Y-63050000D01*
G36*
X108220000Y-63050000D02*
G01*
X106380000Y-63050000D01*
X106380000Y-65990000D01*
X108220000Y-65990000D01*
X108220000Y-63050000D01*
G37*
X108220000Y-66410000D02*
X106380000Y-66410000D01*
X106380000Y-69350000D01*
X108220000Y-69350000D01*
X108220000Y-66410000D01*
G36*
X108220000Y-66410000D02*
G01*
X106380000Y-66410000D01*
X106380000Y-69350000D01*
X108220000Y-69350000D01*
X108220000Y-66410000D01*
G37*
%TD*%
D12*
%TO.C,J2*%
X116690000Y-77700000D03*
D13*
X114150000Y-77300000D03*
X111610000Y-77700000D03*
X109070000Y-77300000D03*
X106530000Y-77700000D03*
X103990000Y-77300000D03*
X101450000Y-77700000D03*
X98910000Y-77300000D03*
X96370000Y-77700000D03*
X93830000Y-77300000D03*
X91290000Y-77700000D03*
X88750000Y-77300000D03*
%TD*%
D12*
%TO.C,J1*%
X116690000Y-55200000D03*
D13*
X114150000Y-54800000D03*
X111610000Y-55200000D03*
X109070000Y-54800000D03*
X106530000Y-55200000D03*
X103990000Y-54800000D03*
X101450000Y-55200000D03*
X98910000Y-54800000D03*
X96370000Y-55200000D03*
X93830000Y-54800000D03*
X91290000Y-55200000D03*
X88750000Y-54800000D03*
%TD*%
D14*
%TO.C,U4*%
X90150001Y-63037500D03*
X91100000Y-63037500D03*
X92049999Y-63037500D03*
X92049999Y-60762500D03*
X90150001Y-60762500D03*
%TD*%
D15*
%TO.C,R7*%
X133165000Y-65550000D03*
X133165000Y-64530000D03*
%TD*%
D16*
%TO.C,C5*%
X93500000Y-62620000D03*
X93500000Y-63580000D03*
%TD*%
D17*
%TO.C,C6*%
X116080000Y-59900000D03*
X115120000Y-59900000D03*
%TD*%
D18*
%TO.C,R1*%
X82690001Y-64980000D03*
X83709999Y-64980000D03*
%TD*%
D19*
%TO.C,C7*%
X85620000Y-74200000D03*
X86580000Y-74200000D03*
%TD*%
D20*
%TO.C,C23*%
X127600000Y-69780000D03*
X127600000Y-68820000D03*
%TD*%
D17*
%TO.C,C2*%
X116080000Y-57880000D03*
X115120000Y-57880000D03*
%TD*%
D21*
%TO.C,R6*%
X133165000Y-66430000D03*
X133165000Y-67450000D03*
%TD*%
D16*
%TO.C,C20*%
X88700000Y-62620000D03*
X88700000Y-63580000D03*
%TD*%
D15*
%TO.C,R5*%
X92200000Y-72109999D03*
X92200000Y-71090001D03*
%TD*%
D22*
%TO.C,U5*%
X122050002Y-70464999D03*
X122550001Y-70464999D03*
X123050000Y-70464999D03*
%TD*%
D23*
%TO.C,J3*%
X135985000Y-69080000D03*
X135985000Y-63300000D03*
D24*
X134910000Y-69390000D03*
X134910000Y-68590000D03*
D25*
X134910000Y-67440000D03*
X134910000Y-66440000D03*
X134910000Y-65940000D03*
X134910000Y-64940000D03*
D24*
X134910000Y-62990000D03*
X134910000Y-63790000D03*
D25*
X134910000Y-64440000D03*
X134910000Y-65440000D03*
X134910000Y-66940000D03*
X134910000Y-67940000D03*
D26*
X135485000Y-70510000D03*
D27*
X139665000Y-70510000D03*
D26*
X135485000Y-61870000D03*
D27*
X139665000Y-61870000D03*
%TD*%
D19*
%TO.C,C18*%
X115120000Y-74600000D03*
X116080000Y-74600000D03*
%TD*%
D20*
%TO.C,C15*%
X93300000Y-69980000D03*
X93300000Y-69020000D03*
%TD*%
D16*
%TO.C,C11*%
X121070000Y-71700000D03*
X121070000Y-72660000D03*
%TD*%
D19*
%TO.C,C17*%
X115120000Y-73500000D03*
X116080000Y-73500000D03*
%TD*%
D28*
%TO.C,R8*%
X93510000Y-75000000D03*
X92490000Y-75000000D03*
%TD*%
D17*
%TO.C,C3*%
X116080000Y-58900000D03*
X115120000Y-58900000D03*
%TD*%
D29*
%TO.C,U2*%
X84550000Y-61750000D03*
X86850000Y-61750000D03*
X86850000Y-59850000D03*
X84550000Y-59850000D03*
%TD*%
D21*
%TO.C,R4*%
X82600000Y-66000000D03*
X82600000Y-67020000D03*
%TD*%
D17*
%TO.C,C1*%
X86600000Y-63000000D03*
X85640000Y-63000000D03*
%TD*%
D15*
%TO.C,R10*%
X122100000Y-72710000D03*
X122100000Y-71690000D03*
%TD*%
D30*
%TO.C,FID2*%
X139300000Y-77400000D03*
%TD*%
D31*
%TO.C,C13*%
X121045000Y-64390000D03*
X123995000Y-64390000D03*
%TD*%
D20*
%TO.C,C21*%
X93300000Y-67880000D03*
X93300000Y-66920000D03*
%TD*%
D15*
%TO.C,R3*%
X83800000Y-67020000D03*
X83800000Y-66000000D03*
%TD*%
D19*
%TO.C,C9*%
X85920000Y-67700000D03*
X86880000Y-67700000D03*
%TD*%
D16*
%TO.C,C4*%
X93500000Y-60220000D03*
X93500000Y-61180000D03*
%TD*%
D32*
%TO.C,R13*%
X123400000Y-71905000D03*
X123400000Y-73555000D03*
%TD*%
D33*
%TO.C,R12*%
X125270000Y-73550000D03*
X125270000Y-71900000D03*
%TD*%
D34*
%TO.C,IC1*%
X107900000Y-62265400D03*
X107420000Y-62265400D03*
X106940000Y-62265400D03*
X106460000Y-62265400D03*
X105980000Y-62265400D03*
X105500000Y-62265400D03*
X105020000Y-62265400D03*
X104540000Y-62265400D03*
X104060000Y-62265400D03*
X103580000Y-62265400D03*
X103100000Y-62265400D03*
X102620000Y-62265400D03*
X102140000Y-62265400D03*
X101660000Y-62265400D03*
X101180000Y-62265400D03*
X100700000Y-62265400D03*
X100700000Y-70134600D03*
X101180000Y-70134600D03*
X101660000Y-70134600D03*
X102140000Y-70134600D03*
X102620000Y-70134600D03*
X103100000Y-70134600D03*
X103580000Y-70134600D03*
X104060000Y-70134600D03*
X104540000Y-70134600D03*
X105020000Y-70134600D03*
X105500000Y-70134600D03*
X105980000Y-70134600D03*
X106460000Y-70134600D03*
X106940000Y-70134600D03*
X107420000Y-70134600D03*
X107900000Y-70134600D03*
%TD*%
D35*
%TO.C,U6*%
X85049811Y-72174800D03*
X85549937Y-72174800D03*
X86050063Y-72174800D03*
X86550189Y-72174800D03*
X86550189Y-69025200D03*
X86050063Y-69025200D03*
X85549937Y-69025200D03*
X85049811Y-69025200D03*
%TD*%
D17*
%TO.C,C19*%
X91880000Y-65700000D03*
X90920000Y-65700000D03*
%TD*%
D16*
%TO.C,C22*%
X88700000Y-60220000D03*
X88700000Y-61180000D03*
%TD*%
D19*
%TO.C,C14*%
X115120000Y-72500000D03*
X116080000Y-72500000D03*
%TD*%
D18*
%TO.C,R2*%
X85190000Y-56800000D03*
X86210000Y-56800000D03*
%TD*%
D19*
%TO.C,C12*%
X115120000Y-71500000D03*
X116080000Y-71500000D03*
%TD*%
D21*
%TO.C,TH1*%
X99700000Y-65590000D03*
X99700000Y-66610000D03*
%TD*%
D36*
%TO.C,U3*%
X91749999Y-67262500D03*
X90800000Y-67262500D03*
X89850001Y-67262500D03*
X89850001Y-69537500D03*
X91749999Y-69537500D03*
%TD*%
D17*
%TO.C,C8*%
X116080000Y-60900000D03*
X115120000Y-60900000D03*
%TD*%
D16*
%TO.C,C16*%
X93300000Y-71120000D03*
X93300000Y-72080000D03*
%TD*%
D37*
%TO.C,C24*%
X125980000Y-69910000D03*
X125980000Y-68010000D03*
%TD*%
D30*
%TO.C,FID1*%
X81900000Y-55100000D03*
%TD*%
D38*
%TO.C,C10*%
X119090000Y-68315000D03*
X119090000Y-69865000D03*
%TD*%
D21*
%TO.C,R11*%
X120040000Y-71680000D03*
X120040000Y-72700000D03*
%TD*%
M02*
