M48
; DRILL file {KiCad 8.0.1} date 2024-04-17T00:28:12-0400
; FORMAT={-:-/ absolute / inch / decimal}
; #@! TF.CreationDate,2024-04-17T00:28:12-04:00
; #@! TF.GenerationSoftware,Kicad,Pcbnew,8.0.1
; #@! TF.FileFunction,Plated,1,2,PTH
FMAT,2
INCH
; #@! TA.AperFunction,Plated,PTH,ViaDrill
T1C0.0118
; #@! TA.AperFunction,Plated,PTH,ComponentDrill
T2C0.0236
; #@! TA.AperFunction,Plated,PTH,ComponentDrill
T3C0.0394
%
G90
G05
T1
X3.2402Y-2.6646
X3.272Y-2.5246
X3.3031Y-2.748
X3.3228Y-2.2362
X3.3642Y-2.8854
X3.368Y-2.8133
X3.3959Y-2.4566
X3.4016Y-2.4016
X3.4488Y-2.6654
X3.4646Y-2.4055
X3.4724Y-2.936
X3.5Y-2.5315
X3.5246Y-2.936
X3.5325Y-3.0128
X3.5433Y-2.6024
X3.5472Y-2.5669
X3.577Y-2.9683
X3.5866Y-2.5157
X3.6772Y-2.6063
X3.6881Y-2.421
X3.7008Y-2.8346
X3.7047Y-2.7165
X3.7087Y-2.5079
X3.8941Y-2.9528
X3.9134Y-2.563
X3.9134Y-2.7787
X3.9783Y-2.5079
X3.9783Y-2.5472
X3.9783Y-2.5866
X3.9783Y-2.626
X3.9783Y-2.6654
X3.9783Y-2.7047
X4.0165Y-2.4016
X4.0177Y-2.5079
X4.0177Y-2.5472
X4.0177Y-2.5866
X4.0177Y-2.626
X4.0177Y-2.6654
X4.0177Y-2.7047
X4.0197Y-2.8228
X4.0571Y-2.5079
X4.0571Y-2.5472
X4.0571Y-2.5866
X4.0571Y-2.626
X4.0571Y-2.6654
X4.0571Y-2.7047
X4.0965Y-2.5079
X4.0965Y-2.5472
X4.0965Y-2.5866
X4.0965Y-2.626
X4.0965Y-2.6654
X4.0965Y-2.7047
X4.1358Y-2.5079
X4.1358Y-2.5472
X4.1358Y-2.5866
X4.1358Y-2.626
X4.1358Y-2.6654
X4.1358Y-2.7047
X4.1575Y-2.4094
X4.5514Y-2.9649
X4.5517Y-2.251
X4.6413Y-2.7402
X4.6413Y-2.7886
X4.7217Y-2.7874
X4.7323Y-2.8858
X4.7331Y-2.7394
X4.7681Y-2.7866
X4.7717Y-2.8819
X4.8579Y-2.9193
X4.9476Y-2.5386
X4.9476Y-2.5976
X4.9724Y-2.5079
X4.9724Y-2.5689
X4.9724Y-2.6299
X4.9988Y-2.5386
X4.9988Y-2.5976
X5.2677Y-2.5744
X5.2677Y-2.6098
T3
X3.4941Y-2.1575
X3.4941Y-3.0433
X3.5941Y-2.1732
X3.5941Y-3.0591
X3.6941Y-2.1575
X3.6941Y-3.0433
X3.7941Y-2.1732
X3.7941Y-3.0591
X3.8941Y-2.1575
X3.8941Y-3.0433
X3.9941Y-2.1732
X3.9941Y-3.0591
X4.0941Y-2.1575
X4.0941Y-3.0433
X4.1941Y-2.1732
X4.1941Y-3.0591
X4.2941Y-2.1575
X4.2941Y-3.0433
X4.3941Y-2.1732
X4.3941Y-3.0591
X4.4941Y-2.1575
X4.4941Y-3.0433
X4.5941Y-2.1732
X4.5941Y-3.0591
T2
G00X5.3124Y-2.4358
M15
G01X5.3557Y-2.4358
M16
G05
G00X5.3124Y-2.776
M15
G01X5.3557Y-2.776
M16
G05
G00X5.4829Y-2.4358
M15
G01X5.5144Y-2.4358
M16
G05
G00X5.4829Y-2.776
M15
G01X5.5144Y-2.776
M16
G05
M30
