%TF.GenerationSoftware,KiCad,Pcbnew,8.0.1*%
%TF.CreationDate,2024-04-17T00:28:09-04:00*%
%TF.ProjectId,NerdNOS,4e657264-4e4f-4532-9e6b-696361645f70,rev?*%
%TF.SameCoordinates,Original*%
%TF.FileFunction,Paste,Top*%
%TF.FilePolarity,Positive*%
%FSLAX46Y46*%
G04 Gerber Fmt 4.6, Leading zero omitted, Abs format (unit mm)*
G04 Created by KiCad (PCBNEW 8.0.1) date 2024-04-17 00:28:09*
%MOMM*%
%LPD*%
G01*
G04 APERTURE LIST*
G04 Aperture macros list*
%AMRoundRect*
0 Rectangle with rounded corners*
0 $1 Rounding radius*
0 $2 $3 $4 $5 $6 $7 $8 $9 X,Y pos of 4 corners*
0 Add a 4 corners polygon primitive as box body*
4,1,4,$2,$3,$4,$5,$6,$7,$8,$9,$2,$3,0*
0 Add four circle primitives for the rounded corners*
1,1,$1+$1,$2,$3*
1,1,$1+$1,$4,$5*
1,1,$1+$1,$6,$7*
1,1,$1+$1,$8,$9*
0 Add four rect primitives between the rounded corners*
20,1,$1+$1,$2,$3,$4,$5,0*
20,1,$1+$1,$4,$5,$6,$7,0*
20,1,$1+$1,$6,$7,$8,$9,0*
20,1,$1+$1,$8,$9,$2,$3,0*%
G04 Aperture macros list end*
%ADD10C,0.000000*%
%ADD11C,0.100000*%
%ADD12RoundRect,0.150000X0.150000X-0.512500X0.150000X0.512500X-0.150000X0.512500X-0.150000X-0.512500X0*%
%ADD13RoundRect,0.135000X0.185000X-0.135000X0.185000X0.135000X-0.185000X0.135000X-0.185000X-0.135000X0*%
%ADD14RoundRect,0.140000X-0.170000X0.140000X-0.170000X-0.140000X0.170000X-0.140000X0.170000X0.140000X0*%
%ADD15RoundRect,0.140000X0.140000X0.170000X-0.140000X0.170000X-0.140000X-0.170000X0.140000X-0.170000X0*%
%ADD16RoundRect,0.135000X-0.135000X-0.185000X0.135000X-0.185000X0.135000X0.185000X-0.135000X0.185000X0*%
%ADD17RoundRect,0.140000X-0.140000X-0.170000X0.140000X-0.170000X0.140000X0.170000X-0.140000X0.170000X0*%
%ADD18RoundRect,0.140000X0.170000X-0.140000X0.170000X0.140000X-0.170000X0.140000X-0.170000X-0.140000X0*%
%ADD19RoundRect,0.135000X-0.185000X0.135000X-0.185000X-0.135000X0.185000X-0.135000X0.185000X0.135000X0*%
%ADD20R,0.220000X0.599999*%
%ADD21RoundRect,0.150000X0.425000X-0.150000X0.425000X0.150000X-0.425000X0.150000X-0.425000X-0.150000X0*%
%ADD22RoundRect,0.075000X0.500000X-0.075000X0.500000X0.075000X-0.500000X0.075000X-0.500000X-0.075000X0*%
%ADD23O,2.100000X1.000000*%
%ADD24O,1.800000X1.000000*%
%ADD25RoundRect,0.135000X0.135000X0.185000X-0.135000X0.185000X-0.135000X-0.185000X0.135000X-0.185000X0*%
%ADD26R,1.300000X1.100000*%
%ADD27RoundRect,0.250000X-0.325000X-1.100000X0.325000X-1.100000X0.325000X1.100000X-0.325000X1.100000X0*%
%ADD28RoundRect,0.200000X-0.275000X0.200000X-0.275000X-0.200000X0.275000X-0.200000X0.275000X0.200000X0*%
%ADD29RoundRect,0.200000X0.275000X-0.200000X0.275000X0.200000X-0.275000X0.200000X-0.275000X-0.200000X0*%
%ADD30RoundRect,0.135000X-0.000010X0.295000X-0.000010X-0.295000X0.000010X-0.295000X0.000010X0.295000X0*%
%ADD31R,0.254000X0.762000*%
%ADD32RoundRect,0.150000X-0.150000X0.512500X-0.150000X-0.512500X0.150000X-0.512500X0.150000X0.512500X0*%
%ADD33RoundRect,0.250000X0.475000X-0.250000X0.475000X0.250000X-0.475000X0.250000X-0.475000X-0.250000X0*%
%ADD34RoundRect,0.225000X-0.250000X0.225000X-0.250000X-0.225000X0.250000X-0.225000X0.250000X0.225000X0*%
G04 APERTURE END LIST*
D10*
%TO.C,U5*%
G36*
X121150001Y-69489999D02*
G01*
X121150001Y-69639999D01*
X121100001Y-69689999D01*
X120750002Y-69689999D01*
X120700002Y-69639999D01*
X120700002Y-69489999D01*
X120750002Y-69440000D01*
X121100001Y-69440000D01*
X121150001Y-69489999D01*
G37*
G36*
X121150001Y-69990001D02*
G01*
X121150001Y-70140001D01*
X121100001Y-70190001D01*
X120750002Y-70190001D01*
X120700002Y-70140001D01*
X120700002Y-69990001D01*
X120750002Y-69940001D01*
X121100001Y-69940001D01*
X121150001Y-69990001D01*
G37*
G36*
X124400000Y-69489999D02*
G01*
X124400000Y-69639999D01*
X124350000Y-69689999D01*
X124000001Y-69689999D01*
X123950001Y-69639999D01*
X123950001Y-69489999D01*
X124000001Y-69440000D01*
X124350000Y-69440000D01*
X124400000Y-69489999D01*
G37*
G36*
X124400000Y-69990001D02*
G01*
X124400000Y-70140001D01*
X124350000Y-70190001D01*
X124000001Y-70190001D01*
X123950001Y-70140001D01*
X123950001Y-69990001D01*
X124000001Y-69940001D01*
X124350000Y-69940001D01*
X124400000Y-69990001D01*
G37*
G36*
X122200002Y-69400000D02*
G01*
X122200002Y-69699999D01*
X122150002Y-69749999D01*
X122061003Y-69749999D01*
X122025001Y-69765000D01*
X121665002Y-70124999D01*
X121650000Y-70160999D01*
X121650003Y-70354999D01*
X121600000Y-70404999D01*
X121400001Y-70404999D01*
X121350001Y-70355001D01*
X121350001Y-69400000D01*
X121400001Y-69350000D01*
X122150002Y-69350000D01*
X122200002Y-69400000D01*
G37*
G36*
X123750001Y-69400000D02*
G01*
X123750001Y-70354999D01*
X123700001Y-70404999D01*
X123500002Y-70404999D01*
X123449999Y-70354999D01*
X123450002Y-70160999D01*
X123435000Y-70124999D01*
X123075001Y-69765000D01*
X123038999Y-69749999D01*
X122950000Y-69749999D01*
X122900000Y-69699999D01*
X122900000Y-69400000D01*
X122950000Y-69350000D01*
X123700001Y-69350000D01*
X123750001Y-69400000D01*
G37*
G36*
X122090004Y-66910000D02*
G01*
X122090002Y-67249999D01*
X122040002Y-67299999D01*
X121670000Y-67300001D01*
X121620000Y-67350001D01*
X121620000Y-67450001D01*
X121670000Y-67499998D01*
X122040002Y-67500001D01*
X122090002Y-67550001D01*
X122090002Y-67750000D01*
X122040002Y-67800000D01*
X121670000Y-67800000D01*
X121620000Y-67850003D01*
X121620000Y-67950000D01*
X121670000Y-68000000D01*
X122040002Y-68000000D01*
X122089999Y-68050002D01*
X122090002Y-68249999D01*
X122040002Y-68299999D01*
X121670000Y-68299999D01*
X121620000Y-68349999D01*
X121620000Y-68450002D01*
X121670000Y-68499999D01*
X122040002Y-68500004D01*
X122090002Y-68550001D01*
X122090002Y-68890001D01*
X122039999Y-68940001D01*
X121200001Y-68939998D01*
X121150001Y-68890001D01*
X121150001Y-68824997D01*
X121100001Y-68775000D01*
X120750002Y-68774989D01*
X120700000Y-68725000D01*
X120700005Y-68574990D01*
X120750002Y-68525000D01*
X121250001Y-68525008D01*
X121300001Y-68475000D01*
X121300001Y-68325003D01*
X121250001Y-68275001D01*
X120750002Y-68275001D01*
X120700002Y-68225001D01*
X120700002Y-68075001D01*
X120750002Y-68025001D01*
X121250001Y-68025001D01*
X121300001Y-67974999D01*
X121300001Y-67824999D01*
X121250001Y-67775002D01*
X120750002Y-67775002D01*
X120700002Y-67724999D01*
X120700002Y-67574999D01*
X120750002Y-67525000D01*
X121250001Y-67525002D01*
X121300001Y-67475000D01*
X121300001Y-67325000D01*
X121250001Y-67275000D01*
X120750002Y-67275000D01*
X120700002Y-67225000D01*
X120700002Y-67075000D01*
X120750002Y-67025001D01*
X121100001Y-67025001D01*
X121150001Y-66975001D01*
X121150001Y-66910000D01*
X121200001Y-66860000D01*
X122040002Y-66860000D01*
X122090004Y-66910000D01*
G37*
G36*
X123950001Y-66910000D02*
G01*
X123950001Y-66975001D01*
X124000001Y-67025001D01*
X124350000Y-67025001D01*
X124400000Y-67075000D01*
X124400000Y-67225000D01*
X124350000Y-67275000D01*
X123850001Y-67275000D01*
X123800001Y-67325000D01*
X123800001Y-67475000D01*
X123850001Y-67525002D01*
X124350000Y-67525000D01*
X124400000Y-67574999D01*
X124400000Y-67724999D01*
X124350000Y-67775002D01*
X123850001Y-67775002D01*
X123800001Y-67824999D01*
X123800001Y-67975001D01*
X123850001Y-68025001D01*
X124350000Y-68025001D01*
X124400000Y-68075001D01*
X124400000Y-68225001D01*
X124350000Y-68275001D01*
X123850001Y-68275001D01*
X123800001Y-68325003D01*
X123800001Y-68475000D01*
X123850001Y-68525008D01*
X124350000Y-68525000D01*
X124399997Y-68574990D01*
X124400002Y-68725000D01*
X124350000Y-68774989D01*
X124000001Y-68775000D01*
X123950001Y-68824999D01*
X123950001Y-68890001D01*
X123900001Y-68939998D01*
X123060003Y-68940001D01*
X123010000Y-68890001D01*
X123010000Y-68550001D01*
X123060000Y-68500004D01*
X123430002Y-68499999D01*
X123480002Y-68450002D01*
X123480002Y-68349999D01*
X123430002Y-68299999D01*
X123060000Y-68299999D01*
X123010000Y-68249999D01*
X123010003Y-68050002D01*
X123060000Y-68000000D01*
X123430002Y-68000000D01*
X123480002Y-67950000D01*
X123480002Y-67850003D01*
X123430002Y-67800000D01*
X123060003Y-67800000D01*
X123010000Y-67750000D01*
X123010000Y-67550001D01*
X123060000Y-67500001D01*
X123430002Y-67499998D01*
X123480002Y-67450001D01*
X123480002Y-67350001D01*
X123430002Y-67300001D01*
X123060000Y-67300001D01*
X123010000Y-67249999D01*
X123009998Y-66910000D01*
X123060000Y-66860000D01*
X123900001Y-66860000D01*
X123950001Y-66910000D01*
G37*
%TO.C,IC1*%
D11*
X101800000Y-63300000D02*
X100540000Y-63300000D01*
X100540000Y-65600000D01*
X101800000Y-65600000D01*
X101800000Y-63300000D01*
G36*
X101800000Y-63300000D02*
G01*
X100540000Y-63300000D01*
X100540000Y-65600000D01*
X101800000Y-65600000D01*
X101800000Y-63300000D01*
G37*
X101800000Y-66800000D02*
X100540000Y-66800000D01*
X100540000Y-69100000D01*
X101800000Y-69100000D01*
X101800000Y-66800000D01*
G36*
X101800000Y-66800000D02*
G01*
X100540000Y-66800000D01*
X100540000Y-69100000D01*
X101800000Y-69100000D01*
X101800000Y-66800000D01*
G37*
X103660000Y-66800000D02*
X102540000Y-66800000D01*
X102540000Y-69100000D01*
X103660000Y-69100000D01*
X103660000Y-66800000D01*
G36*
X103660000Y-66800000D02*
G01*
X102540000Y-66800000D01*
X102540000Y-69100000D01*
X103660000Y-69100000D01*
X103660000Y-66800000D01*
G37*
X103670000Y-63300000D02*
X102550000Y-63300000D01*
X102550000Y-65600000D01*
X103670000Y-65600000D01*
X103670000Y-63300000D01*
G36*
X103670000Y-63300000D02*
G01*
X102550000Y-63300000D01*
X102550000Y-65600000D01*
X103670000Y-65600000D01*
X103670000Y-63300000D01*
G37*
X105660000Y-63300000D02*
X104400000Y-63300000D01*
X104400000Y-65600000D01*
X105660000Y-65600000D01*
X105660000Y-63300000D01*
G36*
X105660000Y-63300000D02*
G01*
X104400000Y-63300000D01*
X104400000Y-65600000D01*
X105660000Y-65600000D01*
X105660000Y-63300000D01*
G37*
X105660000Y-66800000D02*
X104400000Y-66800000D01*
X104400000Y-69100000D01*
X105660000Y-69100000D01*
X105660000Y-66800000D01*
G36*
X105660000Y-66800000D02*
G01*
X104400000Y-66800000D01*
X104400000Y-69100000D01*
X105660000Y-69100000D01*
X105660000Y-66800000D01*
G37*
X108000000Y-65500000D02*
X106600000Y-65500000D01*
X106600000Y-63540000D01*
X108000000Y-63540000D01*
X108000000Y-65500000D01*
G36*
X108000000Y-65500000D02*
G01*
X106600000Y-65500000D01*
X106600000Y-63540000D01*
X108000000Y-63540000D01*
X108000000Y-65500000D01*
G37*
X108000000Y-68860000D02*
X106600000Y-68860000D01*
X106600000Y-66900000D01*
X108000000Y-66900000D01*
X108000000Y-68860000D01*
G36*
X108000000Y-68860000D02*
G01*
X106600000Y-68860000D01*
X106600000Y-66900000D01*
X108000000Y-66900000D01*
X108000000Y-68860000D01*
G37*
%TD*%
D12*
%TO.C,U4*%
X90150001Y-63037500D03*
X91100000Y-63037500D03*
X92049999Y-63037500D03*
X92049999Y-60762500D03*
X90150001Y-60762500D03*
%TD*%
D13*
%TO.C,R7*%
X133165000Y-65550000D03*
X133165000Y-64530000D03*
%TD*%
D14*
%TO.C,C5*%
X93500000Y-62620000D03*
X93500000Y-63580000D03*
%TD*%
D15*
%TO.C,C6*%
X116080000Y-59900000D03*
X115120000Y-59900000D03*
%TD*%
D16*
%TO.C,R1*%
X82690001Y-64980000D03*
X83709999Y-64980000D03*
%TD*%
D17*
%TO.C,C7*%
X85620000Y-74200000D03*
X86580000Y-74200000D03*
%TD*%
D18*
%TO.C,C23*%
X127600000Y-69780000D03*
X127600000Y-68820000D03*
%TD*%
D15*
%TO.C,C2*%
X116080000Y-57880000D03*
X115120000Y-57880000D03*
%TD*%
D19*
%TO.C,R6*%
X133165000Y-66430000D03*
X133165000Y-67450000D03*
%TD*%
D14*
%TO.C,C20*%
X88700000Y-62620000D03*
X88700000Y-63580000D03*
%TD*%
D13*
%TO.C,R5*%
X92200000Y-72109999D03*
X92200000Y-71090001D03*
%TD*%
D20*
%TO.C,U5*%
X122050002Y-70464999D03*
X122550001Y-70464999D03*
X123050000Y-70464999D03*
%TD*%
D21*
%TO.C,J3*%
X134910000Y-69390000D03*
X134910000Y-68590000D03*
D22*
X134910000Y-67440000D03*
X134910000Y-66440000D03*
X134910000Y-65940000D03*
X134910000Y-64940000D03*
D21*
X134910000Y-62990000D03*
X134910000Y-63790000D03*
D22*
X134910000Y-64440000D03*
X134910000Y-65440000D03*
X134910000Y-66940000D03*
X134910000Y-67940000D03*
D23*
X135485000Y-70510000D03*
D24*
X139665000Y-70510000D03*
D23*
X135485000Y-61870000D03*
D24*
X139665000Y-61870000D03*
%TD*%
D17*
%TO.C,C18*%
X115120000Y-74600000D03*
X116080000Y-74600000D03*
%TD*%
D18*
%TO.C,C15*%
X93300000Y-69980000D03*
X93300000Y-69020000D03*
%TD*%
D14*
%TO.C,C11*%
X121070000Y-71700000D03*
X121070000Y-72660000D03*
%TD*%
D17*
%TO.C,C17*%
X115120000Y-73500000D03*
X116080000Y-73500000D03*
%TD*%
D25*
%TO.C,R8*%
X93510000Y-75000000D03*
X92490000Y-75000000D03*
%TD*%
D15*
%TO.C,C3*%
X116080000Y-58900000D03*
X115120000Y-58900000D03*
%TD*%
D26*
%TO.C,U2*%
X84550000Y-61750000D03*
X86850000Y-61750000D03*
X86850000Y-59850000D03*
X84550000Y-59850000D03*
%TD*%
D19*
%TO.C,R4*%
X82600000Y-66000000D03*
X82600000Y-67020000D03*
%TD*%
D15*
%TO.C,C1*%
X86600000Y-63000000D03*
X85640000Y-63000000D03*
%TD*%
D13*
%TO.C,R10*%
X122100000Y-72710000D03*
X122100000Y-71690000D03*
%TD*%
D27*
%TO.C,C13*%
X121045000Y-64390000D03*
X123995000Y-64390000D03*
%TD*%
D18*
%TO.C,C21*%
X93300000Y-67880000D03*
X93300000Y-66920000D03*
%TD*%
D13*
%TO.C,R3*%
X83800000Y-67020000D03*
X83800000Y-66000000D03*
%TD*%
D17*
%TO.C,C9*%
X85920000Y-67700000D03*
X86880000Y-67700000D03*
%TD*%
D14*
%TO.C,C4*%
X93500000Y-60220000D03*
X93500000Y-61180000D03*
%TD*%
D28*
%TO.C,R13*%
X123400000Y-71905000D03*
X123400000Y-73555000D03*
%TD*%
D29*
%TO.C,R12*%
X125270000Y-73550000D03*
X125270000Y-71900000D03*
%TD*%
D30*
%TO.C,IC1*%
X107900000Y-62265400D03*
X107420000Y-62265400D03*
X106940000Y-62265400D03*
X106460000Y-62265400D03*
X105980000Y-62265400D03*
X105500000Y-62265400D03*
X105020000Y-62265400D03*
X104540000Y-62265400D03*
X104060000Y-62265400D03*
X103580000Y-62265400D03*
X103100000Y-62265400D03*
X102620000Y-62265400D03*
X102140000Y-62265400D03*
X101660000Y-62265400D03*
X101180000Y-62265400D03*
X100700000Y-62265400D03*
X100700000Y-70134600D03*
X101180000Y-70134600D03*
X101660000Y-70134600D03*
X102140000Y-70134600D03*
X102620000Y-70134600D03*
X103100000Y-70134600D03*
X103580000Y-70134600D03*
X104060000Y-70134600D03*
X104540000Y-70134600D03*
X105020000Y-70134600D03*
X105500000Y-70134600D03*
X105980000Y-70134600D03*
X106460000Y-70134600D03*
X106940000Y-70134600D03*
X107420000Y-70134600D03*
X107900000Y-70134600D03*
%TD*%
D31*
%TO.C,U6*%
X85049811Y-72174800D03*
X85549937Y-72174800D03*
X86050063Y-72174800D03*
X86550189Y-72174800D03*
X86550189Y-69025200D03*
X86050063Y-69025200D03*
X85549937Y-69025200D03*
X85049811Y-69025200D03*
%TD*%
D15*
%TO.C,C19*%
X91880000Y-65700000D03*
X90920000Y-65700000D03*
%TD*%
D14*
%TO.C,C22*%
X88700000Y-60220000D03*
X88700000Y-61180000D03*
%TD*%
D17*
%TO.C,C14*%
X115120000Y-72500000D03*
X116080000Y-72500000D03*
%TD*%
D16*
%TO.C,R2*%
X85190000Y-56800000D03*
X86210000Y-56800000D03*
%TD*%
D17*
%TO.C,C12*%
X115120000Y-71500000D03*
X116080000Y-71500000D03*
%TD*%
D19*
%TO.C,TH1*%
X99700000Y-65590000D03*
X99700000Y-66610000D03*
%TD*%
D32*
%TO.C,U3*%
X91749999Y-67262500D03*
X90800000Y-67262500D03*
X89850001Y-67262500D03*
X89850001Y-69537500D03*
X91749999Y-69537500D03*
%TD*%
D15*
%TO.C,C8*%
X116080000Y-60900000D03*
X115120000Y-60900000D03*
%TD*%
D14*
%TO.C,C16*%
X93300000Y-71120000D03*
X93300000Y-72080000D03*
%TD*%
D33*
%TO.C,C24*%
X125980000Y-69910000D03*
X125980000Y-68010000D03*
%TD*%
D34*
%TO.C,C10*%
X119090000Y-68315000D03*
X119090000Y-69865000D03*
%TD*%
D19*
%TO.C,R11*%
X120040000Y-71680000D03*
X120040000Y-72700000D03*
%TD*%
M02*
