%TF.GenerationSoftware,KiCad,Pcbnew,8.0.1*%
%TF.CreationDate,2024-04-08T01:45:07-04:00*%
%TF.ProjectId,NerdNOS,4e657264-4e4f-4532-9e6b-696361645f70,rev?*%
%TF.SameCoordinates,Original*%
%TF.FileFunction,Copper,L2,Bot*%
%TF.FilePolarity,Positive*%
%FSLAX46Y46*%
G04 Gerber Fmt 4.6, Leading zero omitted, Abs format (unit mm)*
G04 Created by KiCad (PCBNEW 8.0.1) date 2024-04-08 01:45:07*
%MOMM*%
%LPD*%
G01*
G04 APERTURE LIST*
%TA.AperFunction,ComponentPad*%
%ADD10O,2.100000X1.000000*%
%TD*%
%TA.AperFunction,ComponentPad*%
%ADD11O,1.800000X1.000000*%
%TD*%
%TA.AperFunction,ComponentPad*%
%ADD12R,1.700000X1.700000*%
%TD*%
%TA.AperFunction,ComponentPad*%
%ADD13O,1.700000X1.700000*%
%TD*%
%TA.AperFunction,ViaPad*%
%ADD14C,0.600000*%
%TD*%
%TA.AperFunction,Conductor*%
%ADD15C,0.200000*%
%TD*%
G04 APERTURE END LIST*
D10*
%TO.P,J3,S1,SHIELD*%
%TO.N,GND*%
X137320000Y-70070000D03*
D11*
X141500000Y-70070000D03*
D10*
X137320000Y-61430000D03*
D11*
X141500000Y-61430000D03*
%TD*%
D12*
%TO.P,J2,1,Pin_1*%
%TO.N,/BM1397/VBUS*%
X116690000Y-77500000D03*
D13*
%TO.P,J2,2,Pin_2*%
%TO.N,GND*%
X114150000Y-77500000D03*
%TO.P,J2,3,Pin_3*%
%TO.N,unconnected-(J2-Pin_3-Pad3)*%
X111610000Y-77500000D03*
%TO.P,J2,4,Pin_4*%
%TO.N,unconnected-(J2-Pin_4-Pad4)*%
X109070000Y-77500000D03*
%TO.P,J2,5,Pin_5*%
%TO.N,unconnected-(J2-Pin_5-Pad5)*%
X106530000Y-77500000D03*
%TO.P,J2,6,Pin_6*%
%TO.N,unconnected-(J2-Pin_6-Pad6)*%
X103990000Y-77500000D03*
%TO.P,J2,7,Pin_7*%
%TO.N,unconnected-(J2-Pin_7-Pad7)*%
X101450000Y-77500000D03*
%TO.P,J2,8,Pin_8*%
%TO.N,/T_Display_S3/GPIO10*%
X98910000Y-77500000D03*
%TO.P,J2,9,Pin_9*%
%TO.N,/BM1397/RST*%
X96370000Y-77500000D03*
%TO.P,J2,10,Pin_10*%
%TO.N,/T_Display_S3/GPIO2*%
X93830000Y-77500000D03*
%TO.P,J2,11,Pin_11*%
%TO.N,/T_Display_S3/GPIO1*%
X91290000Y-77500000D03*
%TO.P,J2,12,Pin_12*%
%TO.N,/BM1397/3V3*%
X88750000Y-77500000D03*
%TD*%
D12*
%TO.P,J1,1,Pin_1*%
%TO.N,unconnected-(J1-Pin_1-Pad1)*%
X116690000Y-54750000D03*
D13*
%TO.P,J1,2,Pin_2*%
%TO.N,GND*%
X114150000Y-54750000D03*
%TO.P,J1,3,Pin_3*%
X111610000Y-54750000D03*
%TO.P,J1,4,Pin_4*%
%TO.N,unconnected-(J1-Pin_4-Pad4)*%
X109070000Y-54750000D03*
%TO.P,J1,5,Pin_5*%
%TO.N,unconnected-(J1-Pin_5-Pad5)*%
X106530000Y-54750000D03*
%TO.P,J1,6,Pin_6*%
%TO.N,unconnected-(J1-Pin_6-Pad6)*%
X103990000Y-54750000D03*
%TO.P,J1,7,Pin_7*%
%TO.N,unconnected-(J1-Pin_7-Pad7)*%
X101450000Y-54750000D03*
%TO.P,J1,8,Pin_8*%
%TO.N,unconnected-(J1-Pin_8-Pad8)*%
X98910000Y-54750000D03*
%TO.P,J1,9,Pin_9*%
%TO.N,unconnected-(J1-Pin_9-Pad9)*%
X96370000Y-54750000D03*
%TO.P,J1,10,Pin_10*%
%TO.N,unconnected-(J1-Pin_10-Pad10)*%
X93830000Y-54750000D03*
%TO.P,J1,11,Pin_11*%
%TO.N,GND*%
X91290000Y-54750000D03*
%TO.P,J1,12,Pin_12*%
X88750000Y-54750000D03*
%TD*%
D14*
%TO.N,/T_Display_S3/GPIO10*%
X90200000Y-73500000D03*
%TO.N,/BM1397/3V3*%
X90000000Y-74710000D03*
%TO.N,/T_Display_S3/GPIO10*%
X99400000Y-70580000D03*
%TO.N,GND*%
X99400000Y-65100000D03*
X128320000Y-65160000D03*
X104050000Y-65700000D03*
X101050000Y-64700000D03*
X127060000Y-66730000D03*
X121200000Y-73200000D03*
X128320000Y-66710000D03*
X105050000Y-66700000D03*
X105600000Y-61200000D03*
X79300000Y-73000000D03*
X81316994Y-74161855D03*
X116800000Y-57100000D03*
X104050000Y-64700000D03*
X105050000Y-63700000D03*
X125830000Y-65170000D03*
X120220000Y-69580000D03*
X101050000Y-68700000D03*
X81290000Y-56940000D03*
X102050000Y-66700000D03*
X103050000Y-63700000D03*
X90100000Y-65200000D03*
X119930000Y-70800000D03*
X117890000Y-70830000D03*
X89600000Y-71300000D03*
X103050000Y-68700000D03*
X103050000Y-64700000D03*
X83500000Y-71800000D03*
X105050000Y-68700000D03*
X125140000Y-64420000D03*
X104050000Y-63700000D03*
X104050000Y-66700000D03*
X101050000Y-65700000D03*
X88000000Y-61100000D03*
X101050000Y-63700000D03*
X93677036Y-61494171D03*
X127060000Y-63630000D03*
X115960686Y-75639314D03*
X102050000Y-64700000D03*
X102100000Y-71320000D03*
X123390000Y-74150000D03*
X86255604Y-62397971D03*
X79500000Y-66200000D03*
X92600000Y-71900000D03*
X103050000Y-66700000D03*
X105050000Y-67700000D03*
X134300000Y-65990000D03*
X93400000Y-64100000D03*
X105050000Y-64700000D03*
X93687270Y-68448758D03*
X125830000Y-63620000D03*
X102050000Y-68700000D03*
X79200000Y-63500000D03*
X91100000Y-63900000D03*
X86400000Y-61000000D03*
X128320000Y-63610000D03*
X117890000Y-69600000D03*
X127060000Y-65180000D03*
X101050000Y-67700000D03*
X102020000Y-61000000D03*
X104050000Y-68700000D03*
X121110000Y-70780000D03*
X103050000Y-67700000D03*
X104050000Y-67700000D03*
X88900000Y-64300000D03*
X125830000Y-66720000D03*
X102050000Y-67700000D03*
X120200000Y-73300000D03*
X105050000Y-65700000D03*
X134300000Y-65100000D03*
X102050000Y-63700000D03*
X101050000Y-66700000D03*
X90000000Y-66100000D03*
X102050000Y-65700000D03*
X103050000Y-65700000D03*
%TO.N,/BM1397/3V3*%
X79400000Y-75700000D03*
%TD*%
D15*
%TO.N,/T_Display_S3/GPIO10*%
X90200000Y-73500000D02*
X98310000Y-73500000D01*
X98910000Y-74100000D02*
X98910000Y-77500000D01*
X98310000Y-73500000D02*
X98910000Y-74100000D01*
X98910000Y-71070000D02*
X98910000Y-74100000D01*
%TO.N,/BM1397/3V3*%
X90000000Y-74710000D02*
X90000000Y-76250000D01*
X90000000Y-76250000D02*
X88750000Y-77500000D01*
%TO.N,/T_Display_S3/GPIO10*%
X99400000Y-70580000D02*
X98910000Y-71070000D01*
%TO.N,/BM1397/3V3*%
X79400000Y-75700000D02*
X81200000Y-77500000D01*
X81200000Y-77500000D02*
X88750000Y-77500000D01*
%TD*%
%TA.AperFunction,Conductor*%
%TO.N,GND*%
G36*
X141000855Y-51000011D02*
G01*
X141162269Y-51002274D01*
X141174390Y-51003041D01*
X141478553Y-51037312D01*
X141495992Y-51039277D01*
X141509700Y-51041606D01*
X141824366Y-51113426D01*
X141837725Y-51117273D01*
X142142392Y-51223881D01*
X142155228Y-51229199D01*
X142446025Y-51369239D01*
X142458195Y-51375965D01*
X142731486Y-51547685D01*
X142742827Y-51555732D01*
X142995173Y-51756971D01*
X143005541Y-51766237D01*
X143233762Y-51994458D01*
X143243028Y-52004826D01*
X143444267Y-52257172D01*
X143452314Y-52268513D01*
X143624034Y-52541804D01*
X143630760Y-52553974D01*
X143770798Y-52844766D01*
X143776120Y-52857613D01*
X143882724Y-53162270D01*
X143886573Y-53175633D01*
X143958393Y-53490299D01*
X143960722Y-53504007D01*
X143996957Y-53825597D01*
X143997725Y-53837743D01*
X143999988Y-53999144D01*
X144000000Y-54000882D01*
X144000000Y-77999117D01*
X143999988Y-78000855D01*
X143997725Y-78162256D01*
X143996957Y-78174402D01*
X143960722Y-78495992D01*
X143958393Y-78509700D01*
X143886573Y-78824366D01*
X143882724Y-78837729D01*
X143776120Y-79142386D01*
X143770798Y-79155233D01*
X143630760Y-79446025D01*
X143624034Y-79458195D01*
X143452314Y-79731486D01*
X143444267Y-79742827D01*
X143243028Y-79995173D01*
X143233762Y-80005541D01*
X143005541Y-80233762D01*
X142995173Y-80243028D01*
X142742827Y-80444267D01*
X142731486Y-80452314D01*
X142458195Y-80624034D01*
X142446025Y-80630760D01*
X142155233Y-80770798D01*
X142142386Y-80776120D01*
X141837729Y-80882724D01*
X141824366Y-80886573D01*
X141509700Y-80958393D01*
X141495992Y-80960722D01*
X141174402Y-80996957D01*
X141162256Y-80997725D01*
X141000856Y-80999988D01*
X140999118Y-81000000D01*
X78000882Y-81000000D01*
X77999144Y-80999988D01*
X77837743Y-80997725D01*
X77825597Y-80996957D01*
X77504007Y-80960722D01*
X77490299Y-80958393D01*
X77175633Y-80886573D01*
X77162270Y-80882724D01*
X76857613Y-80776120D01*
X76844766Y-80770798D01*
X76553974Y-80630760D01*
X76541804Y-80624034D01*
X76268513Y-80452314D01*
X76257172Y-80444267D01*
X76004826Y-80243028D01*
X75994458Y-80233762D01*
X75766237Y-80005541D01*
X75756971Y-79995173D01*
X75555732Y-79742827D01*
X75547685Y-79731486D01*
X75375965Y-79458195D01*
X75369239Y-79446025D01*
X75229201Y-79155233D01*
X75223879Y-79142386D01*
X75121743Y-78850499D01*
X75117273Y-78837725D01*
X75113426Y-78824366D01*
X75041606Y-78509700D01*
X75039277Y-78495992D01*
X75028221Y-78397870D01*
X75003041Y-78174390D01*
X75002274Y-78162269D01*
X75000012Y-78000855D01*
X75000000Y-77999117D01*
X75000000Y-75700003D01*
X78594435Y-75700003D01*
X78614630Y-75879249D01*
X78614631Y-75879254D01*
X78674211Y-76049523D01*
X78729029Y-76136765D01*
X78770184Y-76202262D01*
X78897738Y-76329816D01*
X79050478Y-76425789D01*
X79220745Y-76485368D01*
X79307669Y-76495161D01*
X79372080Y-76522226D01*
X79381465Y-76530700D01*
X80715139Y-77864374D01*
X80715149Y-77864385D01*
X80719479Y-77868715D01*
X80719480Y-77868716D01*
X80831284Y-77980520D01*
X80831286Y-77980521D01*
X80831290Y-77980524D01*
X80968209Y-78059573D01*
X80968216Y-78059577D01*
X81080019Y-78089534D01*
X81120942Y-78100500D01*
X81120943Y-78100500D01*
X87460909Y-78100500D01*
X87527948Y-78120185D01*
X87573292Y-78172097D01*
X87575965Y-78177830D01*
X87711505Y-78371401D01*
X87878599Y-78538495D01*
X87975384Y-78606265D01*
X88072165Y-78674032D01*
X88072167Y-78674033D01*
X88072170Y-78674035D01*
X88286337Y-78773903D01*
X88514592Y-78835063D01*
X88691034Y-78850500D01*
X88749999Y-78855659D01*
X88750000Y-78855659D01*
X88750001Y-78855659D01*
X88808966Y-78850500D01*
X88985408Y-78835063D01*
X89213663Y-78773903D01*
X89427830Y-78674035D01*
X89621401Y-78538495D01*
X89788495Y-78371401D01*
X89918425Y-78185842D01*
X89973002Y-78142217D01*
X90042500Y-78135023D01*
X90104855Y-78166546D01*
X90121575Y-78185842D01*
X90251500Y-78371395D01*
X90251505Y-78371401D01*
X90418599Y-78538495D01*
X90515384Y-78606265D01*
X90612165Y-78674032D01*
X90612167Y-78674033D01*
X90612170Y-78674035D01*
X90826337Y-78773903D01*
X91054592Y-78835063D01*
X91231034Y-78850500D01*
X91289999Y-78855659D01*
X91290000Y-78855659D01*
X91290001Y-78855659D01*
X91348966Y-78850500D01*
X91525408Y-78835063D01*
X91753663Y-78773903D01*
X91967830Y-78674035D01*
X92161401Y-78538495D01*
X92328495Y-78371401D01*
X92458425Y-78185842D01*
X92513002Y-78142217D01*
X92582500Y-78135023D01*
X92644855Y-78166546D01*
X92661575Y-78185842D01*
X92791500Y-78371395D01*
X92791505Y-78371401D01*
X92958599Y-78538495D01*
X93055384Y-78606265D01*
X93152165Y-78674032D01*
X93152167Y-78674033D01*
X93152170Y-78674035D01*
X93366337Y-78773903D01*
X93594592Y-78835063D01*
X93771034Y-78850500D01*
X93829999Y-78855659D01*
X93830000Y-78855659D01*
X93830001Y-78855659D01*
X93888966Y-78850500D01*
X94065408Y-78835063D01*
X94293663Y-78773903D01*
X94507830Y-78674035D01*
X94701401Y-78538495D01*
X94868495Y-78371401D01*
X94998425Y-78185842D01*
X95053002Y-78142217D01*
X95122500Y-78135023D01*
X95184855Y-78166546D01*
X95201575Y-78185842D01*
X95331500Y-78371395D01*
X95331505Y-78371401D01*
X95498599Y-78538495D01*
X95595384Y-78606265D01*
X95692165Y-78674032D01*
X95692167Y-78674033D01*
X95692170Y-78674035D01*
X95906337Y-78773903D01*
X96134592Y-78835063D01*
X96311034Y-78850500D01*
X96369999Y-78855659D01*
X96370000Y-78855659D01*
X96370001Y-78855659D01*
X96428966Y-78850500D01*
X96605408Y-78835063D01*
X96833663Y-78773903D01*
X97047830Y-78674035D01*
X97241401Y-78538495D01*
X97408495Y-78371401D01*
X97538425Y-78185842D01*
X97593002Y-78142217D01*
X97662500Y-78135023D01*
X97724855Y-78166546D01*
X97741575Y-78185842D01*
X97871500Y-78371395D01*
X97871505Y-78371401D01*
X98038599Y-78538495D01*
X98135384Y-78606265D01*
X98232165Y-78674032D01*
X98232167Y-78674033D01*
X98232170Y-78674035D01*
X98446337Y-78773903D01*
X98674592Y-78835063D01*
X98851034Y-78850500D01*
X98909999Y-78855659D01*
X98910000Y-78855659D01*
X98910001Y-78855659D01*
X98968966Y-78850500D01*
X99145408Y-78835063D01*
X99373663Y-78773903D01*
X99587830Y-78674035D01*
X99781401Y-78538495D01*
X99948495Y-78371401D01*
X100078425Y-78185842D01*
X100133002Y-78142217D01*
X100202500Y-78135023D01*
X100264855Y-78166546D01*
X100281575Y-78185842D01*
X100411500Y-78371395D01*
X100411505Y-78371401D01*
X100578599Y-78538495D01*
X100675384Y-78606265D01*
X100772165Y-78674032D01*
X100772167Y-78674033D01*
X100772170Y-78674035D01*
X100986337Y-78773903D01*
X101214592Y-78835063D01*
X101391034Y-78850500D01*
X101449999Y-78855659D01*
X101450000Y-78855659D01*
X101450001Y-78855659D01*
X101508966Y-78850500D01*
X101685408Y-78835063D01*
X101913663Y-78773903D01*
X102127830Y-78674035D01*
X102321401Y-78538495D01*
X102488495Y-78371401D01*
X102618425Y-78185842D01*
X102673002Y-78142217D01*
X102742500Y-78135023D01*
X102804855Y-78166546D01*
X102821575Y-78185842D01*
X102951500Y-78371395D01*
X102951505Y-78371401D01*
X103118599Y-78538495D01*
X103215384Y-78606265D01*
X103312165Y-78674032D01*
X103312167Y-78674033D01*
X103312170Y-78674035D01*
X103526337Y-78773903D01*
X103754592Y-78835063D01*
X103931034Y-78850500D01*
X103989999Y-78855659D01*
X103990000Y-78855659D01*
X103990001Y-78855659D01*
X104048966Y-78850500D01*
X104225408Y-78835063D01*
X104453663Y-78773903D01*
X104667830Y-78674035D01*
X104861401Y-78538495D01*
X105028495Y-78371401D01*
X105158425Y-78185842D01*
X105213002Y-78142217D01*
X105282500Y-78135023D01*
X105344855Y-78166546D01*
X105361575Y-78185842D01*
X105491500Y-78371395D01*
X105491505Y-78371401D01*
X105658599Y-78538495D01*
X105755384Y-78606265D01*
X105852165Y-78674032D01*
X105852167Y-78674033D01*
X105852170Y-78674035D01*
X106066337Y-78773903D01*
X106294592Y-78835063D01*
X106471034Y-78850500D01*
X106529999Y-78855659D01*
X106530000Y-78855659D01*
X106530001Y-78855659D01*
X106588966Y-78850500D01*
X106765408Y-78835063D01*
X106993663Y-78773903D01*
X107207830Y-78674035D01*
X107401401Y-78538495D01*
X107568495Y-78371401D01*
X107698425Y-78185842D01*
X107753002Y-78142217D01*
X107822500Y-78135023D01*
X107884855Y-78166546D01*
X107901575Y-78185842D01*
X108031500Y-78371395D01*
X108031505Y-78371401D01*
X108198599Y-78538495D01*
X108295384Y-78606265D01*
X108392165Y-78674032D01*
X108392167Y-78674033D01*
X108392170Y-78674035D01*
X108606337Y-78773903D01*
X108834592Y-78835063D01*
X109011034Y-78850500D01*
X109069999Y-78855659D01*
X109070000Y-78855659D01*
X109070001Y-78855659D01*
X109128966Y-78850500D01*
X109305408Y-78835063D01*
X109533663Y-78773903D01*
X109747830Y-78674035D01*
X109941401Y-78538495D01*
X110108495Y-78371401D01*
X110238425Y-78185842D01*
X110293002Y-78142217D01*
X110362500Y-78135023D01*
X110424855Y-78166546D01*
X110441575Y-78185842D01*
X110571500Y-78371395D01*
X110571505Y-78371401D01*
X110738599Y-78538495D01*
X110835384Y-78606265D01*
X110932165Y-78674032D01*
X110932167Y-78674033D01*
X110932170Y-78674035D01*
X111146337Y-78773903D01*
X111374592Y-78835063D01*
X111551034Y-78850500D01*
X111609999Y-78855659D01*
X111610000Y-78855659D01*
X111610001Y-78855659D01*
X111668966Y-78850500D01*
X111845408Y-78835063D01*
X112073663Y-78773903D01*
X112287830Y-78674035D01*
X112481401Y-78538495D01*
X112622026Y-78397870D01*
X115339500Y-78397870D01*
X115339501Y-78397876D01*
X115345908Y-78457483D01*
X115396202Y-78592328D01*
X115396206Y-78592335D01*
X115482452Y-78707544D01*
X115482455Y-78707547D01*
X115597664Y-78793793D01*
X115597671Y-78793797D01*
X115732517Y-78844091D01*
X115732516Y-78844091D01*
X115739444Y-78844835D01*
X115792127Y-78850500D01*
X117587872Y-78850499D01*
X117647483Y-78844091D01*
X117782331Y-78793796D01*
X117897546Y-78707546D01*
X117983796Y-78592331D01*
X118034091Y-78457483D01*
X118040500Y-78397873D01*
X118040499Y-76602128D01*
X118034091Y-76542517D01*
X118018240Y-76500019D01*
X117983797Y-76407671D01*
X117983793Y-76407664D01*
X117897547Y-76292455D01*
X117897544Y-76292452D01*
X117782335Y-76206206D01*
X117782328Y-76206202D01*
X117647482Y-76155908D01*
X117647483Y-76155908D01*
X117587883Y-76149501D01*
X117587881Y-76149500D01*
X117587873Y-76149500D01*
X117587864Y-76149500D01*
X115792129Y-76149500D01*
X115792123Y-76149501D01*
X115732516Y-76155908D01*
X115597671Y-76206202D01*
X115597664Y-76206206D01*
X115482455Y-76292452D01*
X115482452Y-76292455D01*
X115396206Y-76407664D01*
X115396202Y-76407671D01*
X115345908Y-76542517D01*
X115339501Y-76602116D01*
X115339501Y-76602123D01*
X115339500Y-76602135D01*
X115339500Y-78397870D01*
X112622026Y-78397870D01*
X112648495Y-78371401D01*
X112784035Y-78177830D01*
X112883903Y-77963663D01*
X112945063Y-77735408D01*
X112965659Y-77500000D01*
X112945063Y-77264592D01*
X112883903Y-77036337D01*
X112784035Y-76822171D01*
X112784034Y-76822169D01*
X112648494Y-76628597D01*
X112481402Y-76461506D01*
X112481395Y-76461501D01*
X112287834Y-76325967D01*
X112287830Y-76325965D01*
X112282085Y-76323286D01*
X112073663Y-76226097D01*
X112073659Y-76226096D01*
X112073655Y-76226094D01*
X111845413Y-76164938D01*
X111845403Y-76164936D01*
X111610001Y-76144341D01*
X111609999Y-76144341D01*
X111374596Y-76164936D01*
X111374586Y-76164938D01*
X111146344Y-76226094D01*
X111146335Y-76226098D01*
X110932171Y-76325964D01*
X110932169Y-76325965D01*
X110738597Y-76461505D01*
X110571505Y-76628597D01*
X110441575Y-76814158D01*
X110386998Y-76857783D01*
X110317500Y-76864977D01*
X110255145Y-76833454D01*
X110238425Y-76814158D01*
X110108494Y-76628597D01*
X109941402Y-76461506D01*
X109941395Y-76461501D01*
X109747834Y-76325967D01*
X109747830Y-76325965D01*
X109742085Y-76323286D01*
X109533663Y-76226097D01*
X109533659Y-76226096D01*
X109533655Y-76226094D01*
X109305413Y-76164938D01*
X109305403Y-76164936D01*
X109070001Y-76144341D01*
X109069999Y-76144341D01*
X108834596Y-76164936D01*
X108834586Y-76164938D01*
X108606344Y-76226094D01*
X108606335Y-76226098D01*
X108392171Y-76325964D01*
X108392169Y-76325965D01*
X108198597Y-76461505D01*
X108031505Y-76628597D01*
X107901575Y-76814158D01*
X107846998Y-76857783D01*
X107777500Y-76864977D01*
X107715145Y-76833454D01*
X107698425Y-76814158D01*
X107568494Y-76628597D01*
X107401402Y-76461506D01*
X107401395Y-76461501D01*
X107207834Y-76325967D01*
X107207830Y-76325965D01*
X107202085Y-76323286D01*
X106993663Y-76226097D01*
X106993659Y-76226096D01*
X106993655Y-76226094D01*
X106765413Y-76164938D01*
X106765403Y-76164936D01*
X106530001Y-76144341D01*
X106529999Y-76144341D01*
X106294596Y-76164936D01*
X106294586Y-76164938D01*
X106066344Y-76226094D01*
X106066335Y-76226098D01*
X105852171Y-76325964D01*
X105852169Y-76325965D01*
X105658597Y-76461505D01*
X105491505Y-76628597D01*
X105361575Y-76814158D01*
X105306998Y-76857783D01*
X105237500Y-76864977D01*
X105175145Y-76833454D01*
X105158425Y-76814158D01*
X105028494Y-76628597D01*
X104861402Y-76461506D01*
X104861395Y-76461501D01*
X104667834Y-76325967D01*
X104667830Y-76325965D01*
X104662085Y-76323286D01*
X104453663Y-76226097D01*
X104453659Y-76226096D01*
X104453655Y-76226094D01*
X104225413Y-76164938D01*
X104225403Y-76164936D01*
X103990001Y-76144341D01*
X103989999Y-76144341D01*
X103754596Y-76164936D01*
X103754586Y-76164938D01*
X103526344Y-76226094D01*
X103526335Y-76226098D01*
X103312171Y-76325964D01*
X103312169Y-76325965D01*
X103118597Y-76461505D01*
X102951505Y-76628597D01*
X102821575Y-76814158D01*
X102766998Y-76857783D01*
X102697500Y-76864977D01*
X102635145Y-76833454D01*
X102618425Y-76814158D01*
X102488494Y-76628597D01*
X102321402Y-76461506D01*
X102321395Y-76461501D01*
X102127834Y-76325967D01*
X102127830Y-76325965D01*
X102122085Y-76323286D01*
X101913663Y-76226097D01*
X101913659Y-76226096D01*
X101913655Y-76226094D01*
X101685413Y-76164938D01*
X101685403Y-76164936D01*
X101450001Y-76144341D01*
X101449999Y-76144341D01*
X101214596Y-76164936D01*
X101214586Y-76164938D01*
X100986344Y-76226094D01*
X100986335Y-76226098D01*
X100772171Y-76325964D01*
X100772169Y-76325965D01*
X100578597Y-76461505D01*
X100411505Y-76628597D01*
X100281575Y-76814158D01*
X100226998Y-76857783D01*
X100157500Y-76864977D01*
X100095145Y-76833454D01*
X100078425Y-76814158D01*
X99948494Y-76628597D01*
X99781402Y-76461506D01*
X99781395Y-76461501D01*
X99587831Y-76325965D01*
X99587826Y-76325962D01*
X99582091Y-76323288D01*
X99529653Y-76277113D01*
X99510500Y-76210908D01*
X99510500Y-71477409D01*
X99530185Y-71410370D01*
X99582989Y-71364615D01*
X99593539Y-71360369D01*
X99749522Y-71305789D01*
X99902262Y-71209816D01*
X100029816Y-71082262D01*
X100125789Y-70929522D01*
X100185368Y-70759255D01*
X100187896Y-70736818D01*
X100205565Y-70580003D01*
X100205565Y-70579996D01*
X100185369Y-70400750D01*
X100185368Y-70400745D01*
X100125788Y-70230476D01*
X100029815Y-70077737D01*
X99902262Y-69950184D01*
X99749523Y-69854211D01*
X99579254Y-69794631D01*
X99579249Y-69794630D01*
X99400004Y-69774435D01*
X99399996Y-69774435D01*
X99220750Y-69794630D01*
X99220745Y-69794631D01*
X99050476Y-69854211D01*
X98897737Y-69950184D01*
X98770184Y-70077737D01*
X98674210Y-70230478D01*
X98614630Y-70400750D01*
X98604837Y-70487667D01*
X98577770Y-70552081D01*
X98569298Y-70561464D01*
X98534237Y-70596524D01*
X98534212Y-70596552D01*
X98429477Y-70701287D01*
X98408966Y-70736816D01*
X98408965Y-70736818D01*
X98350423Y-70838215D01*
X98309499Y-70990943D01*
X98309499Y-70990945D01*
X98309499Y-71159046D01*
X98309500Y-71159059D01*
X98309500Y-72775500D01*
X98289815Y-72842539D01*
X98237011Y-72888294D01*
X98185500Y-72899500D01*
X90782412Y-72899500D01*
X90715373Y-72879815D01*
X90705097Y-72872445D01*
X90702263Y-72870185D01*
X90702262Y-72870184D01*
X90645496Y-72834515D01*
X90549523Y-72774211D01*
X90379254Y-72714631D01*
X90379249Y-72714630D01*
X90200004Y-72694435D01*
X90199996Y-72694435D01*
X90020750Y-72714630D01*
X90020745Y-72714631D01*
X89850476Y-72774211D01*
X89697737Y-72870184D01*
X89570184Y-72997737D01*
X89474211Y-73150476D01*
X89414631Y-73320745D01*
X89414630Y-73320750D01*
X89394435Y-73499996D01*
X89394435Y-73500003D01*
X89414630Y-73679249D01*
X89414631Y-73679254D01*
X89474211Y-73849523D01*
X89519686Y-73921895D01*
X89538686Y-73989131D01*
X89518318Y-74055967D01*
X89502374Y-74075548D01*
X89370183Y-74207739D01*
X89274211Y-74360476D01*
X89214631Y-74530745D01*
X89214630Y-74530750D01*
X89194435Y-74709996D01*
X89194435Y-74710003D01*
X89214630Y-74889249D01*
X89214631Y-74889254D01*
X89274211Y-75059523D01*
X89280910Y-75070184D01*
X89361057Y-75197737D01*
X89370185Y-75212263D01*
X89372445Y-75215097D01*
X89373334Y-75217275D01*
X89373889Y-75218158D01*
X89373734Y-75218255D01*
X89398855Y-75279783D01*
X89399500Y-75292412D01*
X89399500Y-75949902D01*
X89379815Y-76016941D01*
X89363181Y-76037584D01*
X89233530Y-76167234D01*
X89172207Y-76200718D01*
X89113756Y-76199327D01*
X88985413Y-76164938D01*
X88985403Y-76164936D01*
X88750001Y-76144341D01*
X88749999Y-76144341D01*
X88514596Y-76164936D01*
X88514586Y-76164938D01*
X88286344Y-76226094D01*
X88286335Y-76226098D01*
X88072171Y-76325964D01*
X88072169Y-76325965D01*
X87878597Y-76461505D01*
X87711506Y-76628596D01*
X87575965Y-76822170D01*
X87575962Y-76822175D01*
X87573289Y-76827909D01*
X87527115Y-76880346D01*
X87460909Y-76899500D01*
X81500097Y-76899500D01*
X81433058Y-76879815D01*
X81412416Y-76863181D01*
X80230700Y-75681465D01*
X80197215Y-75620142D01*
X80195163Y-75607686D01*
X80185368Y-75520745D01*
X80125789Y-75350478D01*
X80029816Y-75197738D01*
X79902262Y-75070184D01*
X79885294Y-75059522D01*
X79749523Y-74974211D01*
X79579254Y-74914631D01*
X79579249Y-74914630D01*
X79400004Y-74894435D01*
X79399996Y-74894435D01*
X79220750Y-74914630D01*
X79220745Y-74914631D01*
X79050476Y-74974211D01*
X78897737Y-75070184D01*
X78770184Y-75197737D01*
X78674211Y-75350476D01*
X78614631Y-75520745D01*
X78614630Y-75520750D01*
X78594435Y-75699996D01*
X78594435Y-75700003D01*
X75000000Y-75700003D01*
X75000000Y-68715765D01*
X137244500Y-68715765D01*
X137283719Y-68862136D01*
X137321602Y-68927750D01*
X137359485Y-68993365D01*
X137466635Y-69100515D01*
X137597865Y-69176281D01*
X137744234Y-69215500D01*
X137744236Y-69215500D01*
X137895764Y-69215500D01*
X137895766Y-69215500D01*
X138042135Y-69176281D01*
X138173365Y-69100515D01*
X138280515Y-68993365D01*
X138356281Y-68862135D01*
X138395500Y-68715766D01*
X138395500Y-68564234D01*
X138356281Y-68417865D01*
X138280515Y-68286635D01*
X138173365Y-68179485D01*
X138107750Y-68141602D01*
X138042136Y-68103719D01*
X137968950Y-68084109D01*
X137895766Y-68064500D01*
X137744234Y-68064500D01*
X137597863Y-68103719D01*
X137466635Y-68179485D01*
X137466632Y-68179487D01*
X137359487Y-68286632D01*
X137359485Y-68286635D01*
X137283719Y-68417863D01*
X137244500Y-68564234D01*
X137244500Y-68715765D01*
X75000000Y-68715765D01*
X75000000Y-62935765D01*
X137244500Y-62935765D01*
X137283719Y-63082136D01*
X137321602Y-63147750D01*
X137359485Y-63213365D01*
X137466635Y-63320515D01*
X137597865Y-63396281D01*
X137744234Y-63435500D01*
X137744236Y-63435500D01*
X137895764Y-63435500D01*
X137895766Y-63435500D01*
X138042135Y-63396281D01*
X138173365Y-63320515D01*
X138280515Y-63213365D01*
X138356281Y-63082135D01*
X138395500Y-62935766D01*
X138395500Y-62784234D01*
X138356281Y-62637865D01*
X138280515Y-62506635D01*
X138173365Y-62399485D01*
X138107750Y-62361602D01*
X138042136Y-62323719D01*
X137968950Y-62304109D01*
X137895766Y-62284500D01*
X137744234Y-62284500D01*
X137597863Y-62323719D01*
X137466635Y-62399485D01*
X137466632Y-62399487D01*
X137359487Y-62506632D01*
X137359485Y-62506635D01*
X137283719Y-62637863D01*
X137244500Y-62784234D01*
X137244500Y-62935765D01*
X75000000Y-62935765D01*
X75000000Y-54750000D01*
X92474341Y-54750000D01*
X92494936Y-54985403D01*
X92494938Y-54985413D01*
X92556094Y-55213655D01*
X92556096Y-55213659D01*
X92556097Y-55213663D01*
X92560000Y-55222032D01*
X92655965Y-55427830D01*
X92655967Y-55427834D01*
X92764281Y-55582521D01*
X92791505Y-55621401D01*
X92958599Y-55788495D01*
X93055384Y-55856265D01*
X93152165Y-55924032D01*
X93152167Y-55924033D01*
X93152170Y-55924035D01*
X93366337Y-56023903D01*
X93594592Y-56085063D01*
X93771034Y-56100500D01*
X93829999Y-56105659D01*
X93830000Y-56105659D01*
X93830001Y-56105659D01*
X93888966Y-56100500D01*
X94065408Y-56085063D01*
X94293663Y-56023903D01*
X94507830Y-55924035D01*
X94701401Y-55788495D01*
X94868495Y-55621401D01*
X94998425Y-55435842D01*
X95053002Y-55392217D01*
X95122500Y-55385023D01*
X95184855Y-55416546D01*
X95201575Y-55435842D01*
X95331500Y-55621395D01*
X95331505Y-55621401D01*
X95498599Y-55788495D01*
X95595384Y-55856265D01*
X95692165Y-55924032D01*
X95692167Y-55924033D01*
X95692170Y-55924035D01*
X95906337Y-56023903D01*
X96134592Y-56085063D01*
X96311034Y-56100500D01*
X96369999Y-56105659D01*
X96370000Y-56105659D01*
X96370001Y-56105659D01*
X96428966Y-56100500D01*
X96605408Y-56085063D01*
X96833663Y-56023903D01*
X97047830Y-55924035D01*
X97241401Y-55788495D01*
X97408495Y-55621401D01*
X97538425Y-55435842D01*
X97593002Y-55392217D01*
X97662500Y-55385023D01*
X97724855Y-55416546D01*
X97741575Y-55435842D01*
X97871500Y-55621395D01*
X97871505Y-55621401D01*
X98038599Y-55788495D01*
X98135384Y-55856265D01*
X98232165Y-55924032D01*
X98232167Y-55924033D01*
X98232170Y-55924035D01*
X98446337Y-56023903D01*
X98674592Y-56085063D01*
X98851034Y-56100500D01*
X98909999Y-56105659D01*
X98910000Y-56105659D01*
X98910001Y-56105659D01*
X98968966Y-56100500D01*
X99145408Y-56085063D01*
X99373663Y-56023903D01*
X99587830Y-55924035D01*
X99781401Y-55788495D01*
X99948495Y-55621401D01*
X100078425Y-55435842D01*
X100133002Y-55392217D01*
X100202500Y-55385023D01*
X100264855Y-55416546D01*
X100281575Y-55435842D01*
X100411500Y-55621395D01*
X100411505Y-55621401D01*
X100578599Y-55788495D01*
X100675384Y-55856265D01*
X100772165Y-55924032D01*
X100772167Y-55924033D01*
X100772170Y-55924035D01*
X100986337Y-56023903D01*
X101214592Y-56085063D01*
X101391034Y-56100500D01*
X101449999Y-56105659D01*
X101450000Y-56105659D01*
X101450001Y-56105659D01*
X101508966Y-56100500D01*
X101685408Y-56085063D01*
X101913663Y-56023903D01*
X102127830Y-55924035D01*
X102321401Y-55788495D01*
X102488495Y-55621401D01*
X102618425Y-55435842D01*
X102673002Y-55392217D01*
X102742500Y-55385023D01*
X102804855Y-55416546D01*
X102821575Y-55435842D01*
X102951500Y-55621395D01*
X102951505Y-55621401D01*
X103118599Y-55788495D01*
X103215384Y-55856265D01*
X103312165Y-55924032D01*
X103312167Y-55924033D01*
X103312170Y-55924035D01*
X103526337Y-56023903D01*
X103754592Y-56085063D01*
X103931034Y-56100500D01*
X103989999Y-56105659D01*
X103990000Y-56105659D01*
X103990001Y-56105659D01*
X104048966Y-56100500D01*
X104225408Y-56085063D01*
X104453663Y-56023903D01*
X104667830Y-55924035D01*
X104861401Y-55788495D01*
X105028495Y-55621401D01*
X105158425Y-55435842D01*
X105213002Y-55392217D01*
X105282500Y-55385023D01*
X105344855Y-55416546D01*
X105361575Y-55435842D01*
X105491500Y-55621395D01*
X105491505Y-55621401D01*
X105658599Y-55788495D01*
X105755384Y-55856265D01*
X105852165Y-55924032D01*
X105852167Y-55924033D01*
X105852170Y-55924035D01*
X106066337Y-56023903D01*
X106294592Y-56085063D01*
X106471034Y-56100500D01*
X106529999Y-56105659D01*
X106530000Y-56105659D01*
X106530001Y-56105659D01*
X106588966Y-56100500D01*
X106765408Y-56085063D01*
X106993663Y-56023903D01*
X107207830Y-55924035D01*
X107401401Y-55788495D01*
X107568495Y-55621401D01*
X107698425Y-55435842D01*
X107753002Y-55392217D01*
X107822500Y-55385023D01*
X107884855Y-55416546D01*
X107901575Y-55435842D01*
X108031500Y-55621395D01*
X108031505Y-55621401D01*
X108198599Y-55788495D01*
X108295384Y-55856265D01*
X108392165Y-55924032D01*
X108392167Y-55924033D01*
X108392170Y-55924035D01*
X108606337Y-56023903D01*
X108834592Y-56085063D01*
X109011034Y-56100500D01*
X109069999Y-56105659D01*
X109070000Y-56105659D01*
X109070001Y-56105659D01*
X109128966Y-56100500D01*
X109305408Y-56085063D01*
X109533663Y-56023903D01*
X109747830Y-55924035D01*
X109941401Y-55788495D01*
X110082026Y-55647870D01*
X115339500Y-55647870D01*
X115339501Y-55647876D01*
X115345908Y-55707483D01*
X115396202Y-55842328D01*
X115396206Y-55842335D01*
X115482452Y-55957544D01*
X115482455Y-55957547D01*
X115597664Y-56043793D01*
X115597671Y-56043797D01*
X115732517Y-56094091D01*
X115732516Y-56094091D01*
X115739444Y-56094835D01*
X115792127Y-56100500D01*
X117587872Y-56100499D01*
X117647483Y-56094091D01*
X117782331Y-56043796D01*
X117897546Y-55957546D01*
X117983796Y-55842331D01*
X118034091Y-55707483D01*
X118040500Y-55647873D01*
X118040499Y-53852128D01*
X118034091Y-53792517D01*
X117983796Y-53657669D01*
X117983795Y-53657668D01*
X117983793Y-53657664D01*
X117897547Y-53542455D01*
X117897544Y-53542452D01*
X117782335Y-53456206D01*
X117782328Y-53456202D01*
X117647482Y-53405908D01*
X117647483Y-53405908D01*
X117587883Y-53399501D01*
X117587881Y-53399500D01*
X117587873Y-53399500D01*
X117587864Y-53399500D01*
X115792129Y-53399500D01*
X115792123Y-53399501D01*
X115732516Y-53405908D01*
X115597671Y-53456202D01*
X115597664Y-53456206D01*
X115482455Y-53542452D01*
X115482452Y-53542455D01*
X115396206Y-53657664D01*
X115396202Y-53657671D01*
X115345908Y-53792517D01*
X115339501Y-53852116D01*
X115339501Y-53852123D01*
X115339500Y-53852135D01*
X115339500Y-55647870D01*
X110082026Y-55647870D01*
X110108495Y-55621401D01*
X110244035Y-55427830D01*
X110343903Y-55213663D01*
X110405063Y-54985408D01*
X110425659Y-54750000D01*
X110405063Y-54514592D01*
X110343903Y-54286337D01*
X110244035Y-54072171D01*
X110238425Y-54064158D01*
X110108494Y-53878597D01*
X109941402Y-53711506D01*
X109941395Y-53711501D01*
X109747834Y-53575967D01*
X109747830Y-53575965D01*
X109747828Y-53575964D01*
X109533663Y-53476097D01*
X109533659Y-53476096D01*
X109533655Y-53476094D01*
X109305413Y-53414938D01*
X109305403Y-53414936D01*
X109070001Y-53394341D01*
X109069999Y-53394341D01*
X108834596Y-53414936D01*
X108834586Y-53414938D01*
X108606344Y-53476094D01*
X108606335Y-53476098D01*
X108392171Y-53575964D01*
X108392169Y-53575965D01*
X108198597Y-53711505D01*
X108031505Y-53878597D01*
X107901575Y-54064158D01*
X107846998Y-54107783D01*
X107777500Y-54114977D01*
X107715145Y-54083454D01*
X107698425Y-54064158D01*
X107568494Y-53878597D01*
X107401402Y-53711506D01*
X107401395Y-53711501D01*
X107207834Y-53575967D01*
X107207830Y-53575965D01*
X107207828Y-53575964D01*
X106993663Y-53476097D01*
X106993659Y-53476096D01*
X106993655Y-53476094D01*
X106765413Y-53414938D01*
X106765403Y-53414936D01*
X106530001Y-53394341D01*
X106529999Y-53394341D01*
X106294596Y-53414936D01*
X106294586Y-53414938D01*
X106066344Y-53476094D01*
X106066335Y-53476098D01*
X105852171Y-53575964D01*
X105852169Y-53575965D01*
X105658597Y-53711505D01*
X105491505Y-53878597D01*
X105361575Y-54064158D01*
X105306998Y-54107783D01*
X105237500Y-54114977D01*
X105175145Y-54083454D01*
X105158425Y-54064158D01*
X105028494Y-53878597D01*
X104861402Y-53711506D01*
X104861395Y-53711501D01*
X104667834Y-53575967D01*
X104667830Y-53575965D01*
X104667828Y-53575964D01*
X104453663Y-53476097D01*
X104453659Y-53476096D01*
X104453655Y-53476094D01*
X104225413Y-53414938D01*
X104225403Y-53414936D01*
X103990001Y-53394341D01*
X103989999Y-53394341D01*
X103754596Y-53414936D01*
X103754586Y-53414938D01*
X103526344Y-53476094D01*
X103526335Y-53476098D01*
X103312171Y-53575964D01*
X103312169Y-53575965D01*
X103118597Y-53711505D01*
X102951505Y-53878597D01*
X102821575Y-54064158D01*
X102766998Y-54107783D01*
X102697500Y-54114977D01*
X102635145Y-54083454D01*
X102618425Y-54064158D01*
X102488494Y-53878597D01*
X102321402Y-53711506D01*
X102321395Y-53711501D01*
X102127834Y-53575967D01*
X102127830Y-53575965D01*
X102127828Y-53575964D01*
X101913663Y-53476097D01*
X101913659Y-53476096D01*
X101913655Y-53476094D01*
X101685413Y-53414938D01*
X101685403Y-53414936D01*
X101450001Y-53394341D01*
X101449999Y-53394341D01*
X101214596Y-53414936D01*
X101214586Y-53414938D01*
X100986344Y-53476094D01*
X100986335Y-53476098D01*
X100772171Y-53575964D01*
X100772169Y-53575965D01*
X100578597Y-53711505D01*
X100411505Y-53878597D01*
X100281575Y-54064158D01*
X100226998Y-54107783D01*
X100157500Y-54114977D01*
X100095145Y-54083454D01*
X100078425Y-54064158D01*
X99948494Y-53878597D01*
X99781402Y-53711506D01*
X99781395Y-53711501D01*
X99587834Y-53575967D01*
X99587830Y-53575965D01*
X99587828Y-53575964D01*
X99373663Y-53476097D01*
X99373659Y-53476096D01*
X99373655Y-53476094D01*
X99145413Y-53414938D01*
X99145403Y-53414936D01*
X98910001Y-53394341D01*
X98909999Y-53394341D01*
X98674596Y-53414936D01*
X98674586Y-53414938D01*
X98446344Y-53476094D01*
X98446335Y-53476098D01*
X98232171Y-53575964D01*
X98232169Y-53575965D01*
X98038597Y-53711505D01*
X97871505Y-53878597D01*
X97741575Y-54064158D01*
X97686998Y-54107783D01*
X97617500Y-54114977D01*
X97555145Y-54083454D01*
X97538425Y-54064158D01*
X97408494Y-53878597D01*
X97241402Y-53711506D01*
X97241395Y-53711501D01*
X97047834Y-53575967D01*
X97047830Y-53575965D01*
X97047828Y-53575964D01*
X96833663Y-53476097D01*
X96833659Y-53476096D01*
X96833655Y-53476094D01*
X96605413Y-53414938D01*
X96605403Y-53414936D01*
X96370001Y-53394341D01*
X96369999Y-53394341D01*
X96134596Y-53414936D01*
X96134586Y-53414938D01*
X95906344Y-53476094D01*
X95906335Y-53476098D01*
X95692171Y-53575964D01*
X95692169Y-53575965D01*
X95498597Y-53711505D01*
X95331505Y-53878597D01*
X95201575Y-54064158D01*
X95146998Y-54107783D01*
X95077500Y-54114977D01*
X95015145Y-54083454D01*
X94998425Y-54064158D01*
X94868494Y-53878597D01*
X94701402Y-53711506D01*
X94701395Y-53711501D01*
X94507834Y-53575967D01*
X94507830Y-53575965D01*
X94507828Y-53575964D01*
X94293663Y-53476097D01*
X94293659Y-53476096D01*
X94293655Y-53476094D01*
X94065413Y-53414938D01*
X94065403Y-53414936D01*
X93830001Y-53394341D01*
X93829999Y-53394341D01*
X93594596Y-53414936D01*
X93594586Y-53414938D01*
X93366344Y-53476094D01*
X93366335Y-53476098D01*
X93152171Y-53575964D01*
X93152169Y-53575965D01*
X92958597Y-53711505D01*
X92791505Y-53878597D01*
X92655965Y-54072169D01*
X92655964Y-54072171D01*
X92556098Y-54286335D01*
X92556094Y-54286344D01*
X92494938Y-54514586D01*
X92494936Y-54514596D01*
X92474341Y-54749999D01*
X92474341Y-54750000D01*
X75000000Y-54750000D01*
X75000000Y-54000882D01*
X75000012Y-53999144D01*
X75002274Y-53837729D01*
X75003041Y-53825610D01*
X75039277Y-53504005D01*
X75041606Y-53490299D01*
X75113426Y-53175633D01*
X75117272Y-53162279D01*
X75223883Y-52857601D01*
X75229196Y-52844777D01*
X75369243Y-52553965D01*
X75375959Y-52541813D01*
X75547693Y-52268501D01*
X75555723Y-52257183D01*
X75756979Y-52004816D01*
X75766228Y-51994467D01*
X75994467Y-51766228D01*
X76004816Y-51756979D01*
X76257183Y-51555723D01*
X76268501Y-51547693D01*
X76541813Y-51375959D01*
X76553965Y-51369243D01*
X76844777Y-51229196D01*
X76857601Y-51223883D01*
X77162279Y-51117272D01*
X77175627Y-51113427D01*
X77393293Y-51063746D01*
X77490299Y-51041606D01*
X77504005Y-51039277D01*
X77825610Y-51003041D01*
X77837729Y-51002274D01*
X77999144Y-51000011D01*
X78000882Y-51000000D01*
X140999118Y-51000000D01*
X141000855Y-51000011D01*
G37*
%TD.AperFunction*%
%TD*%
M02*
