%TF.GenerationSoftware,KiCad,Pcbnew,8.0.1*%
%TF.CreationDate,2024-04-17T00:28:09-04:00*%
%TF.ProjectId,NerdNOS,4e657264-4e4f-4532-9e6b-696361645f70,rev?*%
%TF.SameCoordinates,Original*%
%TF.FileFunction,Copper,L1,Top*%
%TF.FilePolarity,Positive*%
%FSLAX46Y46*%
G04 Gerber Fmt 4.6, Leading zero omitted, Abs format (unit mm)*
G04 Created by KiCad (PCBNEW 8.0.1) date 2024-04-17 00:28:09*
%MOMM*%
%LPD*%
G01*
G04 APERTURE LIST*
G04 Aperture macros list*
%AMRoundRect*
0 Rectangle with rounded corners*
0 $1 Rounding radius*
0 $2 $3 $4 $5 $6 $7 $8 $9 X,Y pos of 4 corners*
0 Add a 4 corners polygon primitive as box body*
4,1,4,$2,$3,$4,$5,$6,$7,$8,$9,$2,$3,0*
0 Add four circle primitives for the rounded corners*
1,1,$1+$1,$2,$3*
1,1,$1+$1,$4,$5*
1,1,$1+$1,$6,$7*
1,1,$1+$1,$8,$9*
0 Add four rect primitives between the rounded corners*
20,1,$1+$1,$2,$3,$4,$5,0*
20,1,$1+$1,$4,$5,$6,$7,0*
20,1,$1+$1,$6,$7,$8,$9,0*
20,1,$1+$1,$8,$9,$2,$3,0*%
%AMFreePoly0*
4,1,15,0.487499,0.487500,0.487499,0.321501,0.516499,0.250500,0.805500,-0.038499,0.876498,-0.067500,0.922500,-0.067498,1.022500,-0.167500,1.022500,-0.487499,0.922500,-0.587499,-0.487500,-0.587499,-0.587500,-0.487499,-0.587500,0.487500,-0.487500,0.587500,0.387500,0.587502,0.487499,0.487500,0.487499,0.487500,$1*%
%AMFreePoly1*
4,1,15,0.487500,0.587500,0.587500,0.487500,0.587500,-0.487499,0.487500,-0.587499,-0.922500,-0.587499,-1.022500,-0.487499,-1.022500,-0.167500,-0.922500,-0.067498,-0.876498,-0.067500,-0.805500,-0.038499,-0.516499,0.250500,-0.487499,0.321501,-0.487499,0.487500,-0.387500,0.587502,0.487500,0.587500,0.487500,0.587500,$1*%
G04 Aperture macros list end*
%TA.AperFunction,ComponentPad*%
%ADD10R,1.700000X1.700000*%
%TD*%
%TA.AperFunction,ComponentPad*%
%ADD11O,1.700000X1.700000*%
%TD*%
%TA.AperFunction,SMDPad,CuDef*%
%ADD12RoundRect,0.150000X0.150000X-0.512500X0.150000X0.512500X-0.150000X0.512500X-0.150000X-0.512500X0*%
%TD*%
%TA.AperFunction,SMDPad,CuDef*%
%ADD13RoundRect,0.135000X0.185000X-0.135000X0.185000X0.135000X-0.185000X0.135000X-0.185000X-0.135000X0*%
%TD*%
%TA.AperFunction,SMDPad,CuDef*%
%ADD14RoundRect,0.140000X-0.170000X0.140000X-0.170000X-0.140000X0.170000X-0.140000X0.170000X0.140000X0*%
%TD*%
%TA.AperFunction,SMDPad,CuDef*%
%ADD15RoundRect,0.140000X0.140000X0.170000X-0.140000X0.170000X-0.140000X-0.170000X0.140000X-0.170000X0*%
%TD*%
%TA.AperFunction,SMDPad,CuDef*%
%ADD16RoundRect,0.135000X-0.135000X-0.185000X0.135000X-0.185000X0.135000X0.185000X-0.135000X0.185000X0*%
%TD*%
%TA.AperFunction,SMDPad,CuDef*%
%ADD17RoundRect,0.140000X-0.140000X-0.170000X0.140000X-0.170000X0.140000X0.170000X-0.140000X0.170000X0*%
%TD*%
%TA.AperFunction,SMDPad,CuDef*%
%ADD18RoundRect,0.140000X0.170000X-0.140000X0.170000X0.140000X-0.170000X0.140000X-0.170000X-0.140000X0*%
%TD*%
%TA.AperFunction,SMDPad,CuDef*%
%ADD19RoundRect,0.135000X-0.185000X0.135000X-0.185000X-0.135000X0.185000X-0.135000X0.185000X0.135000X0*%
%TD*%
%TA.AperFunction,SMDPad,CuDef*%
%ADD20FreePoly0,180.000000*%
%TD*%
%TA.AperFunction,SMDPad,CuDef*%
%ADD21R,1.500000X2.300000*%
%TD*%
%TA.AperFunction,SMDPad,CuDef*%
%ADD22FreePoly1,180.000000*%
%TD*%
%TA.AperFunction,SMDPad,CuDef*%
%ADD23R,0.220000X0.599999*%
%TD*%
%TA.AperFunction,SMDPad,CuDef*%
%ADD24RoundRect,0.150000X0.425000X-0.150000X0.425000X0.150000X-0.425000X0.150000X-0.425000X-0.150000X0*%
%TD*%
%TA.AperFunction,SMDPad,CuDef*%
%ADD25RoundRect,0.075000X0.500000X-0.075000X0.500000X0.075000X-0.500000X0.075000X-0.500000X-0.075000X0*%
%TD*%
%TA.AperFunction,ComponentPad*%
%ADD26O,2.100000X1.000000*%
%TD*%
%TA.AperFunction,ComponentPad*%
%ADD27O,1.800000X1.000000*%
%TD*%
%TA.AperFunction,SMDPad,CuDef*%
%ADD28RoundRect,0.135000X0.135000X0.185000X-0.135000X0.185000X-0.135000X-0.185000X0.135000X-0.185000X0*%
%TD*%
%TA.AperFunction,SMDPad,CuDef*%
%ADD29R,1.300000X1.100000*%
%TD*%
%TA.AperFunction,SMDPad,CuDef*%
%ADD30C,1.000000*%
%TD*%
%TA.AperFunction,SMDPad,CuDef*%
%ADD31RoundRect,0.250000X-0.325000X-1.100000X0.325000X-1.100000X0.325000X1.100000X-0.325000X1.100000X0*%
%TD*%
%TA.AperFunction,SMDPad,CuDef*%
%ADD32RoundRect,0.200000X-0.275000X0.200000X-0.275000X-0.200000X0.275000X-0.200000X0.275000X0.200000X0*%
%TD*%
%TA.AperFunction,SMDPad,CuDef*%
%ADD33RoundRect,0.200000X0.275000X-0.200000X0.275000X0.200000X-0.275000X0.200000X-0.275000X-0.200000X0*%
%TD*%
%TA.AperFunction,SMDPad,CuDef*%
%ADD34RoundRect,0.135000X-0.000010X0.295000X-0.000010X-0.295000X0.000010X-0.295000X0.000010X0.295000X0*%
%TD*%
%TA.AperFunction,SMDPad,CuDef*%
%ADD35R,1.850000X6.300000*%
%TD*%
%TA.AperFunction,SMDPad,CuDef*%
%ADD36R,5.550000X6.300000*%
%TD*%
%TA.AperFunction,SMDPad,CuDef*%
%ADD37R,0.254000X0.762000*%
%TD*%
%TA.AperFunction,SMDPad,CuDef*%
%ADD38RoundRect,0.150000X-0.150000X0.512500X-0.150000X-0.512500X0.150000X-0.512500X0.150000X0.512500X0*%
%TD*%
%TA.AperFunction,SMDPad,CuDef*%
%ADD39RoundRect,0.250000X0.475000X-0.250000X0.475000X0.250000X-0.475000X0.250000X-0.475000X-0.250000X0*%
%TD*%
%TA.AperFunction,SMDPad,CuDef*%
%ADD40RoundRect,0.225000X-0.250000X0.225000X-0.250000X-0.225000X0.250000X-0.225000X0.250000X0.225000X0*%
%TD*%
%TA.AperFunction,ViaPad*%
%ADD41C,0.600000*%
%TD*%
%TA.AperFunction,Conductor*%
%ADD42C,0.200000*%
%TD*%
%TA.AperFunction,Conductor*%
%ADD43C,0.600000*%
%TD*%
G04 APERTURE END LIST*
D10*
%TO.P,J2,1,Pin_1*%
%TO.N,/BM1397/VBUS*%
X116690000Y-77700000D03*
D11*
%TO.P,J2,2,Pin_2*%
%TO.N,GND*%
X114150000Y-77300000D03*
%TO.P,J2,3,Pin_3*%
%TO.N,unconnected-(J2-Pin_3-Pad3)*%
X111610000Y-77700000D03*
%TO.P,J2,4,Pin_4*%
%TO.N,unconnected-(J2-Pin_4-Pad4)*%
X109070000Y-77300000D03*
%TO.P,J2,5,Pin_5*%
%TO.N,unconnected-(J2-Pin_5-Pad5)*%
X106530000Y-77700000D03*
%TO.P,J2,6,Pin_6*%
%TO.N,unconnected-(J2-Pin_6-Pad6)*%
X103990000Y-77300000D03*
%TO.P,J2,7,Pin_7*%
%TO.N,unconnected-(J2-Pin_7-Pad7)*%
X101450000Y-77700000D03*
%TO.P,J2,8,Pin_8*%
%TO.N,/T_Display_S3/GPIO10*%
X98910000Y-77300000D03*
%TO.P,J2,9,Pin_9*%
%TO.N,/BM1397/RST*%
X96370000Y-77700000D03*
%TO.P,J2,10,Pin_10*%
%TO.N,/T_Display_S3/GPIO2*%
X93830000Y-77300000D03*
%TO.P,J2,11,Pin_11*%
%TO.N,/T_Display_S3/GPIO1*%
X91290000Y-77700000D03*
%TO.P,J2,12,Pin_12*%
%TO.N,/BM1397/3V3*%
X88750000Y-77300000D03*
%TD*%
D10*
%TO.P,J1,1,Pin_1*%
%TO.N,unconnected-(J1-Pin_1-Pad1)*%
X116690000Y-55200000D03*
D11*
%TO.P,J1,2,Pin_2*%
%TO.N,GND*%
X114150000Y-54800000D03*
%TO.P,J1,3,Pin_3*%
X111610000Y-55200000D03*
%TO.P,J1,4,Pin_4*%
%TO.N,unconnected-(J1-Pin_4-Pad4)*%
X109070000Y-54800000D03*
%TO.P,J1,5,Pin_5*%
%TO.N,unconnected-(J1-Pin_5-Pad5)*%
X106530000Y-55200000D03*
%TO.P,J1,6,Pin_6*%
%TO.N,unconnected-(J1-Pin_6-Pad6)*%
X103990000Y-54800000D03*
%TO.P,J1,7,Pin_7*%
%TO.N,unconnected-(J1-Pin_7-Pad7)*%
X101450000Y-55200000D03*
%TO.P,J1,8,Pin_8*%
%TO.N,unconnected-(J1-Pin_8-Pad8)*%
X98910000Y-54800000D03*
%TO.P,J1,9,Pin_9*%
%TO.N,unconnected-(J1-Pin_9-Pad9)*%
X96370000Y-55200000D03*
%TO.P,J1,10,Pin_10*%
%TO.N,unconnected-(J1-Pin_10-Pad10)*%
X93830000Y-54800000D03*
%TO.P,J1,11,Pin_11*%
%TO.N,GND*%
X91290000Y-55200000D03*
%TO.P,J1,12,Pin_12*%
X88750000Y-54800000D03*
%TD*%
D12*
%TO.P,U4,1,VIN*%
%TO.N,/BM1397/VBUS*%
X90150001Y-63037500D03*
%TO.P,U4,2,GND*%
%TO.N,GND*%
X91100000Y-63037500D03*
%TO.P,U4,3,EN*%
%TO.N,/BM1397/VBUS*%
X92049999Y-63037500D03*
%TO.P,U4,4,PG*%
%TO.N,unconnected-(U4-PG-Pad4)*%
X92049999Y-60762500D03*
%TO.P,U4,5,VOUT*%
%TO.N,/BM1397/0V8*%
X90150001Y-60762500D03*
%TD*%
D13*
%TO.P,R7,1*%
%TO.N,GND*%
X133165000Y-65550000D03*
%TO.P,R7,2*%
%TO.N,Net-(J3-CC2)*%
X133165000Y-64530000D03*
%TD*%
D14*
%TO.P,C5,1*%
%TO.N,/BM1397/1V8_O*%
X93500000Y-62620000D03*
%TO.P,C5,2*%
%TO.N,GND*%
X93500000Y-63580000D03*
%TD*%
D15*
%TO.P,C6,1*%
%TO.N,Net-(IC1-VDD2_0)*%
X116080000Y-59900000D03*
%TO.P,C6,2*%
%TO.N,Net-(IC1-VDD3_0)*%
X115120000Y-59900000D03*
%TD*%
D16*
%TO.P,R1,1*%
%TO.N,GND*%
X82690001Y-64980000D03*
%TO.P,R1,2*%
%TO.N,/BM1397/RST_N*%
X83709999Y-64980000D03*
%TD*%
D17*
%TO.P,C7,1*%
%TO.N,GND*%
X85620000Y-74200000D03*
%TO.P,C7,2*%
%TO.N,/BM1397/3V3*%
X86580000Y-74200000D03*
%TD*%
D18*
%TO.P,C23,1*%
%TO.N,/BM1397/VBUS*%
X127600000Y-69780000D03*
%TO.P,C23,2*%
%TO.N,GND*%
X127600000Y-68820000D03*
%TD*%
D15*
%TO.P,C2,1*%
%TO.N,GND*%
X116080000Y-57880000D03*
%TO.P,C2,2*%
%TO.N,Net-(IC1-VDD1_0)*%
X115120000Y-57880000D03*
%TD*%
D19*
%TO.P,R6,1*%
%TO.N,GND*%
X133165000Y-66430000D03*
%TO.P,R6,2*%
%TO.N,Net-(J3-CC1)*%
X133165000Y-67450000D03*
%TD*%
D14*
%TO.P,C20,1*%
%TO.N,/BM1397/VBUS*%
X88700000Y-62620000D03*
%TO.P,C20,2*%
%TO.N,GND*%
X88700000Y-63580000D03*
%TD*%
D13*
%TO.P,R5,1*%
%TO.N,Net-(IC1-RI)*%
X92200000Y-72109999D03*
%TO.P,R5,2*%
%TO.N,/BM1397/1V8*%
X92200000Y-71090001D03*
%TD*%
D20*
%TO.P,U5,1,VIN*%
%TO.N,/BM1397/VBUS*%
X123862500Y-69877499D03*
D21*
%TO.P,U5,2,SW*%
%TO.N,unconnected-(U5-SW-Pad2)*%
X123700001Y-67890000D03*
%TO.P,U5,3,VOUT*%
%TO.N,/BM1397/VDD*%
X121400001Y-67890000D03*
D22*
%TO.P,U5,4,PGND*%
%TO.N,GND*%
X121250001Y-69865000D03*
D23*
%TO.P,U5,5,PG*%
%TO.N,unconnected-(U5-PG-Pad5)*%
X122050002Y-70464999D03*
%TO.P,U5,6,EN*%
%TO.N,Net-(U5-EN)*%
X122550001Y-70464999D03*
%TO.P,U5,7,FB*%
%TO.N,Net-(U5-FB)*%
X123050000Y-70464999D03*
%TD*%
D24*
%TO.P,J3,A1,GND*%
%TO.N,GND*%
X134910000Y-69390000D03*
%TO.P,J3,A4,VBUS*%
%TO.N,/BM1397/VBUS*%
X134910000Y-68590000D03*
D25*
%TO.P,J3,A5,CC1*%
%TO.N,Net-(J3-CC1)*%
X134910000Y-67440000D03*
%TO.P,J3,A6,D+*%
%TO.N,unconnected-(J3-D+-PadA6)*%
X134910000Y-66440000D03*
%TO.P,J3,A7,D-*%
%TO.N,unconnected-(J3-D--PadA7)*%
X134910000Y-65940000D03*
%TO.P,J3,A8,SBU1*%
%TO.N,unconnected-(J3-SBU1-PadA8)*%
X134910000Y-64940000D03*
D24*
%TO.P,J3,B1,GND*%
%TO.N,GND*%
X134910000Y-62990000D03*
%TO.P,J3,B4,VBUS*%
%TO.N,/BM1397/VBUS*%
X134910000Y-63790000D03*
D25*
%TO.P,J3,B5,CC2*%
%TO.N,Net-(J3-CC2)*%
X134910000Y-64440000D03*
%TO.P,J3,B6,D+*%
%TO.N,unconnected-(J3-D+-PadB6)*%
X134910000Y-65440000D03*
%TO.P,J3,B7,D-*%
%TO.N,unconnected-(J3-D--PadB7)*%
X134910000Y-66940000D03*
%TO.P,J3,B8,SBU2*%
%TO.N,unconnected-(J3-SBU2-PadB8)*%
X134910000Y-67940000D03*
D26*
%TO.P,J3,S1,SHIELD*%
%TO.N,GND*%
X135485000Y-70510000D03*
D27*
X139665000Y-70510000D03*
D26*
X135485000Y-61870000D03*
D27*
X139665000Y-61870000D03*
%TD*%
D17*
%TO.P,C18,1*%
%TO.N,Net-(IC1-VDD1_1)*%
X115120000Y-74600000D03*
%TO.P,C18,2*%
%TO.N,GND*%
X116080000Y-74600000D03*
%TD*%
D18*
%TO.P,C15,1*%
%TO.N,/BM1397/1V8*%
X93300000Y-69980000D03*
%TO.P,C15,2*%
%TO.N,GND*%
X93300000Y-69020000D03*
%TD*%
D14*
%TO.P,C11,1*%
%TO.N,Net-(U5-EN)*%
X121070000Y-71700000D03*
%TO.P,C11,2*%
%TO.N,GND*%
X121070000Y-72660000D03*
%TD*%
D17*
%TO.P,C17,1*%
%TO.N,Net-(IC1-VDD2_1)*%
X115120000Y-73500000D03*
%TO.P,C17,2*%
%TO.N,Net-(IC1-VDD1_1)*%
X116080000Y-73500000D03*
%TD*%
D28*
%TO.P,R8,1*%
%TO.N,/T_Display_S3/GPIO10*%
X93510000Y-75000000D03*
%TO.P,R8,2*%
%TO.N,/BM1397/3V3*%
X92490000Y-75000000D03*
%TD*%
D15*
%TO.P,C3,1*%
%TO.N,Net-(IC1-VDD1_0)*%
X116080000Y-58900000D03*
%TO.P,C3,2*%
%TO.N,Net-(IC1-VDD2_0)*%
X115120000Y-58900000D03*
%TD*%
D29*
%TO.P,U2,1,EN*%
%TO.N,/BM1397/1V8*%
X84550000Y-61750000D03*
%TO.P,U2,2,GND*%
%TO.N,GND*%
X86850000Y-61750000D03*
%TO.P,U2,3,OUT*%
%TO.N,/BM1397/BM_CLKI*%
X86850000Y-59850000D03*
%TO.P,U2,4,VIN*%
%TO.N,/BM1397/1V8*%
X84550000Y-59850000D03*
%TD*%
D19*
%TO.P,R4,1*%
%TO.N,/BM1397/RST_N*%
X82600000Y-66000000D03*
%TO.P,R4,2*%
%TO.N,GND*%
X82600000Y-67020000D03*
%TD*%
D15*
%TO.P,C1,1*%
%TO.N,GND*%
X86600000Y-63000000D03*
%TO.P,C1,2*%
%TO.N,/BM1397/1V8*%
X85640000Y-63000000D03*
%TD*%
D13*
%TO.P,R10,1*%
%TO.N,/BM1397/VBUS*%
X122100000Y-72710000D03*
%TO.P,R10,2*%
%TO.N,Net-(U5-EN)*%
X122100000Y-71690000D03*
%TD*%
D30*
%TO.P,FID2,*%
%TO.N,*%
X139300000Y-77400000D03*
%TD*%
D31*
%TO.P,C13,1*%
%TO.N,/BM1397/VDD*%
X121045000Y-64390000D03*
%TO.P,C13,2*%
%TO.N,GND*%
X123995000Y-64390000D03*
%TD*%
D18*
%TO.P,C21,1*%
%TO.N,/BM1397/1V8*%
X93300000Y-67880000D03*
%TO.P,C21,2*%
%TO.N,GND*%
X93300000Y-66920000D03*
%TD*%
D13*
%TO.P,R3,1*%
%TO.N,/BM1397/RST*%
X83800000Y-67020000D03*
%TO.P,R3,2*%
%TO.N,/BM1397/RST_N*%
X83800000Y-66000000D03*
%TD*%
D17*
%TO.P,C9,1*%
%TO.N,/BM1397/1V8*%
X85920000Y-67700000D03*
%TO.P,C9,2*%
%TO.N,GND*%
X86880000Y-67700000D03*
%TD*%
D14*
%TO.P,C4,1*%
%TO.N,/BM1397/0V8_O*%
X93500000Y-60220000D03*
%TO.P,C4,2*%
%TO.N,GND*%
X93500000Y-61180000D03*
%TD*%
D32*
%TO.P,R13,1*%
%TO.N,Net-(U5-FB)*%
X123400000Y-71905000D03*
%TO.P,R13,2*%
%TO.N,GND*%
X123400000Y-73555000D03*
%TD*%
D33*
%TO.P,R12,1*%
%TO.N,/BM1397/VDD*%
X125270000Y-73550000D03*
%TO.P,R12,2*%
%TO.N,Net-(U5-FB)*%
X125270000Y-71900000D03*
%TD*%
D34*
%TO.P,IC1,1,VDD3_0*%
%TO.N,Net-(IC1-VDD3_0)*%
X107900000Y-62265400D03*
%TO.P,IC1,2,VDD2_0*%
%TO.N,Net-(IC1-VDD2_0)*%
X107420000Y-62265400D03*
%TO.P,IC1,3,VDD1_0*%
%TO.N,Net-(IC1-VDD1_0)*%
X106940000Y-62265400D03*
%TO.P,IC1,4,ADDR0*%
%TO.N,unconnected-(IC1-ADDR0-Pad4)*%
X106460000Y-62265400D03*
%TO.P,IC1,5,ADDR1*%
%TO.N,unconnected-(IC1-ADDR1-Pad5)*%
X105980000Y-62265400D03*
%TO.P,IC1,6,ADDR2*%
%TO.N,GND*%
X105500000Y-62265400D03*
%TO.P,IC1,7,TEST*%
%TO.N,unconnected-(IC1-TEST-Pad7)*%
X105020000Y-62265400D03*
%TO.P,IC1,8,BI*%
%TO.N,Net-(IC1-BI)*%
X104540000Y-62265400D03*
%TO.P,IC1,9,NRSTI*%
%TO.N,/BM1397/RST_N*%
X104060000Y-62265400D03*
%TO.P,IC1,10,RO*%
%TO.N,/BM1397/RO*%
X103580000Y-62265400D03*
%TO.P,IC1,11,CI*%
%TO.N,/BM1397/CI*%
X103100000Y-62265400D03*
%TO.P,IC1,12,CLKI*%
%TO.N,/BM1397/BM_CLKI*%
X102620000Y-62265400D03*
%TO.P,IC1,13,PLL_VSS*%
%TO.N,GND*%
X102140000Y-62265400D03*
%TO.P,IC1,14,PLL_VDD*%
%TO.N,/BM1397/0V8_O*%
X101660000Y-62265400D03*
%TO.P,IC1,15,VDDIO_08_0*%
X101180000Y-62265400D03*
%TO.P,IC1,16,VDDIO_18_0*%
%TO.N,/BM1397/1V8_O*%
X100700000Y-62265400D03*
%TO.P,IC1,17,VDDIO_18_1*%
%TO.N,/BM1397/1V8*%
X100700000Y-70134600D03*
%TO.P,IC1,18,VDDIO_08_1*%
%TO.N,/BM1397/0V8_O2*%
X101180000Y-70134600D03*
%TO.P,IC1,19,VSS*%
%TO.N,GND*%
X101660000Y-70134600D03*
%TO.P,IC1,20,PIN_MODE*%
%TO.N,unconnected-(IC1-PIN_MODE-Pad20)*%
X102140000Y-70134600D03*
%TO.P,IC1,21,TEMP_N*%
%TO.N,unconnected-(IC1-TEMP_N-Pad21)*%
X102620000Y-70134600D03*
%TO.P,IC1,22,TEMP_P*%
%TO.N,unconnected-(IC1-TEMP_P-Pad22)*%
X103100000Y-70134600D03*
%TO.P,IC1,23,RF*%
%TO.N,unconnected-(IC1-RF-Pad23)*%
X103580000Y-70134600D03*
%TO.P,IC1,24,TF*%
%TO.N,unconnected-(IC1-TF-Pad24)*%
X104060000Y-70134600D03*
%TO.P,IC1,25,CLKO*%
%TO.N,unconnected-(IC1-CLKO-Pad25)*%
X104540000Y-70134600D03*
%TO.P,IC1,26,CO*%
%TO.N,unconnected-(IC1-CO-Pad26)*%
X105020000Y-70134600D03*
%TO.P,IC1,27,RI*%
%TO.N,Net-(IC1-RI)*%
X105500000Y-70134600D03*
%TO.P,IC1,28,NRSTO*%
%TO.N,unconnected-(IC1-NRSTO-Pad28)*%
X105980000Y-70134600D03*
%TO.P,IC1,29,BO*%
%TO.N,unconnected-(IC1-BO-Pad29)*%
X106460000Y-70134600D03*
%TO.P,IC1,30,VDD1_1*%
%TO.N,Net-(IC1-VDD1_1)*%
X106940000Y-70134600D03*
%TO.P,IC1,31,VDD2_1*%
%TO.N,Net-(IC1-VDD2_1)*%
X107420000Y-70134600D03*
%TO.P,IC1,32,VDD3_1*%
%TO.N,Net-(IC1-VDD3_1)*%
X107900000Y-70134600D03*
D35*
%TO.P,IC1,33,VDD*%
%TO.N,/BM1397/VDD*%
X107300000Y-66200000D03*
D36*
%TO.P,IC1,34,VSS_0*%
%TO.N,GND*%
X103100000Y-66200000D03*
%TD*%
D37*
%TO.P,U6,1,B2*%
%TO.N,/BM1397/RO*%
X85049811Y-72174800D03*
%TO.P,U6,2,GND*%
%TO.N,GND*%
X85549937Y-72174800D03*
%TO.P,U6,3,VCCA*%
%TO.N,/BM1397/3V3*%
X86050063Y-72174800D03*
%TO.P,U6,4,A2Y*%
%TO.N,/T_Display_S3/GPIO2*%
X86550189Y-72174800D03*
%TO.P,U6,5,A1*%
%TO.N,/T_Display_S3/GPIO1*%
X86550189Y-69025200D03*
%TO.P,U6,6,OE*%
%TO.N,/BM1397/1V8*%
X86050063Y-69025200D03*
%TO.P,U6,7,VCCB*%
X85549937Y-69025200D03*
%TO.P,U6,8,B1Y*%
%TO.N,/BM1397/CI*%
X85049811Y-69025200D03*
%TD*%
D15*
%TO.P,C19,1*%
%TO.N,/BM1397/VBUS*%
X91880000Y-65700000D03*
%TO.P,C19,2*%
%TO.N,GND*%
X90920000Y-65700000D03*
%TD*%
D14*
%TO.P,C22,1*%
%TO.N,/BM1397/0V8*%
X88700000Y-60220000D03*
%TO.P,C22,2*%
%TO.N,GND*%
X88700000Y-61180000D03*
%TD*%
D17*
%TO.P,C14,1*%
%TO.N,Net-(IC1-VDD3_1)*%
X115120000Y-72500000D03*
%TO.P,C14,2*%
%TO.N,Net-(IC1-VDD2_1)*%
X116080000Y-72500000D03*
%TD*%
D16*
%TO.P,R2,1*%
%TO.N,GND*%
X85190000Y-56800000D03*
%TO.P,R2,2*%
%TO.N,Net-(IC1-BI)*%
X86210000Y-56800000D03*
%TD*%
D17*
%TO.P,C12,1*%
%TO.N,/BM1397/VDD*%
X115120000Y-71500000D03*
%TO.P,C12,2*%
%TO.N,Net-(IC1-VDD3_1)*%
X116080000Y-71500000D03*
%TD*%
D19*
%TO.P,TH1,1*%
%TO.N,GND*%
X99700000Y-65590000D03*
%TO.P,TH1,2*%
%TO.N,/T_Display_S3/GPIO10*%
X99700000Y-66610000D03*
%TD*%
D38*
%TO.P,U3,1,VIN*%
%TO.N,/BM1397/VBUS*%
X91749999Y-67262500D03*
%TO.P,U3,2,GND*%
%TO.N,GND*%
X90800000Y-67262500D03*
%TO.P,U3,3,EN*%
%TO.N,/BM1397/VBUS*%
X89850001Y-67262500D03*
%TO.P,U3,4,PG*%
%TO.N,unconnected-(U3-PG-Pad4)*%
X89850001Y-69537500D03*
%TO.P,U3,5,VOUT*%
%TO.N,/BM1397/1V8*%
X91749999Y-69537500D03*
%TD*%
D15*
%TO.P,C8,1*%
%TO.N,Net-(IC1-VDD3_0)*%
X116080000Y-60900000D03*
%TO.P,C8,2*%
%TO.N,/BM1397/VDD*%
X115120000Y-60900000D03*
%TD*%
D14*
%TO.P,C16,1*%
%TO.N,/BM1397/0V8_O2*%
X93300000Y-71120000D03*
%TO.P,C16,2*%
%TO.N,GND*%
X93300000Y-72080000D03*
%TD*%
D39*
%TO.P,C24,1*%
%TO.N,/BM1397/VBUS*%
X125980000Y-69910000D03*
%TO.P,C24,2*%
%TO.N,GND*%
X125980000Y-68010000D03*
%TD*%
D30*
%TO.P,FID1,*%
%TO.N,*%
X81900000Y-55100000D03*
%TD*%
D40*
%TO.P,C10,1*%
%TO.N,/BM1397/VDD*%
X119090000Y-68315000D03*
%TO.P,C10,2*%
%TO.N,GND*%
X119090000Y-69865000D03*
%TD*%
D19*
%TO.P,R11,1*%
%TO.N,Net-(U5-EN)*%
X120040000Y-71680000D03*
%TO.P,R11,2*%
%TO.N,GND*%
X120040000Y-72700000D03*
%TD*%
D41*
%TO.N,/BM1397/RST*%
X83900000Y-69800000D03*
%TO.N,GND*%
X87600000Y-67700000D03*
X99400000Y-65100000D03*
X104050000Y-65700000D03*
X101050000Y-64700000D03*
X121200000Y-73200000D03*
X126970000Y-64480000D03*
X105050000Y-66700000D03*
X105600000Y-61200000D03*
X85450063Y-73288993D03*
X115612851Y-57176045D03*
X104050000Y-64700000D03*
X105050000Y-63700000D03*
X126300000Y-65250000D03*
X120220000Y-69580000D03*
X101050000Y-68700000D03*
X84400000Y-56800000D03*
X102050000Y-66700000D03*
X103050000Y-63700000D03*
X90100000Y-65200000D03*
X119930000Y-70800000D03*
X117890000Y-70830000D03*
X103050000Y-68700000D03*
X103050000Y-64700000D03*
X105050000Y-68700000D03*
X125670000Y-64480000D03*
X104050000Y-63700000D03*
X104050000Y-66700000D03*
X101050000Y-65700000D03*
X88000000Y-61100000D03*
X83109999Y-64124265D03*
X85546787Y-71457468D03*
X101050000Y-63700000D03*
X93677036Y-61494171D03*
X115605202Y-75309066D03*
X102050000Y-64700000D03*
X102100000Y-71700000D03*
X123390000Y-74150000D03*
X86255604Y-62397971D03*
X82300000Y-67680000D03*
X94000000Y-72000000D03*
X103050000Y-66700000D03*
X105050000Y-67700000D03*
X133800000Y-66290000D03*
X94200000Y-63700000D03*
X105050000Y-64700000D03*
X94100000Y-69000000D03*
X126300000Y-63700000D03*
X102050000Y-68700000D03*
X91100000Y-63900000D03*
X86400000Y-61000000D03*
X117890000Y-69600000D03*
X125670000Y-65980000D03*
X101050000Y-67700000D03*
X102020000Y-61000000D03*
X104050000Y-68700000D03*
X121110000Y-70780000D03*
X103050000Y-67700000D03*
X104050000Y-67700000D03*
X88900000Y-64300000D03*
X126300000Y-66800000D03*
X93400000Y-66200000D03*
X102050000Y-67700000D03*
X120200000Y-73300000D03*
X105050000Y-65700000D03*
X133800000Y-65390000D03*
X102050000Y-63700000D03*
X101050000Y-66700000D03*
X90000000Y-66100000D03*
X126970000Y-65980000D03*
X102050000Y-65700000D03*
X103050000Y-65700000D03*
%TO.N,/BM1397/3V3*%
X90856372Y-75393628D03*
X89725000Y-76525000D03*
%TO.N,/T_Display_S3/GPIO2*%
X89525735Y-74574265D03*
X88200000Y-74574265D03*
%TO.N,/T_Display_S3/GPIO10*%
X99400000Y-70580000D03*
X98910000Y-75000000D03*
%TD*%
D42*
%TO.N,/BM1397/RST*%
X83900000Y-69800000D02*
X83900000Y-69500000D01*
X83800000Y-69400000D02*
X83800000Y-67020000D01*
X83900000Y-69500000D02*
X83800000Y-69400000D01*
%TO.N,/BM1397/1V8*%
X91749999Y-69537500D02*
X92649999Y-68637500D01*
X85640000Y-63000000D02*
X85640000Y-62840000D01*
X86836134Y-63700000D02*
X85640000Y-63700000D01*
X93300000Y-67880000D02*
X92869999Y-67880000D01*
X91749999Y-70045000D02*
X92200000Y-70495001D01*
X92649999Y-68100000D02*
X92649999Y-62334448D01*
X85640000Y-62840000D02*
X84550000Y-61750000D01*
X85920000Y-68895137D02*
X86050063Y-69025200D01*
X85920000Y-63980000D02*
X85920000Y-65200000D01*
X100700000Y-70850000D02*
X100700000Y-70134600D01*
X87800000Y-62200000D02*
X87800000Y-62736134D01*
X92869999Y-67880000D02*
X92649999Y-68100000D01*
X92649999Y-68637500D02*
X92649999Y-68100000D01*
X85640000Y-60940000D02*
X84550000Y-59850000D01*
X92192499Y-69980000D02*
X91749999Y-69537500D01*
X95800000Y-71180000D02*
X100370000Y-71180000D01*
X92228051Y-61912500D02*
X88087500Y-61912500D01*
X91749999Y-69537500D02*
X91749999Y-70045000D01*
X85640000Y-63000000D02*
X85640000Y-63700000D01*
X92200000Y-70495001D02*
X92200000Y-71090001D01*
X93300000Y-69980000D02*
X94600000Y-69980000D01*
X92649999Y-62334448D02*
X92228051Y-61912500D01*
X100370000Y-71180000D02*
X100700000Y-70850000D01*
X88087500Y-61912500D02*
X87800000Y-62200000D01*
X85549937Y-69025200D02*
X86050063Y-69025200D01*
X85640000Y-63000000D02*
X85640000Y-60940000D01*
X85920000Y-65200000D02*
X85920000Y-68895137D01*
X87800000Y-62736134D02*
X86836134Y-63700000D01*
X85640000Y-63700000D02*
X85920000Y-63980000D01*
X93300000Y-69980000D02*
X92192499Y-69980000D01*
X94600000Y-69980000D02*
X95800000Y-71180000D01*
X84550000Y-59850000D02*
X84550000Y-61750000D01*
X91749999Y-69537500D02*
X91580000Y-69707499D01*
%TO.N,GND*%
X120300000Y-72810000D02*
X120300000Y-73200000D01*
X99400000Y-65290000D02*
X99400000Y-65100000D01*
X102140000Y-63610000D02*
X102050000Y-63700000D01*
X133800000Y-65390000D02*
X133325000Y-65390000D01*
X90800000Y-67262500D02*
X90800000Y-66900000D01*
X115605202Y-75309066D02*
X115605202Y-75074798D01*
X94100000Y-69000000D02*
X93320000Y-69000000D01*
X134910000Y-69390000D02*
X134910000Y-69935000D01*
X116080000Y-57643194D02*
X116080000Y-57880000D01*
X101660000Y-69090000D02*
X102050000Y-68700000D01*
X102140000Y-61120000D02*
X102140000Y-62265400D01*
X86255604Y-62655604D02*
X86600000Y-63000000D01*
X93380000Y-72000000D02*
X93300000Y-72080000D01*
X82300000Y-67680000D02*
X82600000Y-67380000D01*
X102050000Y-67450000D02*
X102050000Y-67250000D01*
X93620000Y-63700000D02*
X93500000Y-63580000D01*
X91100000Y-63037500D02*
X91100000Y-63900000D01*
X105500000Y-63250000D02*
X105050000Y-63700000D01*
X90800000Y-66900000D02*
X90000000Y-66100000D01*
X101660000Y-68840000D02*
X102050000Y-68450000D01*
X103050000Y-66250000D02*
X103100000Y-66200000D01*
X102050000Y-68450000D02*
X101660000Y-68060000D01*
X115612851Y-57176045D02*
X116080000Y-57643194D01*
X88000000Y-61100000D02*
X88620000Y-61100000D01*
X93677036Y-61357036D02*
X93500000Y-61180000D01*
X94000000Y-72000000D02*
X93380000Y-72000000D01*
X101660000Y-71260000D02*
X101660000Y-70134600D01*
X82600000Y-67380000D02*
X82600000Y-67020000D01*
X84400000Y-56800000D02*
X85190000Y-56800000D01*
X85450063Y-73288993D02*
X85450063Y-74030063D01*
X133800000Y-66290000D02*
X133660000Y-66430000D01*
X105500000Y-61300000D02*
X105600000Y-61200000D01*
X86255604Y-62397971D02*
X86255604Y-62655604D01*
X88700000Y-63580000D02*
X88700000Y-64100000D01*
X134910000Y-62990000D02*
X134910000Y-62445000D01*
X102850000Y-66450000D02*
X103050000Y-66450000D01*
X82690001Y-64980000D02*
X82690001Y-64544263D01*
X85450063Y-74030063D02*
X85620000Y-74200000D01*
X120300000Y-73200000D02*
X120200000Y-73300000D01*
X86880000Y-67700000D02*
X87600000Y-67700000D01*
X121200000Y-72420000D02*
X121200000Y-73200000D01*
X93320000Y-69000000D02*
X93300000Y-69020000D01*
X93677036Y-61494171D02*
X93677036Y-61357036D01*
X93300000Y-66920000D02*
X93300000Y-66300000D01*
X86400000Y-61000000D02*
X86400000Y-61080000D01*
X82690001Y-64709999D02*
X82690001Y-64980000D01*
X102100000Y-71700000D02*
X101660000Y-71260000D01*
X82690001Y-64544263D02*
X83109999Y-64124265D01*
X101850000Y-67450000D02*
X102050000Y-67450000D01*
X115605202Y-75074798D02*
X116080000Y-74600000D01*
X105500000Y-62265400D02*
X105500000Y-61300000D01*
X133660000Y-66430000D02*
X133165000Y-66430000D01*
X88700000Y-64100000D02*
X88900000Y-64300000D01*
X99700000Y-65590000D02*
X99400000Y-65290000D01*
X101660000Y-68060000D02*
X101660000Y-67640000D01*
X88620000Y-61100000D02*
X88700000Y-61180000D01*
X102050000Y-67250000D02*
X102850000Y-66450000D01*
X103050000Y-66450000D02*
X103050000Y-66250000D01*
X101660000Y-67640000D02*
X101850000Y-67450000D01*
X134910000Y-69935000D02*
X135485000Y-70510000D01*
X102020000Y-61000000D02*
X102140000Y-61120000D01*
X90600000Y-65700000D02*
X90100000Y-65200000D01*
X94200000Y-63700000D02*
X93620000Y-63700000D01*
X134910000Y-62445000D02*
X135485000Y-61870000D01*
X86810000Y-61490000D02*
X87400000Y-61490000D01*
X123400000Y-74140000D02*
X123400000Y-73555000D01*
X93300000Y-66300000D02*
X93400000Y-66200000D01*
X86400000Y-61080000D02*
X86810000Y-61490000D01*
X85549937Y-71460618D02*
X85546787Y-71457468D01*
X85549937Y-72174800D02*
X85549937Y-71460618D01*
X90920000Y-65700000D02*
X90600000Y-65700000D01*
X123390000Y-74150000D02*
X123400000Y-74140000D01*
%TO.N,Net-(IC1-VDD1_0)*%
X106895000Y-60665000D02*
X106895000Y-62220400D01*
X115120000Y-57880000D02*
X109680000Y-57880000D01*
X106895000Y-62220400D02*
X106940000Y-62265400D01*
X116080000Y-58840000D02*
X115120000Y-57880000D01*
X116080000Y-58900000D02*
X116080000Y-58840000D01*
X109680000Y-57880000D02*
X106895000Y-60665000D01*
%TO.N,Net-(IC1-VDD2_0)*%
X107420000Y-60870000D02*
X107420000Y-62265400D01*
X115120000Y-58900000D02*
X115100000Y-58880000D01*
X115100000Y-58880000D02*
X109410000Y-58880000D01*
X116080000Y-59860000D02*
X115120000Y-58900000D01*
X115120000Y-58900000D02*
X115020000Y-58800000D01*
X116080000Y-59900000D02*
X116080000Y-59860000D01*
X109410000Y-58880000D02*
X107420000Y-60870000D01*
%TO.N,/BM1397/0V8*%
X89607501Y-60220000D02*
X90150001Y-60762500D01*
X88700000Y-60220000D02*
X89607501Y-60220000D01*
%TO.N,Net-(IC1-VDD3_0)*%
X107900000Y-61150000D02*
X107900000Y-62265400D01*
X116080000Y-60860000D02*
X115120000Y-59900000D01*
X116080000Y-60900000D02*
X116080000Y-60860000D01*
X115100000Y-59880000D02*
X109170000Y-59880000D01*
X115120000Y-59900000D02*
X115100000Y-59880000D01*
X109170000Y-59880000D02*
X107900000Y-61150000D01*
%TO.N,/BM1397/VDD*%
X115120000Y-63180000D02*
X115100000Y-63200000D01*
X120650000Y-74750000D02*
X117290000Y-71390000D01*
X115120000Y-60900000D02*
X115120000Y-63180000D01*
X117290000Y-71390000D02*
X117290000Y-68900000D01*
X123688529Y-74700000D02*
X123638529Y-74750000D01*
X125300000Y-73812500D02*
X125300000Y-74420000D01*
X125020000Y-74700000D02*
X123688529Y-74700000D01*
X115120000Y-71500000D02*
X115120000Y-68820000D01*
X123638529Y-74750000D02*
X120650000Y-74750000D01*
X115120000Y-68820000D02*
X115100000Y-68800000D01*
X125300000Y-74420000D02*
X125020000Y-74700000D01*
%TO.N,Net-(IC1-VDD3_1)*%
X116080000Y-71500000D02*
X116080000Y-71540000D01*
X107900000Y-71100000D02*
X109300000Y-72500000D01*
X109300000Y-72500000D02*
X115120000Y-72500000D01*
X116080000Y-71540000D02*
X115120000Y-72500000D01*
X107900000Y-70134600D02*
X107900000Y-71100000D01*
%TO.N,Net-(IC1-VDD2_1)*%
X107420000Y-71410000D02*
X108910000Y-72900000D01*
X116080000Y-72500000D02*
X116080000Y-72540000D01*
X116080000Y-72540000D02*
X115120000Y-73500000D01*
X107420000Y-70134600D02*
X107420000Y-71410000D01*
X114520000Y-72900000D02*
X115120000Y-73500000D01*
X108910000Y-72900000D02*
X114520000Y-72900000D01*
%TO.N,Net-(IC1-VDD1_1)*%
X116080000Y-73640000D02*
X115120000Y-74600000D01*
X113820000Y-73300000D02*
X115120000Y-74600000D01*
X106940000Y-71740000D02*
X108500000Y-73300000D01*
X106940000Y-70134600D02*
X106940000Y-71740000D01*
X108500000Y-73300000D02*
X113820000Y-73300000D01*
X116080000Y-73500000D02*
X116080000Y-73640000D01*
D43*
%TO.N,/BM1397/VBUS*%
X132610000Y-68590000D02*
X131290000Y-69910000D01*
X126700000Y-72900000D02*
X126700000Y-74300000D01*
D42*
X91140552Y-68225000D02*
X91749999Y-67615553D01*
X90600000Y-64500000D02*
X90150001Y-64050001D01*
X116690000Y-77500000D02*
X116890000Y-77300000D01*
X92070000Y-64780000D02*
X91749999Y-65100001D01*
D43*
X126700000Y-72400000D02*
X126700000Y-72900000D01*
X125600000Y-69850000D02*
X126700000Y-70950000D01*
X133015000Y-68590000D02*
X133465000Y-68590000D01*
X132345000Y-63960000D02*
X132345000Y-67920000D01*
D42*
X90150001Y-64050001D02*
X90150001Y-63037500D01*
X90459448Y-68225000D02*
X91140552Y-68225000D01*
X126630000Y-72830000D02*
X126700000Y-72900000D01*
D43*
X126700000Y-70950000D02*
X126700000Y-72400000D01*
X123895001Y-69910000D02*
X123862500Y-69877499D01*
X134910000Y-63790000D02*
X134211606Y-63790000D01*
D42*
X113570000Y-74380000D02*
X116690000Y-77500000D01*
X92049999Y-63037500D02*
X92049999Y-64050001D01*
X122220000Y-72830000D02*
X126630000Y-72830000D01*
X91749999Y-65100001D02*
X91749999Y-67262500D01*
X93531077Y-74380000D02*
X113570000Y-74380000D01*
D43*
X132345000Y-67920000D02*
X133015000Y-68590000D01*
D42*
X92049999Y-63037500D02*
X92070000Y-63057501D01*
D43*
X126700000Y-74300000D02*
X123500000Y-77500000D01*
X132545000Y-63760000D02*
X132345000Y-63960000D01*
X134181606Y-63760000D02*
X132545000Y-63760000D01*
D42*
X91749999Y-67615553D02*
X91749999Y-67262500D01*
D43*
X123500000Y-77500000D02*
X116690000Y-77500000D01*
D42*
X122100000Y-72710000D02*
X122220000Y-72830000D01*
D43*
X134910000Y-68590000D02*
X135237563Y-68590000D01*
X134910000Y-68590000D02*
X134265000Y-68590000D01*
D42*
X92049999Y-64050001D02*
X91600000Y-64500000D01*
X89850001Y-67615553D02*
X90459448Y-68225000D01*
D43*
X133015000Y-68590000D02*
X132610000Y-68590000D01*
D42*
X88700000Y-62620000D02*
X89732501Y-62620000D01*
X89732501Y-62620000D02*
X90150001Y-63037500D01*
D43*
X133465000Y-68590000D02*
X134265000Y-68590000D01*
X131290000Y-69910000D02*
X125980000Y-69910000D01*
X125980000Y-69910000D02*
X123895001Y-69910000D01*
D42*
X89850001Y-67262500D02*
X89850001Y-67615553D01*
X90459448Y-71308371D02*
X93531077Y-74380000D01*
D43*
X134211606Y-63790000D02*
X134181606Y-63760000D01*
D42*
X91600000Y-64500000D02*
X90600000Y-64500000D01*
X90459448Y-68225000D02*
X90459448Y-71308371D01*
X92070000Y-63057501D02*
X92070000Y-64780000D01*
%TO.N,/BM1397/3V3*%
X88750000Y-77500000D02*
X88750000Y-77350000D01*
X89725000Y-76525000D02*
X88750000Y-77500000D01*
X86050063Y-73670063D02*
X86580000Y-74200000D01*
X88750000Y-77350000D02*
X86580000Y-75180000D01*
X86580000Y-75180000D02*
X86580000Y-74200000D01*
X90856372Y-75393628D02*
X91250000Y-75000000D01*
X86050063Y-72174800D02*
X86050063Y-73670063D01*
X91250000Y-75000000D02*
X92490000Y-75000000D01*
%TO.N,Net-(U5-EN)*%
X122550001Y-70464999D02*
X122550001Y-71239999D01*
X121200000Y-71780000D02*
X122010000Y-71780000D01*
X120300000Y-71790000D02*
X121190000Y-71790000D01*
X121190000Y-71790000D02*
X121200000Y-71780000D01*
X122550001Y-71239999D02*
X122100000Y-71690000D01*
X122010000Y-71780000D02*
X122100000Y-71690000D01*
%TO.N,Net-(U5-FB)*%
X124870000Y-72017500D02*
X123512500Y-72017500D01*
X123050000Y-70650000D02*
X123050000Y-70464999D01*
X123400000Y-71905000D02*
X123400000Y-71675000D01*
X123512500Y-72017500D02*
X123300000Y-71805000D01*
X123300000Y-70900000D02*
X123050000Y-70650000D01*
X123300000Y-71805000D02*
X123300000Y-70900000D01*
%TO.N,Net-(IC1-RI)*%
X103068524Y-73000000D02*
X105545000Y-70523524D01*
X105545000Y-70523524D02*
X105545000Y-70000000D01*
X93500000Y-73000000D02*
X103068524Y-73000000D01*
X92200000Y-72109999D02*
X93090001Y-73000000D01*
X93090001Y-73000000D02*
X93500000Y-73000000D01*
%TO.N,/BM1397/RST_N*%
X83709999Y-63809999D02*
X83709999Y-64980000D01*
X82722811Y-58845818D02*
X82722811Y-62822811D01*
X82722811Y-62822811D02*
X83709999Y-63809999D01*
X82600000Y-66000000D02*
X83800000Y-66000000D01*
X102400000Y-57500000D02*
X84068628Y-57500000D01*
X83800000Y-65070001D02*
X83800000Y-66000000D01*
X104060000Y-62265400D02*
X104060000Y-59160000D01*
X84068628Y-57500000D02*
X82722811Y-58845818D01*
X104060000Y-59160000D02*
X102400000Y-57500000D01*
X83709999Y-64980000D02*
X83800000Y-65070001D01*
%TO.N,/BM1397/BM_CLKI*%
X88000000Y-58700000D02*
X101400000Y-58700000D01*
X101400000Y-58700000D02*
X102620000Y-59920000D01*
X102620000Y-59920000D02*
X102620000Y-62265400D01*
X86850000Y-59850000D02*
X88000000Y-58700000D01*
%TO.N,/T_Display_S3/GPIO2*%
X89525735Y-74574265D02*
X89525735Y-74911520D01*
X93500000Y-77500000D02*
X93830000Y-77500000D01*
X88008579Y-74574265D02*
X86550189Y-73115875D01*
X89525735Y-74911520D02*
X90814215Y-76200000D01*
X86550189Y-73115875D02*
X86550189Y-72174800D01*
X88200000Y-74574265D02*
X88008579Y-74574265D01*
X90814215Y-76200000D02*
X92200000Y-76200000D01*
X92200000Y-76200000D02*
X93500000Y-77500000D01*
%TO.N,/T_Display_S3/GPIO1*%
X91290000Y-77500000D02*
X91290000Y-77241471D01*
X87300000Y-72600000D02*
X87300000Y-69775011D01*
X91290000Y-77241471D02*
X88900000Y-74851471D01*
X88900000Y-74851471D02*
X88900000Y-74200000D01*
X88900000Y-74200000D02*
X87300000Y-72600000D01*
X87300000Y-69775011D02*
X86550189Y-69025200D01*
%TO.N,Net-(J3-CC1)*%
X133175000Y-67440000D02*
X134910000Y-67440000D01*
%TO.N,Net-(J3-CC2)*%
X133175000Y-64440000D02*
X134910000Y-64440000D01*
%TO.N,/BM1397/RO*%
X102100000Y-57900000D02*
X103580000Y-59380000D01*
X83122811Y-62588497D02*
X83122811Y-59011504D01*
X84622811Y-71382021D02*
X84622811Y-64088497D01*
X85049811Y-71809021D02*
X84622811Y-71382021D01*
X84622811Y-64088497D02*
X83122811Y-62588497D01*
X83122811Y-59011504D02*
X84234314Y-57900000D01*
X103580000Y-59380000D02*
X103580000Y-62265400D01*
X84234314Y-57900000D02*
X102100000Y-57900000D01*
X85049811Y-72174800D02*
X85049811Y-71809021D01*
%TO.N,/BM1397/CI*%
X83549811Y-59150189D02*
X84400000Y-58300000D01*
X85049811Y-63949811D02*
X83549811Y-62449811D01*
X83549811Y-62449811D02*
X83549811Y-59150189D01*
X103100000Y-59600000D02*
X103100000Y-62265400D01*
X85049811Y-69025200D02*
X85049811Y-63949811D01*
X101800000Y-58300000D02*
X103100000Y-59600000D01*
X84400000Y-58300000D02*
X101800000Y-58300000D01*
%TO.N,/T_Display_S3/GPIO10*%
X99400000Y-66910000D02*
X99400000Y-70580000D01*
X99700000Y-66610000D02*
X99400000Y-66910000D01*
X93510000Y-75000000D02*
X98910000Y-75000000D01*
%TO.N,/BM1397/0V8_O*%
X101180000Y-62265400D02*
X101180000Y-61180000D01*
X101660000Y-61488529D02*
X101660000Y-62265400D01*
X100950000Y-60950000D02*
X100120000Y-60120000D01*
X101180000Y-61180000D02*
X101351471Y-61180000D01*
X93600000Y-60120000D02*
X93500000Y-60220000D01*
X100120000Y-60120000D02*
X93600000Y-60120000D01*
X101351471Y-61180000D02*
X101660000Y-61488529D01*
X101180000Y-61180000D02*
X100950000Y-60950000D01*
X101200000Y-61200000D02*
X100950000Y-60950000D01*
X101180000Y-61180000D02*
X101200000Y-61200000D01*
%TO.N,Net-(IC1-BI)*%
X104540000Y-59074314D02*
X104540000Y-62265400D01*
X86510000Y-57100000D02*
X102565686Y-57100000D01*
X102565686Y-57100000D02*
X104540000Y-59074314D01*
X86210000Y-56800000D02*
X86510000Y-57100000D01*
%TO.N,/BM1397/1V8_O*%
X100450000Y-61220000D02*
X95570000Y-61220000D01*
X100700000Y-62265400D02*
X100700000Y-61470000D01*
X95570000Y-61220000D02*
X94170000Y-62620000D01*
X100700000Y-61470000D02*
X100450000Y-61220000D01*
X94170000Y-62620000D02*
X93500000Y-62620000D01*
%TO.N,/BM1397/0V8_O2*%
X93300000Y-71120000D02*
X94380000Y-71120000D01*
X95020000Y-71760000D02*
X100500000Y-71760000D01*
X100500000Y-71760000D02*
X101180000Y-71080000D01*
X101180000Y-71080000D02*
X101180000Y-70134600D01*
X94380000Y-71120000D02*
X95020000Y-71760000D01*
%TD*%
%TA.AperFunction,Conductor*%
%TO.N,GND*%
G36*
X120760996Y-69297593D02*
G01*
X120772569Y-69309750D01*
X121614711Y-70419846D01*
X121630000Y-70465296D01*
X121630000Y-71024800D01*
X121612407Y-71073138D01*
X121567858Y-71098858D01*
X121554800Y-71100000D01*
X120199876Y-71100000D01*
X117665983Y-71109526D01*
X117617579Y-71092115D01*
X117591692Y-71047664D01*
X117590500Y-71034327D01*
X117590500Y-69355200D01*
X117608093Y-69306862D01*
X117652642Y-69281142D01*
X117665700Y-69280000D01*
X120712658Y-69280000D01*
X120760996Y-69297593D01*
G37*
%TD.AperFunction*%
%TD*%
%TA.AperFunction,Conductor*%
%TO.N,GND*%
G36*
X127761980Y-63002383D02*
G01*
X127821480Y-63014218D01*
X127866175Y-63032730D01*
X127906272Y-63059522D01*
X127940477Y-63093727D01*
X127967267Y-63133822D01*
X127985781Y-63178517D01*
X127989542Y-63197427D01*
X127997617Y-63238022D01*
X128000000Y-63262210D01*
X128000000Y-68756172D01*
X127997598Y-68780459D01*
X127985670Y-68840179D01*
X127967012Y-68885025D01*
X127940031Y-68925200D01*
X127905582Y-68959435D01*
X127876253Y-68978868D01*
X127809495Y-68999488D01*
X127807762Y-68999500D01*
X127365302Y-68999500D01*
X127329013Y-69002356D01*
X127329006Y-69002357D01*
X127301017Y-69010489D01*
X127265649Y-69015409D01*
X127141789Y-69014635D01*
X126869931Y-69012936D01*
X126805611Y-68994478D01*
X126774334Y-68975186D01*
X126607797Y-68920001D01*
X126607795Y-68920000D01*
X126505010Y-68909500D01*
X125454998Y-68909500D01*
X125454980Y-68909501D01*
X125352203Y-68920000D01*
X125352200Y-68920001D01*
X125185668Y-68975185D01*
X125185658Y-68975190D01*
X125172255Y-68983457D01*
X125106388Y-69001914D01*
X125073726Y-69001710D01*
X125006810Y-68981607D01*
X124961386Y-68928518D01*
X124950500Y-68877716D01*
X124950500Y-66692128D01*
X124944092Y-66632517D01*
X124893797Y-66497669D01*
X124840975Y-66427108D01*
X124816558Y-66361646D01*
X124816245Y-66352072D01*
X124818457Y-65991534D01*
X124818456Y-65991533D01*
X124820000Y-65740000D01*
X124568463Y-65740000D01*
X123709403Y-65740000D01*
X123685379Y-65737650D01*
X123661429Y-65732920D01*
X123626263Y-65725975D01*
X123581823Y-65707710D01*
X123541889Y-65681264D01*
X123507726Y-65647473D01*
X123480844Y-65607831D01*
X123462093Y-65563591D01*
X123449773Y-65504609D01*
X123447160Y-65480613D01*
X123422901Y-63265024D01*
X123425050Y-63240653D01*
X123436392Y-63180636D01*
X123454661Y-63135483D01*
X123481351Y-63094941D01*
X123515607Y-63060308D01*
X123555854Y-63033176D01*
X123600807Y-63014413D01*
X123634772Y-63007608D01*
X123660693Y-63002416D01*
X123685050Y-63000000D01*
X127737789Y-63000000D01*
X127761980Y-63002383D01*
G37*
%TD.AperFunction*%
%TD*%
%TA.AperFunction,Conductor*%
%TO.N,/BM1397/VDD*%
G36*
X121373277Y-63032831D02*
G01*
X121432625Y-63044473D01*
X121477230Y-63062777D01*
X121501293Y-63078717D01*
X121517296Y-63089318D01*
X121551550Y-63123254D01*
X121578462Y-63163070D01*
X121597181Y-63207505D01*
X121609373Y-63266726D01*
X121611917Y-63290818D01*
X121628726Y-65576849D01*
X121630000Y-65750000D01*
X121659272Y-65804526D01*
X121659274Y-65804530D01*
X122106946Y-66638429D01*
X122113277Y-66652174D01*
X122127079Y-66687699D01*
X122134507Y-66716976D01*
X122139309Y-66754771D01*
X122140297Y-66769872D01*
X122148872Y-68785067D01*
X122146561Y-68809427D01*
X122134826Y-68869347D01*
X122116261Y-68914374D01*
X122089318Y-68954724D01*
X122054847Y-68989126D01*
X122014439Y-69015991D01*
X121969379Y-69034465D01*
X121909440Y-69046081D01*
X121885073Y-69048344D01*
X121804118Y-69047838D01*
X121662874Y-69046955D01*
X120588403Y-69040239D01*
X120580014Y-69039900D01*
X120565944Y-69038854D01*
X120558751Y-69038319D01*
X120542073Y-69035930D01*
X120521207Y-69031476D01*
X120513062Y-69029445D01*
X120328144Y-68976612D01*
X120284558Y-68964159D01*
X120233686Y-68949624D01*
X120233674Y-68949621D01*
X120233667Y-68949619D01*
X120233665Y-68949618D01*
X120200000Y-68940000D01*
X120164988Y-68940000D01*
X117508683Y-68940000D01*
X117390000Y-68940000D01*
X117314973Y-69031966D01*
X117314973Y-69031967D01*
X117163448Y-69217708D01*
X117143936Y-69236858D01*
X117090478Y-69278826D01*
X117041419Y-69302201D01*
X116975155Y-69317279D01*
X116947994Y-69320369D01*
X106652519Y-69349262D01*
X106628306Y-69346944D01*
X106568733Y-69335258D01*
X106523953Y-69316840D01*
X106483769Y-69290126D01*
X106449458Y-69255966D01*
X106422569Y-69215903D01*
X106403955Y-69171204D01*
X106392006Y-69111675D01*
X106389582Y-69087480D01*
X106389523Y-69050000D01*
X106380416Y-63322109D01*
X106382759Y-63297925D01*
X106388912Y-63266726D01*
X106394495Y-63238415D01*
X106412930Y-63193699D01*
X106439643Y-63153570D01*
X106473781Y-63119309D01*
X106513818Y-63092451D01*
X106558462Y-63073861D01*
X106617944Y-63061910D01*
X106642104Y-63059483D01*
X121349181Y-63030513D01*
X121373277Y-63032831D01*
G37*
%TD.AperFunction*%
%TD*%
M02*
