M48
; DRILL file {KiCad 8.0.1} date 2024-04-08T01:45:05-0400
; FORMAT={-:-/ absolute / inch / decimal}
; #@! TF.CreationDate,2024-04-08T01:45:05-04:00
; #@! TF.GenerationSoftware,Kicad,Pcbnew,8.0.1
; #@! TF.FileFunction,Plated,1,2,PTH
FMAT,2
INCH
; #@! TA.AperFunction,Plated,PTH,ViaDrill
T1C0.0118
; #@! TA.AperFunction,Plated,PTH,ComponentDrill
T2C0.0236
; #@! TA.AperFunction,Plated,PTH,ComponentDrill
T3C0.0394
%
G90
G05
T1
X3.1181Y-2.5
X3.122Y-2.874
X3.126Y-2.9803
X3.1299Y-2.6063
X3.2004Y-2.2417
X3.2015Y-2.9198
X3.2874Y-2.8268
X3.3959Y-2.4566
X3.4016Y-2.4016
X3.4646Y-2.4055
X3.5Y-2.5315
X3.5276Y-2.8071
X3.5433Y-2.6024
X3.5433Y-2.9413
X3.5472Y-2.5669
X3.5512Y-2.8937
X3.5866Y-2.5157
X3.6457Y-2.8307
X3.6772Y-2.5236
X3.6881Y-2.421
X3.6885Y-2.6948
X3.9134Y-2.563
X3.9134Y-2.7787
X3.9783Y-2.5079
X3.9783Y-2.5472
X3.9783Y-2.5866
X3.9783Y-2.626
X3.9783Y-2.6654
X3.9783Y-2.7047
X4.0165Y-2.4016
X4.0177Y-2.5079
X4.0177Y-2.5472
X4.0177Y-2.5866
X4.0177Y-2.626
X4.0177Y-2.6654
X4.0177Y-2.7047
X4.0197Y-2.8079
X4.0571Y-2.5079
X4.0571Y-2.5472
X4.0571Y-2.5866
X4.0571Y-2.626
X4.0571Y-2.6654
X4.0571Y-2.7047
X4.0965Y-2.5079
X4.0965Y-2.5472
X4.0965Y-2.5866
X4.0965Y-2.626
X4.0965Y-2.6654
X4.0965Y-2.7047
X4.1358Y-2.5079
X4.1358Y-2.5472
X4.1358Y-2.5866
X4.1358Y-2.626
X4.1358Y-2.6654
X4.1358Y-2.7047
X4.1575Y-2.4094
X4.5654Y-2.9779
X4.5984Y-2.248
X4.6413Y-2.7402
X4.6413Y-2.7886
X4.7217Y-2.7874
X4.7323Y-2.8858
X4.7331Y-2.7394
X4.7681Y-2.7866
X4.7717Y-2.8819
X4.8579Y-2.9193
X4.9268Y-2.5362
X4.9539Y-2.5047
X4.9539Y-2.5657
X4.9539Y-2.6268
X5.0024Y-2.5051
X5.0024Y-2.5661
X5.0024Y-2.6272
X5.052Y-2.5043
X5.052Y-2.5654
X5.052Y-2.6264
X5.2874Y-2.563
X5.2874Y-2.598
T3
X3.4941Y-2.1555
X3.4941Y-3.0512
X3.5941Y-2.1555
X3.5941Y-3.0512
X3.6941Y-2.1555
X3.6941Y-3.0512
X3.7941Y-2.1555
X3.7941Y-3.0512
X3.8941Y-2.1555
X3.8941Y-3.0512
X3.9941Y-2.1555
X3.9941Y-3.0512
X4.0941Y-2.1555
X4.0941Y-3.0512
X4.1941Y-2.1555
X4.1941Y-3.0512
X4.2941Y-2.1555
X4.2941Y-3.0512
X4.3941Y-2.1555
X4.3941Y-3.0512
X4.4941Y-2.1555
X4.4941Y-3.0512
X4.5941Y-2.1555
X4.5941Y-3.0512
T2
G00X5.3846Y-2.4185
M15
G01X5.428Y-2.4185
M16
G05
G00X5.3846Y-2.7587
M15
G01X5.428Y-2.7587
M16
G05
G00X5.5551Y-2.4185
M15
G01X5.5866Y-2.4185
M16
G05
G00X5.5551Y-2.7587
M15
G01X5.5866Y-2.7587
M16
G05
M30
