%TF.GenerationSoftware,KiCad,Pcbnew,8.0.1*%
%TF.CreationDate,2024-04-08T01:45:07-04:00*%
%TF.ProjectId,NerdNOS,4e657264-4e4f-4532-9e6b-696361645f70,rev?*%
%TF.SameCoordinates,Original*%
%TF.FileFunction,Legend,Bot*%
%TF.FilePolarity,Positive*%
%FSLAX46Y46*%
G04 Gerber Fmt 4.6, Leading zero omitted, Abs format (unit mm)*
G04 Created by KiCad (PCBNEW 8.0.1) date 2024-04-08 01:45:07*
%MOMM*%
%LPD*%
G01*
G04 APERTURE LIST*
%ADD10C,0.150000*%
%ADD11C,0.120000*%
G04 APERTURE END LIST*
D10*
X118474819Y-77166666D02*
X119189104Y-77166666D01*
X119189104Y-77166666D02*
X119331961Y-77119047D01*
X119331961Y-77119047D02*
X119427200Y-77023809D01*
X119427200Y-77023809D02*
X119474819Y-76880952D01*
X119474819Y-76880952D02*
X119474819Y-76785714D01*
X118570057Y-77595238D02*
X118522438Y-77642857D01*
X118522438Y-77642857D02*
X118474819Y-77738095D01*
X118474819Y-77738095D02*
X118474819Y-77976190D01*
X118474819Y-77976190D02*
X118522438Y-78071428D01*
X118522438Y-78071428D02*
X118570057Y-78119047D01*
X118570057Y-78119047D02*
X118665295Y-78166666D01*
X118665295Y-78166666D02*
X118760533Y-78166666D01*
X118760533Y-78166666D02*
X118903390Y-78119047D01*
X118903390Y-78119047D02*
X119474819Y-77547619D01*
X119474819Y-77547619D02*
X119474819Y-78166666D01*
X118474819Y-54416666D02*
X119189104Y-54416666D01*
X119189104Y-54416666D02*
X119331961Y-54369047D01*
X119331961Y-54369047D02*
X119427200Y-54273809D01*
X119427200Y-54273809D02*
X119474819Y-54130952D01*
X119474819Y-54130952D02*
X119474819Y-54035714D01*
X119474819Y-55416666D02*
X119474819Y-54845238D01*
X119474819Y-55130952D02*
X118474819Y-55130952D01*
X118474819Y-55130952D02*
X118617676Y-55035714D01*
X118617676Y-55035714D02*
X118712914Y-54940476D01*
X118712914Y-54940476D02*
X118760533Y-54845238D01*
D11*
%TO.C,J2*%
X87420000Y-76170000D02*
X87420000Y-78830000D01*
X87420000Y-76170000D02*
X115420000Y-76170000D01*
X87420000Y-78830000D02*
X115420000Y-78830000D01*
X115420000Y-76170000D02*
X115420000Y-78830000D01*
X118020000Y-77500000D02*
X118020000Y-78830000D01*
X118020000Y-78830000D02*
X116690000Y-78830000D01*
%TO.C,J1*%
X87420000Y-53420000D02*
X87420000Y-56080000D01*
X87420000Y-53420000D02*
X115420000Y-53420000D01*
X87420000Y-56080000D02*
X115420000Y-56080000D01*
X115420000Y-53420000D02*
X115420000Y-56080000D01*
X118020000Y-54750000D02*
X118020000Y-56080000D01*
X118020000Y-56080000D02*
X116690000Y-56080000D01*
%TD*%
M02*
